<svg width="512" height="512" viewBox="0 0 512 512" fill="none" xmlns="http://www.w3.org/2000/svg">
  <rect width="512" height="512" fill="#FDFBF7"/>
  <g stroke="#1a1a1a" fill="none" stroke-linecap="round" stroke-linejoin="round">
    <path d="M 553.49 256.00 C 553.50 257.72, 551.94 262.91, 550.84 266.30 C 549.73 269.69, 548.06 273.02, 546.85 276.34 C 545.64 279.66, 544.27 282.90, 543.59 286.23 C 542.91 289.55, 542.70 292.88, 542.77 296.30 C 542.83 299.73, 543.57 303.25, 544.00 306.78 C 544.42 310.31, 545.00 313.91, 545.31 317.50 C 545.63 321.08, 545.54 324.60, 545.89 328.28 C 546.24 331.95, 546.86 335.73, 547.42 339.56 C 547.98 343.40, 548.98 347.43, 549.26 351.29 C 549.55 355.14, 549.69 359.05, 549.12 362.69 C 548.55 366.32, 547.28 369.77, 545.84 373.10 C 544.41 376.43, 542.24 379.47, 540.50 382.67 C 538.76 385.86, 536.92 388.98, 535.42 392.28 C 533.92 395.59, 532.69 399.00, 531.52 402.49 C 530.34 405.99, 529.41 409.62, 528.36 413.24 C 527.30 416.87, 526.53 420.70, 525.21 424.22 C 523.90 427.75, 522.48 431.28, 520.47 434.38 C 518.45 437.49, 515.92 440.29, 513.14 442.83 C 510.37 445.36, 507.00 447.46, 503.82 449.62 C 500.64 451.78, 497.22 453.68, 494.08 455.77 C 490.93 457.86, 487.97 460.04, 484.95 462.14 C 481.92 464.25, 479.05 466.46, 475.93 468.38 C 472.81 470.31, 469.53 472.05, 466.21 473.68 C 462.89 475.30, 459.36 476.65, 456.01 478.13 C 452.66 479.62, 449.26 480.95, 446.13 482.59 C 443.01 484.23, 440.02 485.95, 437.25 487.99 C 434.48 490.02, 431.98 492.35, 429.51 494.81 C 427.04 497.28, 424.83 500.11, 422.45 502.77 C 420.07 505.43, 417.69 508.17, 415.21 510.79 C 412.72 513.40, 410.25 516.13, 407.54 518.48 C 404.83 520.82, 402.02 523.10, 398.95 524.85 C 395.89 526.61, 392.55 527.92, 389.15 529.00 C 385.76 530.08, 382.12 530.66, 378.59 531.33 C 375.05 532.00, 371.40 532.32, 367.92 533.02 C 364.45 533.72, 361.03 534.41, 357.75 535.55 C 354.46 536.68, 351.36 538.21, 348.22 539.81 C 345.08 541.41, 342.01 543.23, 338.91 545.15 C 335.82 547.08, 332.78 549.29, 329.64 551.37 C 326.51 553.45, 323.39 555.81, 320.11 557.63 C 316.84 559.45, 313.46 561.09, 310.01 562.29 C 306.56 563.49, 302.97 564.19, 299.40 564.84 C 295.84 565.49, 292.21 565.76, 288.60 566.17 C 284.99 566.59, 281.39 567.14, 277.77 567.33 C 274.15 567.51, 270.50 567.83, 266.87 567.27 C 263.24 566.71, 259.57 565.37, 256.00 563.97 C 252.43 562.57, 248.90 560.41, 245.42 558.86 C 241.94 557.31, 238.55 555.66, 235.11 554.68 C 231.67 553.70, 228.27 553.24, 224.78 553.00 C 221.30 552.76, 217.77 553.12, 214.23 553.24 C 210.68 553.37, 207.03 553.91, 203.50 553.74 C 199.97 553.56, 196.39 553.29, 193.04 552.21 C 189.69 551.13, 186.49 549.20, 183.38 547.25 C 180.28 545.30, 177.41 542.59, 174.42 540.49 C 171.44 538.39, 168.58 536.14, 165.46 534.64 C 162.35 533.15, 159.14 532.15, 155.72 531.51 C 152.31 530.87, 148.61 531.01, 144.97 530.80 C 141.34 530.58, 137.47 530.79, 133.91 530.21 C 130.36 529.64, 126.85 528.78, 123.66 527.34 C 120.47 525.91, 117.51 523.89, 114.77 521.62 C 112.03 519.35, 109.59 516.50, 107.20 513.73 C 104.81 510.96, 102.66 507.84, 100.41 505.00 C 98.15 502.16, 96.00 499.27, 93.65 496.70 C 91.30 494.12, 88.88 491.75, 86.31 489.56 C 83.74 487.37, 80.97 485.49, 78.23 483.54 C 75.48 481.59, 72.65 479.75, 69.83 477.87 C 67.00 475.99, 64.16 474.12, 61.28 472.26 C 58.40 470.39, 55.39 468.64, 52.55 466.68 C 49.71 464.71, 46.81 462.76, 44.26 460.48 C 41.71 458.19, 39.47 455.57, 37.23 452.98 C 34.99 450.39, 33.13 447.49, 30.81 444.95 C 28.50 442.42, 26.03 440.05, 23.32 437.79 C 20.62 435.53, 17.44 433.61, 14.60 431.39 C 11.75 429.17, 8.64 427.06, 6.24 424.46 C 3.84 421.87, 1.66 419.04, 0.20 415.84 C -1.25 412.63, -2.08 408.99, -2.48 405.23 C -2.88 401.47, -2.49 397.29, -2.18 393.28 C -1.87 389.26, -1.09 385.09, -0.61 381.15 C -0.12 377.22, 0.65 373.27, 0.71 369.66 C 0.76 366.06, 0.74 362.63, -0.27 359.54 C -1.28 356.45, -2.98 353.73, -5.35 351.13 C -7.73 348.52, -11.12 346.29, -14.51 343.89 C -17.89 341.50, -22.07 339.28, -25.65 336.76 C -29.24 334.25, -32.79 331.61, -36.01 328.81 C -39.23 326.01, -41.85 322.98, -44.96 319.97 C -48.06 316.96, -51.48 313.94, -54.64 310.77 C -57.80 307.61, -61.40 304.38, -63.92 300.96 C -66.44 297.54, -68.64 293.93, -69.75 290.24 C -70.87 286.55, -70.96 282.66, -70.61 278.84 C -70.26 275.02, -68.84 271.11, -67.64 267.30 C -66.45 263.50, -64.76 259.72, -63.44 256.00 C -62.11 252.28, -60.54 248.64, -59.68 244.98 C -58.82 241.31, -58.37 237.71, -58.27 234.02 C -58.16 230.34, -58.74 226.63, -59.07 222.89 C -59.39 219.14, -60.15 215.31, -60.24 211.56 C -60.32 207.80, -60.31 203.99, -59.59 200.35 C -58.87 196.71, -57.50 193.14, -55.89 189.71 C -54.28 186.27, -51.96 183.00, -49.92 179.73 C -47.87 176.46, -45.66 173.28, -43.62 170.09 C -41.58 166.89, -39.61 163.73, -37.69 160.57 C -35.77 157.42, -33.98 154.25, -32.09 151.14 C -30.21 148.03, -28.43 144.90, -26.36 141.92 C -24.30 138.94, -22.19 135.97, -19.69 133.25 C -17.19 130.53, -14.37 127.98, -11.37 125.60 C -8.37 123.22, -5.08 121.02, -1.70 118.98 C 1.69 116.94, 5.34 115.11, 8.95 113.37 C 12.56 111.62, 16.53 110.19, 19.96 108.51 C 23.40 106.83, 26.81 105.27, 29.56 103.27 C 32.31 101.26, 34.61 99.08, 36.46 96.49 C 38.30 93.90, 39.44 90.85, 40.61 87.72 C 41.79 84.59, 42.44 81.01, 43.50 77.69 C 44.56 74.37, 45.60 70.95, 46.98 67.79 C 48.35 64.64, 50.01 61.67, 51.77 58.78 C 53.53 55.89, 55.51 53.17, 57.53 50.48 C 59.55 47.79, 61.72 45.22, 63.87 42.62 C 66.03 40.03, 68.25 37.47, 70.48 34.91 C 72.71 32.34, 74.97 29.77, 77.27 27.24 C 79.58 24.70, 81.92 22.18, 84.31 19.68 C 86.70 17.19, 89.14 14.73, 91.62 12.29 C 94.10 9.85, 96.64 7.47, 99.19 5.06 C 101.75 2.65, 104.31 0.20, 106.94 -2.17 C 109.58 -4.54, 112.19 -7.04, 115.01 -9.17 C 117.82 -11.31, 120.70 -13.43, 123.84 -14.97 C 126.97 -16.51, 130.36 -17.63, 133.82 -18.42 C 137.28 -19.21, 141.04 -19.29, 144.61 -19.70 C 148.18 -20.10, 151.77 -20.33, 155.24 -20.84 C 158.71 -21.35, 162.07 -22.04, 165.42 -22.77 C 168.78 -23.49, 172.06 -24.38, 175.37 -25.19 C 178.68 -25.99, 181.97 -26.87, 185.29 -27.61 C 188.61 -28.34, 191.95 -29.02, 195.30 -29.59 C 198.65 -30.15, 202.03 -30.52, 205.39 -31.00 C 208.75 -31.48, 212.14 -31.63, 215.46 -32.47 C 218.78 -33.31, 222.02 -34.43, 225.30 -36.07 C 228.58 -37.70, 231.80 -40.09, 235.14 -42.27 C 238.48 -44.45, 241.87 -47.20, 245.34 -49.13 C 248.82 -51.06, 252.42 -52.98, 256.00 -53.83 C 259.58 -54.68, 263.26 -54.82, 266.83 -54.23 C 270.40 -53.64, 273.95 -51.85, 277.42 -50.30 C 280.88 -48.75, 284.25 -46.56, 287.63 -44.95 C 291.01 -43.33, 294.34 -41.88, 297.69 -40.61 C 301.04 -39.35, 304.42 -38.54, 307.73 -37.36 C 311.04 -36.18, 314.36 -35.10, 317.54 -33.53 C 320.72 -31.96, 323.83 -30.10, 326.79 -27.93 C 329.75 -25.76, 332.54 -23.07, 335.29 -20.53 C 338.05 -17.99, 340.55 -14.90, 343.31 -12.70 C 346.06 -10.50, 348.78 -8.52, 351.84 -7.32 C 354.89 -6.11, 358.21 -5.77, 361.64 -5.47 C 365.07 -5.17, 368.82 -5.58, 372.43 -5.51 C 376.04 -5.43, 379.83 -5.58, 383.31 -5.03 C 386.79 -4.49, 390.20 -3.62, 393.31 -2.25 C 396.42 -0.88, 399.22 1.16, 401.96 3.19 C 404.70 5.22, 407.13 7.76, 409.76 9.93 C 412.39 12.10, 414.76 14.57, 417.74 16.21 C 420.73 17.84, 423.87 19.11, 427.66 19.73 C 431.45 20.34, 436.04 19.89, 440.48 19.88 C 444.92 19.87, 450.11 19.13, 454.30 19.68 C 458.49 20.23, 462.59 21.17, 465.63 23.18 C 468.68 25.18, 470.82 28.36, 472.59 31.71 C 474.37 35.05, 475.27 39.31, 476.31 43.25 C 477.35 47.19, 478.14 51.29, 478.82 55.37 C 479.51 59.44, 479.86 63.70, 480.41 67.70 C 480.95 71.70, 481.15 75.84, 482.09 79.36 C 483.04 82.88, 484.20 86.08, 486.08 88.84 C 487.96 91.59, 490.61 93.72, 493.38 95.88 C 496.16 98.05, 499.68 99.75, 502.73 101.83 C 505.78 103.91, 509.01 105.97, 511.70 108.37 C 514.38 110.78, 516.78 113.43, 518.83 116.25 C 520.88 119.07, 522.81 122.03, 524.00 125.29 C 525.19 128.54, 525.76 132.15, 525.97 135.80 C 526.17 139.46, 525.42 143.50, 525.25 147.21 C 525.09 150.93, 524.60 154.67, 524.98 158.10 C 525.36 161.52, 526.26 164.68, 527.56 167.77 C 528.86 170.86, 530.96 173.67, 532.77 176.64 C 534.57 179.61, 536.63 182.54, 538.39 185.59 C 540.15 188.64, 541.57 191.80, 543.32 194.93 C 545.07 198.05, 547.15 201.15, 548.88 204.36 C 550.62 207.56, 552.60 210.80, 553.71 214.16 C 554.83 217.52, 555.48 221.02, 555.58 224.51 C 555.68 228.01, 554.90 231.62, 554.30 235.14 C 553.71 238.67, 552.59 242.19, 552.00 245.66 C 551.42 249.14, 550.53 254.28, 550.78 256.00 C 551.03 257.72, 553.48 254.28, 553.49 256.00 Z" stroke-width="2.10" opacity="0.05"/>
    <path d="M 531.94 256.00 C 532.33 257.62, 533.91 262.48, 534.20 265.71 C 534.49 268.95, 534.34 272.23, 533.70 275.42 C 533.05 278.60, 531.68 281.75, 530.32 284.83 C 528.97 287.91, 527.05 290.89, 525.57 293.89 C 524.08 296.88, 522.47 299.79, 521.43 302.80 C 520.39 305.82, 519.74 308.84, 519.32 311.97 C 518.91 315.10, 519.11 318.35, 518.94 321.56 C 518.78 324.77, 518.73 328.04, 518.34 331.23 C 517.95 334.41, 517.48 337.62, 516.59 340.67 C 515.69 343.72, 514.48 346.71, 512.98 349.53 C 511.48 352.36, 509.52 355.03, 507.56 357.64 C 505.60 360.25, 503.30 362.68, 501.22 365.18 C 499.14 367.68, 496.99 370.09, 495.11 372.62 C 493.23 375.16, 491.58 377.76, 489.93 380.38 C 488.28 383.00, 486.90 385.76, 485.22 388.34 C 483.54 390.93, 481.74 393.44, 479.88 395.89 C 478.01 398.35, 475.91 400.64, 474.05 403.07 C 472.18 405.51, 470.30 407.90, 468.67 410.51 C 467.04 413.12, 465.65 415.89, 464.26 418.71 C 462.88 421.54, 461.74 424.59, 460.34 427.46 C 458.94 430.33, 457.53 433.26, 455.85 435.95 C 454.17 438.64, 452.26 441.17, 450.26 443.59 C 448.26 446.02, 446.05 448.27, 443.84 450.51 C 441.63 452.75, 439.32 454.89, 437.00 457.02 C 434.68 459.14, 432.35 461.27, 429.92 463.27 C 427.48 465.26, 425.07 467.30, 422.41 468.99 C 419.74 470.68, 416.90 472.15, 413.94 473.38 C 410.98 474.61, 407.78 475.50, 404.64 476.37 C 401.50 477.24, 398.21 477.81, 395.09 478.59 C 391.97 479.37, 388.85 480.04, 385.93 481.05 C 383.01 482.06, 380.24 483.22, 377.56 484.63 C 374.89 486.04, 372.41 487.77, 369.90 489.53 C 367.39 491.29, 364.97 493.25, 362.49 495.18 C 360.01 497.10, 357.49 498.96, 355.03 501.10 C 352.57 503.25, 350.18 505.61, 347.74 508.04 C 345.29 510.48, 342.95 513.33, 340.39 515.71 C 337.82 518.09, 335.20 520.57, 332.37 522.33 C 329.54 524.10, 326.51 525.46, 323.39 526.30 C 320.28 527.14, 316.96 527.31, 313.68 527.38 C 310.41 527.45, 307.04 527.04, 303.74 526.74 C 300.44 526.45, 297.17 526.18, 293.89 525.62 C 290.62 525.05, 287.34 524.30, 284.10 523.36 C 280.86 522.43, 277.62 521.03, 274.46 520.01 C 271.30 518.99, 268.20 517.86, 265.12 517.27 C 262.05 516.68, 259.04 516.44, 256.00 516.49 C 252.96 516.53, 249.93 517.11, 246.87 517.55 C 243.80 517.99, 240.71 518.68, 237.60 519.12 C 234.50 519.56, 231.36 519.94, 228.23 520.18 C 225.10 520.41, 221.93 520.69, 218.82 520.51 C 215.72 520.33, 212.62 519.86, 209.61 519.10 C 206.59 518.35, 203.64 517.17, 200.74 515.99 C 197.83 514.81, 195.01 513.31, 192.16 512.03 C 189.32 510.75, 186.52 509.40, 183.65 508.32 C 180.77 507.24, 177.86 506.37, 174.92 505.55 C 171.97 504.73, 168.90 504.25, 165.95 503.40 C 163.01 502.54, 160.03 501.71, 157.25 500.42 C 154.47 499.14, 151.81 497.50, 149.28 495.69 C 146.76 493.87, 144.42 491.66, 142.10 489.52 C 139.78 487.39, 137.63 485.01, 135.37 482.88 C 133.10 480.76, 130.91 478.61, 128.54 476.77 C 126.16 474.93, 123.73 473.28, 121.12 471.85 C 118.51 470.41, 115.73 469.30, 112.89 468.17 C 110.06 467.03, 106.99 466.21, 104.11 465.06 C 101.24 463.90, 98.29 462.77, 95.65 461.24 C 93.02 459.70, 90.59 457.83, 88.30 455.86 C 86.00 453.88, 84.01 451.54, 81.87 449.39 C 79.74 447.23, 77.76 444.94, 75.49 442.92 C 73.23 440.90, 70.81 439.07, 68.28 437.28 C 65.75 435.49, 63.01 433.89, 60.31 432.20 C 57.61 430.50, 54.81 428.86, 52.09 427.10 C 49.37 425.34, 46.64 423.54, 44.00 421.63 C 41.36 419.73, 38.79 417.72, 36.24 415.66 C 33.70 413.60, 31.29 411.42, 28.74 409.29 C 26.20 407.15, 23.63 405.01, 20.96 402.87 C 18.29 400.73, 15.41 398.68, 12.73 396.45 C 10.05 394.23, 7.23 392.01, 4.90 389.51 C 2.57 387.02, 0.49 384.31, -1.26 381.47 C -3.01 378.63, -4.32 375.54, -5.61 372.48 C -6.91 369.41, -7.92 366.22, -9.04 363.08 C -10.15 359.95, -11.24 356.80, -12.32 353.66 C -13.40 350.52, -14.57 347.40, -15.50 344.22 C -16.44 341.03, -17.36 337.83, -17.94 334.55 C -18.53 331.28, -18.82 327.91, -19.01 324.57 C -19.20 321.22, -19.10 317.82, -19.09 314.47 C -19.08 311.13, -19.01 307.79, -18.97 304.48 C -18.93 301.18, -18.92 297.90, -18.84 294.63 C -18.76 291.35, -18.72 288.10, -18.47 284.85 C -18.23 281.60, -17.93 278.35, -17.38 275.12 C -16.82 271.89, -16.05 268.65, -15.14 265.47 C -14.22 262.28, -12.94 259.12, -11.89 256.00 C -10.84 252.88, -9.51 249.83, -8.87 246.75 C -8.22 243.67, -7.92 240.65, -8.02 237.54 C -8.13 234.43, -8.85 231.29, -9.50 228.09 C -10.15 224.90, -11.28 221.61, -11.94 218.34 C -12.59 215.08, -13.33 211.73, -13.43 208.49 C -13.54 205.25, -13.23 202.03, -12.58 198.91 C -11.93 195.80, -10.54 192.83, -9.52 189.80 C -8.49 186.77, -7.25 183.83, -6.43 180.75 C -5.62 177.67, -5.16 174.50, -4.62 171.32 C -4.08 168.14, -3.89 164.82, -3.20 161.66 C -2.51 158.50, -1.79 155.30, -0.48 152.38 C 0.83 149.45, 2.59 146.66, 4.68 144.11 C 6.78 141.55, 9.45 139.26, 12.09 137.03 C 14.72 134.81, 17.66 132.79, 20.48 130.77 C 23.29 128.75, 26.25 126.88, 28.97 124.93 C 31.70 122.97, 34.42 121.10, 36.82 119.04 C 39.23 116.99, 41.36 114.83, 43.42 112.61 C 45.47 110.39, 47.28 108.04, 49.15 105.71 C 51.01 103.39, 52.76 100.98, 54.61 98.66 C 56.46 96.33, 58.30 93.99, 60.27 91.76 C 62.24 89.54, 64.34 87.42, 66.41 85.29 C 68.49 83.17, 70.70 81.18, 72.73 79.02 C 74.76 76.85, 76.73 74.65, 78.60 72.29 C 80.46 69.94, 82.15 67.40, 83.92 64.88 C 85.68 62.36, 87.33 59.68, 89.18 57.19 C 91.03 54.70, 92.94 52.23, 95.02 49.95 C 97.09 47.68, 99.39 45.65, 101.64 43.54 C 103.89 41.44, 106.20 39.41, 108.50 37.32 C 110.79 35.23, 113.02 33.00, 115.41 31.01 C 117.80 29.01, 120.26 27.07, 122.84 25.36 C 125.42 23.65, 128.16 22.17, 130.91 20.74 C 133.65 19.30, 136.52 18.11, 139.30 16.73 C 142.08 15.36, 144.88 14.06, 147.59 12.50 C 150.29 10.93, 152.91 9.20, 155.54 7.35 C 158.16 5.50, 160.69 3.35, 163.34 1.41 C 165.98 -0.54, 168.67 -2.48, 171.42 -4.30 C 174.18 -6.12, 176.95 -8.04, 179.86 -9.53 C 182.77 -11.03, 185.75 -12.49, 188.87 -13.26 C 191.98 -14.04, 195.26 -14.37, 198.57 -14.20 C 201.87 -14.02, 205.34 -13.12, 208.70 -12.23 C 212.07 -11.33, 215.49 -9.88, 218.78 -8.82 C 222.08 -7.76, 225.30 -6.74, 228.48 -5.88 C 231.65 -5.02, 234.75 -4.42, 237.84 -3.66 C 240.93 -2.91, 243.99 -1.96, 247.01 -1.36 C 250.04 -0.76, 253.01 -0.10, 256.00 -0.04 C 258.99 0.02, 261.94 -0.29, 264.97 -0.98 C 268.01 -1.67, 271.06 -2.97, 274.19 -4.16 C 277.32 -5.35, 280.54 -6.96, 283.76 -8.11 C 286.98 -9.25, 290.25 -10.24, 293.53 -11.04 C 296.81 -11.85, 300.10 -12.37, 303.42 -12.94 C 306.75 -13.50, 310.15 -14.20, 313.48 -14.42 C 316.81 -14.65, 320.19 -14.80, 323.39 -14.27 C 326.58 -13.73, 329.70 -12.70, 332.63 -11.23 C 335.55 -9.76, 338.30 -7.62, 340.94 -5.43 C 343.59 -3.24, 346.02 -0.54, 348.48 1.93 C 350.93 4.39, 353.29 6.93, 355.65 9.35 C 358.02 11.76, 360.38 14.06, 362.66 16.44 C 364.94 18.83, 367.08 21.37, 369.33 23.64 C 371.57 25.91, 373.73 28.21, 376.12 30.08 C 378.51 31.95, 380.99 33.55, 383.67 34.86 C 386.36 36.18, 389.26 37.08, 392.24 37.96 C 395.23 38.85, 398.43 39.42, 401.58 40.17 C 404.73 40.91, 408.00 41.57, 411.15 42.46 C 414.30 43.35, 417.41 44.36, 420.47 45.49 C 423.53 46.61, 426.46 47.96, 429.51 49.22 C 432.56 50.47, 435.62 51.76, 438.77 53.01 C 441.92 54.27, 445.25 55.39, 448.42 56.74 C 451.58 58.10, 454.86 59.44, 457.77 61.16 C 460.67 62.87, 463.52 64.75, 465.84 67.06 C 468.17 69.36, 470.18 72.03, 471.71 75.00 C 473.24 77.97, 474.22 81.42, 475.01 84.89 C 475.81 88.36, 476.03 92.22, 476.49 95.81 C 476.95 99.39, 477.11 103.09, 477.78 106.40 C 478.46 109.72, 479.28 112.83, 480.51 115.71 C 481.75 118.58, 483.47 121.10, 485.21 123.66 C 486.95 126.22, 489.16 128.53, 490.95 131.07 C 492.75 133.62, 494.68 136.14, 496.00 138.94 C 497.32 141.74, 498.32 144.74, 498.88 147.86 C 499.44 150.99, 499.40 154.37, 499.36 157.68 C 499.32 160.98, 498.75 164.44, 498.64 167.69 C 498.54 170.93, 498.28 174.14, 498.73 177.13 C 499.17 180.13, 500.02 182.92, 501.32 185.66 C 502.62 188.39, 504.69 190.89, 506.53 193.54 C 508.36 196.18, 510.54 198.78, 512.32 201.52 C 514.10 204.25, 515.81 207.06, 517.23 209.94 C 518.66 212.81, 519.82 215.78, 520.87 218.77 C 521.92 221.77, 522.69 224.82, 523.52 227.88 C 524.36 230.94, 525.03 234.03, 525.88 237.13 C 526.73 240.23, 527.63 243.33, 528.62 246.48 C 529.62 249.63, 531.28 254.41, 531.83 256.00 C 532.38 257.59, 531.54 254.38, 531.94 256.00 Z" stroke-width="2.27" opacity="0.06"/>
    <path d="M 496.31 256.00 C 496.36 257.40, 496.56 261.61, 496.32 264.39 C 496.08 267.18, 495.63 269.97, 494.87 272.70 C 494.12 275.44, 492.98 278.14, 491.80 280.78 C 490.63 283.43, 489.11 286.01, 487.80 288.58 C 486.49 291.15, 485.04 293.64, 483.95 296.19 C 482.85 298.74, 481.88 301.26, 481.23 303.87 C 480.59 306.49, 480.32 309.15, 480.08 311.87 C 479.83 314.58, 479.92 317.39, 479.75 320.16 C 479.58 322.93, 479.39 325.72, 479.06 328.48 C 478.73 331.23, 478.25 333.97, 477.75 336.71 C 477.26 339.45, 476.66 342.17, 476.06 344.91 C 475.47 347.65, 474.84 350.39, 474.19 353.14 C 473.53 355.89, 472.87 358.66, 472.13 361.41 C 471.40 364.17, 470.63 366.93, 469.77 369.66 C 468.91 372.40, 468.01 375.13, 466.99 377.82 C 465.98 380.51, 464.95 383.21, 463.70 385.79 C 462.45 388.36, 461.12 390.92, 459.49 393.25 C 457.86 395.59, 455.97 397.78, 453.93 399.81 C 451.89 401.83, 449.54 403.63, 447.23 405.41 C 444.93 407.19, 442.45 408.80, 440.11 410.48 C 437.76 412.17, 435.43 413.82, 433.18 415.53 C 430.92 417.24, 428.74 418.97, 426.58 420.73 C 424.42 422.48, 422.32 424.26, 420.20 426.04 C 418.09 427.81, 416.00 429.60, 413.90 431.36 C 411.80 433.13, 409.71 434.92, 407.59 436.65 C 405.46 438.39, 403.29 440.06, 401.14 441.77 C 398.99 443.47, 396.78 445.08, 394.68 446.87 C 392.58 448.66, 390.52 450.49, 388.53 452.49 C 386.55 454.49, 384.69 456.69, 382.75 458.84 C 380.81 461.00, 378.95 463.33, 376.90 465.40 C 374.85 467.48, 372.80 469.65, 370.47 471.29 C 368.15 472.93, 365.67 474.42, 362.94 475.26 C 360.21 476.11, 357.18 476.39, 354.10 476.34 C 351.02 476.29, 347.67 475.58, 344.47 474.97 C 341.26 474.35, 337.95 473.29, 334.86 472.67 C 331.77 472.04, 328.76 471.35, 325.93 471.21 C 323.10 471.07, 320.45 471.24, 317.88 471.81 C 315.31 472.38, 312.94 473.53, 310.51 474.64 C 308.08 475.76, 305.74 477.31, 303.30 478.52 C 300.85 479.73, 298.37 480.95, 295.83 481.90 C 293.30 482.85, 290.69 483.59, 288.07 484.22 C 285.46 484.86, 282.80 485.24, 280.14 485.70 C 277.49 486.16, 274.82 486.48, 272.15 487.00 C 269.48 487.53, 266.82 488.09, 264.13 488.85 C 261.44 489.61, 258.74 490.59, 256.00 491.55 C 253.26 492.51, 250.48 493.61, 247.67 494.61 C 244.85 495.61, 242.00 496.59, 239.11 497.53 C 236.22 498.48, 233.27 499.57, 230.33 500.28 C 227.38 500.99, 224.38 501.65, 221.45 501.81 C 218.53 501.97, 215.59 501.79, 212.76 501.25 C 209.92 500.71, 207.15 499.69, 204.44 498.59 C 201.73 497.49, 199.10 496.03, 196.50 494.66 C 193.89 493.29, 191.31 491.88, 188.80 490.35 C 186.29 488.83, 183.78 487.32, 181.43 485.49 C 179.08 483.66, 176.85 481.54, 174.70 479.36 C 172.56 477.18, 170.56 474.72, 168.56 472.43 C 166.55 470.15, 164.65 467.75, 162.67 465.63 C 160.68 463.51, 158.73 461.47, 156.65 459.69 C 154.58 457.91, 152.45 456.35, 150.22 454.95 C 147.99 453.54, 145.65 452.38, 143.27 451.26 C 140.88 450.13, 138.41 449.17, 135.90 448.19 C 133.40 447.22, 130.79 446.38, 128.24 445.41 C 125.69 444.44, 123.05 443.53, 120.59 442.37 C 118.13 441.20, 115.71 439.93, 113.48 438.42 C 111.26 436.90, 109.19 435.14, 107.24 433.28 C 105.30 431.42, 103.55 429.32, 101.79 427.27 C 100.03 425.22, 98.42 423.03, 96.68 420.98 C 94.93 418.94, 93.24 416.89, 91.34 415.01 C 89.43 413.14, 87.43 411.39, 85.26 409.73 C 83.09 408.08, 80.70 406.63, 78.30 405.11 C 75.91 403.59, 73.31 402.20, 70.90 400.62 C 68.49 399.04, 66.06 397.41, 63.84 395.61 C 61.63 393.81, 59.51 391.89, 57.59 389.83 C 55.67 387.78, 53.95 385.55, 52.31 383.28 C 50.68 381.01, 49.27 378.59, 47.78 376.22 C 46.29 373.84, 44.82 371.46, 43.39 369.05 C 41.95 366.64, 40.51 364.22, 39.18 361.75 C 37.86 359.27, 36.64 356.74, 35.43 354.20 C 34.23 351.66, 33.16 349.07, 31.97 346.52 C 30.77 343.96, 29.58 341.41, 28.27 338.89 C 26.95 336.36, 25.48 333.89, 24.05 331.36 C 22.62 328.84, 21.07 326.34, 19.69 323.76 C 18.31 321.18, 17.03 318.55, 15.76 315.90 C 14.48 313.25, 13.20 310.57, 12.05 307.85 C 10.90 305.13, 9.65 302.39, 8.85 299.58 C 8.04 296.76, 7.38 293.88, 7.22 290.96 C 7.07 288.05, 7.34 285.04, 7.92 282.07 C 8.49 279.11, 9.60 276.09, 10.67 273.15 C 11.74 270.22, 13.15 267.30, 14.34 264.44 C 15.53 261.58, 16.64 258.77, 17.81 256.00 C 18.99 253.23, 20.16 250.50, 21.39 247.81 C 22.63 245.12, 24.10 242.49, 25.23 239.86 C 26.37 237.24, 27.53 234.68, 28.20 232.06 C 28.87 229.44, 29.24 226.83, 29.26 224.13 C 29.28 221.43, 28.81 218.68, 28.32 215.85 C 27.82 213.03, 26.94 210.11, 26.29 207.17 C 25.64 204.24, 24.95 201.25, 24.41 198.26 C 23.86 195.26, 23.50 192.27, 23.03 189.20 C 22.57 186.13, 22.01 182.98, 21.62 179.85 C 21.24 176.71, 20.77 173.48, 20.73 170.37 C 20.68 167.26, 20.81 164.14, 21.36 161.20 C 21.91 158.26, 22.84 155.41, 24.03 152.72 C 25.23 150.03, 26.85 147.51, 28.52 145.05 C 30.20 142.60, 32.17 140.30, 34.07 138.00 C 35.96 135.69, 37.93 133.45, 39.91 131.24 C 41.90 129.04, 43.85 126.83, 45.97 124.76 C 48.09 122.69, 50.36 120.73, 52.64 118.84 C 54.93 116.94, 57.40 115.20, 59.71 113.38 C 62.01 111.57, 64.38 109.85, 66.49 107.94 C 68.59 106.02, 70.60 104.09, 72.34 101.89 C 74.07 99.69, 75.52 97.28, 76.90 94.74 C 78.27 92.19, 79.35 89.36, 80.59 86.61 C 81.83 83.86, 82.94 80.93, 84.34 78.24 C 85.73 75.54, 87.20 72.86, 88.93 70.45 C 90.66 68.04, 92.58 65.77, 94.70 63.77 C 96.82 61.77, 99.18 60.01, 101.67 58.46 C 104.15 56.92, 106.86 55.64, 109.59 54.49 C 112.33 53.33, 115.23 52.42, 118.09 51.54 C 120.95 50.65, 123.89 49.94, 126.76 49.17 C 129.63 48.41, 132.49 47.69, 135.30 46.95 C 138.12 46.20, 140.90 45.45, 143.65 44.70 C 146.40 43.94, 149.14 43.22, 151.83 42.41 C 154.51 41.60, 157.17 40.81, 159.76 39.85 C 162.35 38.88, 164.87 37.82, 167.37 36.62 C 169.86 35.43, 172.26 34.03, 174.71 32.67 C 177.17 31.32, 179.59 29.84, 182.08 28.49 C 184.57 27.15, 187.10 25.90, 189.65 24.61 C 192.19 23.32, 194.75 21.99, 197.35 20.75 C 199.94 19.51, 202.55 18.15, 205.23 17.16 C 207.92 16.17, 210.67 15.26, 213.47 14.82 C 216.28 14.38, 219.18 14.29, 222.06 14.53 C 224.95 14.77, 227.91 15.50, 230.80 16.26 C 233.70 17.02, 236.60 18.16, 239.43 19.08 C 242.27 20.00, 245.06 20.97, 247.82 21.80 C 250.58 22.63, 253.29 23.53, 256.00 24.08 C 258.71 24.63, 261.36 25.06, 264.06 25.10 C 266.76 25.14, 269.45 24.78, 272.20 24.30 C 274.95 23.83, 277.74 22.95, 280.57 22.24 C 283.40 21.53, 286.29 20.59, 289.16 20.05 C 292.03 19.51, 294.95 19.03, 297.79 18.99 C 300.63 18.94, 303.45 19.27, 306.21 19.80 C 308.96 20.32, 311.62 21.33, 314.31 22.12 C 317.00 22.92, 319.65 23.84, 322.36 24.57 C 325.07 25.29, 327.81 25.88, 330.57 26.49 C 333.33 27.09, 336.15 27.54, 338.92 28.19 C 341.68 28.85, 344.48 29.46, 347.14 30.41 C 349.81 31.36, 352.45 32.45, 354.89 33.88 C 357.34 35.31, 359.68 37.05, 361.84 39.00 C 364.00 40.96, 365.96 43.30, 367.87 45.61 C 369.78 47.91, 371.46 50.54, 373.30 52.84 C 375.13 55.13, 376.88 57.44, 378.87 59.36 C 380.87 61.28, 382.97 62.93, 385.25 64.38 C 387.53 65.83, 390.03 66.91, 392.54 68.07 C 395.05 69.22, 397.76 70.13, 400.31 71.29 C 402.86 72.45, 405.46 73.61, 407.86 75.02 C 410.25 76.44, 412.57 78.00, 414.67 79.78 C 416.77 81.56, 418.64 83.62, 420.46 85.70 C 422.28 87.77, 423.85 90.09, 425.58 92.24 C 427.30 94.40, 428.91 96.62, 430.79 98.62 C 432.68 100.61, 434.60 102.53, 436.87 104.23 C 439.14 105.93, 441.69 107.38, 444.39 108.81 C 447.09 110.24, 450.23 111.38, 453.07 112.82 C 455.92 114.25, 458.97 115.63, 461.45 117.42 C 463.94 119.21, 466.16 121.26, 467.98 123.54 C 469.80 125.82, 471.24 128.39, 472.37 131.08 C 473.51 133.77, 474.28 136.68, 474.78 139.67 C 475.27 142.67, 475.22 145.92, 475.33 149.03 C 475.44 152.13, 475.19 155.34, 475.41 158.31 C 475.64 161.28, 475.92 164.15, 476.67 166.84 C 477.41 169.54, 478.57 172.03, 479.90 174.51 C 481.23 176.98, 483.03 179.29, 484.66 181.70 C 486.30 184.12, 488.12 186.50, 489.71 188.99 C 491.30 191.47, 492.87 194.00, 494.19 196.61 C 495.51 199.22, 496.79 201.89, 497.63 204.64 C 498.47 207.39, 498.99 210.24, 499.24 213.11 C 499.48 215.98, 499.30 218.93, 499.07 221.84 C 498.84 224.75, 498.27 227.69, 497.85 230.58 C 497.43 233.47, 496.87 236.34, 496.55 239.18 C 496.23 242.02, 496.02 244.82, 495.93 247.62 C 495.84 250.43, 495.95 254.60, 496.01 256.00 C 496.08 257.40, 496.26 254.60, 496.31 256.00 Z" stroke-width="2.43" opacity="0.11"/>
    <path d="M 473.68 256.00 C 474.22 257.28, 475.15 261.10, 475.51 263.67 C 475.87 266.23, 476.07 268.83, 475.86 271.37 C 475.64 273.92, 475.06 276.47, 474.24 278.94 C 473.41 281.41, 472.17 283.84, 470.90 286.20 C 469.64 288.57, 468.05 290.86, 466.62 293.14 C 465.20 295.41, 463.65 297.62, 462.34 299.86 C 461.03 302.10, 459.85 304.31, 458.79 306.56 C 457.72 308.81, 456.91 311.09, 455.96 313.34 C 455.01 315.58, 454.06 317.82, 453.10 320.04 C 452.15 322.27, 451.15 324.47, 450.22 326.69 C 449.29 328.91, 448.36 331.12, 447.54 333.39 C 446.71 335.65, 445.94 337.92, 445.26 340.26 C 444.58 342.60, 444.01 345.00, 443.45 347.43 C 442.90 349.86, 442.46 352.37, 441.92 354.85 C 441.38 357.34, 440.88 359.89, 440.23 362.37 C 439.58 364.84, 438.84 367.31, 437.99 369.72 C 437.15 372.13, 436.20 374.52, 435.15 376.84 C 434.10 379.16, 432.94 381.44, 431.67 383.64 C 430.41 385.83, 429.00 387.95, 427.53 390.01 C 426.06 392.08, 424.48 394.07, 422.84 396.00 C 421.20 397.92, 419.48 399.79, 417.68 401.58 C 415.89 403.37, 414.01 405.08, 412.10 406.74 C 410.18 408.40, 408.17 409.96, 406.19 411.53 C 404.22 413.11, 402.18 414.60, 400.23 416.19 C 398.28 417.77, 396.35 419.36, 394.50 421.06 C 392.65 422.76, 390.89 424.56, 389.12 426.39 C 387.36 428.22, 385.69 430.20, 383.90 432.05 C 382.12 433.90, 380.34 435.80, 378.41 437.49 C 376.48 439.17, 374.46 440.76, 372.33 442.16 C 370.20 443.57, 367.92 444.76, 365.64 445.90 C 363.35 447.04, 360.96 447.97, 358.62 449.00 C 356.28 450.02, 353.92 450.96, 351.62 452.05 C 349.32 453.14, 347.07 454.29, 344.84 455.53 C 342.61 456.78, 340.44 458.17, 338.22 459.51 C 336.01 460.85, 333.81 462.28, 331.55 463.58 C 329.29 464.88, 327.02 466.23, 324.66 467.31 C 322.30 468.39, 319.88 469.40, 317.38 470.05 C 314.88 470.71, 312.28 471.07, 309.67 471.24 C 307.06 471.41, 304.36 471.23, 301.72 471.09 C 299.07 470.95, 296.41 470.55, 293.80 470.39 C 291.20 470.23, 288.63 470.02, 286.09 470.13 C 283.56 470.24, 281.09 470.53, 278.60 471.05 C 276.12 471.57, 273.68 472.46, 271.19 473.25 C 268.70 474.04, 266.21 475.07, 263.68 475.80 C 261.14 476.54, 258.57 477.21, 256.00 477.67 C 253.43 478.13, 250.82 478.41, 248.23 478.56 C 245.63 478.70, 243.03 478.65, 240.44 478.56 C 237.84 478.46, 235.26 478.21, 232.67 477.98 C 230.08 477.75, 227.50 477.44, 224.91 477.18 C 222.32 476.93, 219.74 476.67, 217.13 476.43 C 214.53 476.20, 211.90 476.04, 209.28 475.79 C 206.66 475.54, 203.99 475.42, 201.41 474.96 C 198.82 474.51, 196.24 473.93, 193.76 473.06 C 191.28 472.20, 188.88 471.02, 186.54 469.77 C 184.20 468.52, 181.97 466.98, 179.72 465.57 C 177.48 464.16, 175.31 462.61, 173.06 461.28 C 170.81 459.96, 168.58 458.69, 166.24 457.61 C 163.90 456.52, 161.50 455.63, 159.04 454.79 C 156.58 453.96, 154.02 453.33, 151.47 452.59 C 148.92 451.86, 146.28 451.25, 143.77 450.39 C 141.26 449.53, 138.74 448.60, 136.40 447.41 C 134.05 446.22, 131.81 444.81, 129.71 443.24 C 127.61 441.66, 125.67 439.83, 123.80 437.96 C 121.94 436.08, 120.22 434.01, 118.52 431.97 C 116.81 429.94, 115.21 427.80, 113.56 425.76 C 111.91 423.71, 110.30 421.65, 108.62 419.69 C 106.93 417.72, 105.23 415.82, 103.45 413.97 C 101.68 412.12, 99.83 410.37, 97.97 408.60 C 96.11 406.84, 94.17 405.16, 92.29 403.40 C 90.41 401.64, 88.48 399.92, 86.72 398.04 C 84.96 396.17, 83.22 394.25, 81.72 392.16 C 80.21 390.08, 78.85 387.87, 77.69 385.55 C 76.53 383.23, 75.59 380.75, 74.75 378.26 C 73.91 375.76, 73.26 373.15, 72.65 370.57 C 72.03 367.99, 71.59 365.34, 71.08 362.76 C 70.57 360.19, 70.17 357.60, 69.57 355.13 C 68.96 352.66, 68.31 350.27, 67.45 347.96 C 66.60 345.66, 65.55 343.47, 64.44 341.29 C 63.32 339.11, 62.00 337.02, 60.78 334.87 C 59.56 332.72, 58.23 330.60, 57.11 328.39 C 55.99 326.18, 54.93 323.93, 54.04 321.62 C 53.16 319.31, 52.49 316.93, 51.79 314.56 C 51.10 312.19, 50.56 309.77, 49.87 307.39 C 49.18 305.02, 48.47 302.65, 47.65 300.29 C 46.83 297.92, 45.87 295.58, 44.95 293.21 C 44.03 290.84, 42.98 288.47, 42.12 286.06 C 41.27 283.64, 40.39 281.20, 39.82 278.72 C 39.26 276.24, 38.83 273.72, 38.73 271.19 C 38.64 268.67, 38.85 266.10, 39.27 263.57 C 39.68 261.04, 40.49 258.50, 41.21 256.00 C 41.93 253.50, 42.89 251.04, 43.58 248.58 C 44.26 246.13, 44.89 243.71, 45.33 241.27 C 45.77 238.83, 46.01 236.40, 46.22 233.95 C 46.43 231.50, 46.45 229.04, 46.59 226.57 C 46.73 224.10, 46.79 221.61, 47.06 219.16 C 47.32 216.70, 47.66 214.24, 48.20 211.83 C 48.74 209.42, 49.47 207.05, 50.30 204.71 C 51.12 202.38, 52.16 200.11, 53.13 197.83 C 54.10 195.55, 55.15 193.31, 56.10 191.05 C 57.05 188.78, 57.95 186.52, 58.84 184.24 C 59.73 181.96, 60.55 179.67, 61.42 177.38 C 62.28 175.10, 63.13 172.81, 64.02 170.53 C 64.91 168.25, 65.82 165.97, 66.76 163.70 C 67.69 161.43, 68.65 159.17, 69.64 156.91 C 70.63 154.65, 71.63 152.40, 72.68 150.16 C 73.73 147.92, 74.83 145.71, 75.94 143.48 C 77.05 141.26, 78.21 139.08, 79.33 136.83 C 80.44 134.59, 81.51 132.31, 82.61 130.03 C 83.72 127.75, 84.77 125.40, 85.96 123.15 C 87.14 120.89, 88.39 118.65, 89.74 116.49 C 91.10 114.34, 92.56 112.25, 94.11 110.23 C 95.65 108.22, 97.32 106.29, 99.02 104.40 C 100.72 102.52, 102.52 100.73, 104.31 98.92 C 106.09 97.10, 107.91 95.33, 109.71 93.53 C 111.51 91.72, 113.28 89.88, 115.09 88.07 C 116.90 86.26, 118.68 84.39, 120.57 82.65 C 122.45 80.91, 124.36 79.18, 126.40 77.62 C 128.43 76.06, 130.56 74.60, 132.77 73.30 C 134.97 71.99, 137.30 70.85, 139.65 69.80 C 142.00 68.74, 144.46 67.89, 146.86 66.97 C 149.26 66.04, 151.72 65.27, 154.04 64.23 C 156.35 63.20, 158.60 62.09, 160.77 60.74 C 162.93 59.39, 164.95 57.78, 167.02 56.15 C 169.09 54.52, 171.06 52.64, 173.17 50.98 C 175.27 49.33, 177.39 47.60, 179.65 46.22 C 181.90 44.84, 184.26 43.63, 186.70 42.71 C 189.13 41.78, 191.69 41.17, 194.26 40.67 C 196.82 40.18, 199.46 39.95, 202.08 39.74 C 204.70 39.52, 207.33 39.43, 209.96 39.39 C 212.58 39.35, 215.22 39.44, 217.82 39.50 C 220.43 39.55, 223.03 39.68, 225.60 39.70 C 228.17 39.71, 230.72 39.70, 233.25 39.57 C 235.79 39.43, 238.30 39.17, 240.82 38.89 C 243.34 38.60, 245.85 38.16, 248.38 37.87 C 250.91 37.58, 253.46 37.23, 256.00 37.13 C 258.54 37.03, 261.10 37.09, 263.64 37.27 C 266.18 37.44, 268.71 37.78, 271.23 38.16 C 273.75 38.54, 276.27 38.95, 278.75 39.54 C 281.23 40.12, 283.69 40.88, 286.12 41.66 C 288.56 42.44, 290.95 43.38, 293.34 44.22 C 295.74 45.05, 298.10 45.92, 300.50 46.66 C 302.89 47.40, 305.28 48.06, 307.70 48.65 C 310.12 49.23, 312.57 49.69, 315.02 50.18 C 317.47 50.68, 319.95 51.08, 322.41 51.62 C 324.86 52.15, 327.35 52.66, 329.75 53.38 C 332.15 54.11, 334.54 54.92, 336.81 55.99 C 339.08 57.05, 341.25 58.39, 343.36 59.79 C 345.47 61.19, 347.43 62.87, 349.46 64.38 C 351.48 65.89, 353.42 67.51, 355.51 68.85 C 357.59 70.20, 359.72 71.41, 361.97 72.45 C 364.23 73.49, 366.62 74.28, 369.03 75.11 C 371.44 75.94, 373.99 76.60, 376.43 77.45 C 378.87 78.31, 381.34 79.19, 383.69 80.25 C 386.04 81.31, 388.36 82.47, 390.52 83.83 C 392.68 85.18, 394.77 86.67, 396.65 88.38 C 398.53 90.09, 400.24 92.03, 401.77 94.10 C 403.31 96.17, 404.62 98.49, 405.87 100.81 C 407.12 103.12, 408.15 105.63, 409.27 107.98 C 410.40 110.34, 411.41 112.76, 412.64 114.97 C 413.86 117.17, 415.12 119.29, 416.61 121.23 C 418.10 123.18, 419.76 124.94, 421.60 126.62 C 423.43 128.30, 425.49 129.80, 427.61 131.32 C 429.73 132.84, 432.06 134.23, 434.31 135.73 C 436.56 137.23, 438.95 138.69, 441.12 140.33 C 443.28 141.97, 445.41 143.68, 447.29 145.56 C 449.16 147.44, 450.86 149.47, 452.34 151.60 C 453.82 153.74, 455.08 156.03, 456.18 158.37 C 457.28 160.71, 458.14 163.17, 458.95 165.64 C 459.75 168.11, 460.36 170.66, 461.00 173.17 C 461.64 175.69, 462.18 178.23, 462.80 180.73 C 463.42 183.23, 464.05 185.71, 464.73 188.18 C 465.41 190.65, 466.20 193.07, 466.86 195.54 C 467.52 198.00, 468.24 200.46, 468.69 202.97 C 469.14 205.48, 469.45 208.04, 469.58 210.60 C 469.71 213.17, 469.60 215.78, 469.46 218.36 C 469.33 220.94, 468.99 223.54, 468.79 226.09 C 468.59 228.65, 468.31 231.18, 468.27 233.69 C 468.23 236.20, 468.27 238.66, 468.55 241.14 C 468.84 243.61, 469.37 246.05, 469.99 248.53 C 470.62 251.00, 471.69 254.75, 472.30 256.00 C 472.92 257.25, 473.15 254.72, 473.68 256.00 Z" stroke-width="2.60" opacity="0.17"/>
    <path d="M 452.66 256.00 C 452.98 257.15, 452.93 260.59, 452.84 262.87 C 452.74 265.16, 452.52 267.45, 452.10 269.71 C 451.69 271.97, 451.06 274.22, 450.34 276.43 C 449.62 278.63, 448.70 280.81, 447.81 282.96 C 446.91 285.11, 445.88 287.21, 444.97 289.32 C 444.05 291.43, 443.11 293.50, 442.31 295.60 C 441.51 297.70, 440.79 299.79, 440.19 301.92 C 439.59 304.05, 439.14 306.21, 438.69 308.39 C 438.25 310.56, 437.95 312.79, 437.51 314.98 C 437.07 317.17, 436.64 319.38, 436.06 321.54 C 435.47 323.69, 434.79 325.83, 434.01 327.92 C 433.23 330.01, 432.32 332.06, 431.38 334.08 C 430.44 336.11, 429.39 338.08, 428.35 340.06 C 427.32 342.04, 426.22 343.98, 425.17 345.95 C 424.12 347.92, 423.06 349.87, 422.05 351.87 C 421.05 353.87, 420.07 355.88, 419.14 357.94 C 418.21 360.00, 417.34 362.11, 416.47 364.24 C 415.61 366.38, 414.79 368.56, 413.95 370.75 C 413.11 372.95, 412.27 375.17, 411.43 377.44 C 410.60 379.70, 409.80 382.02, 408.94 384.33 C 408.08 386.64, 407.25 389.02, 406.28 391.32 C 405.32 393.61, 404.30 395.91, 403.14 398.09 C 401.97 400.27, 400.72 402.41, 399.29 404.38 C 397.87 406.36, 396.32 408.25, 394.59 409.92 C 392.87 411.60, 390.96 413.11, 388.93 414.42 C 386.90 415.73, 384.68 416.83, 382.41 417.79 C 380.13 418.76, 377.71 419.50, 375.30 420.21 C 372.90 420.91, 370.41 421.45, 367.99 422.03 C 365.57 422.61, 363.14 423.11, 360.78 423.69 C 358.43 424.26, 356.11 424.84, 353.85 425.48 C 351.59 426.13, 349.40 426.84, 347.23 427.57 C 345.06 428.31, 342.95 429.14, 340.82 429.92 C 338.70 430.69, 336.60 431.51, 334.45 432.20 C 332.30 432.90, 330.14 433.54, 327.94 434.07 C 325.75 434.60, 323.52 435.02, 321.30 435.40 C 319.07 435.78, 316.82 436.05, 314.60 436.35 C 312.38 436.66, 310.16 436.91, 307.97 437.24 C 305.78 437.58, 303.62 437.94, 301.47 438.39 C 299.33 438.83, 297.22 439.37, 295.10 439.93 C 292.98 440.50, 290.88 441.18, 288.76 441.80 C 286.64 442.41, 284.52 443.06, 282.37 443.64 C 280.23 444.23, 278.07 444.78, 275.90 445.32 C 273.73 445.86, 271.55 446.43, 269.35 446.89 C 267.15 447.35, 264.93 447.80, 262.71 448.09 C 260.48 448.38, 258.24 448.57, 256.00 448.63 C 253.76 448.68, 251.51 448.58, 249.28 448.40 C 247.05 448.21, 244.82 447.87, 242.61 447.51 C 240.40 447.15, 238.20 446.68, 236.00 446.24 C 233.81 445.80, 231.63 445.34, 229.46 444.86 C 227.28 444.38, 225.11 443.92, 222.96 443.37 C 220.81 442.83, 218.68 442.21, 216.55 441.60 C 214.42 440.98, 212.32 440.29, 210.21 439.67 C 208.09 439.05, 205.98 438.42, 203.85 437.88 C 201.71 437.35, 199.55 436.87, 197.37 436.44 C 195.19 436.00, 192.97 435.66, 190.75 435.28 C 188.53 434.89, 186.27 434.56, 184.04 434.11 C 181.81 433.66, 179.57 433.18, 177.38 432.58 C 175.19 431.97, 173.03 431.26, 170.90 430.48 C 168.77 429.70, 166.64 428.88, 164.60 427.90 C 162.56 426.93, 160.55 425.85, 158.64 424.63 C 156.74 423.41, 154.92 422.02, 153.16 420.57 C 151.41 419.13, 149.76 417.52, 148.12 415.94 C 146.48 414.36, 144.92 412.68, 143.32 411.09 C 141.71 409.50, 140.14 407.91, 138.49 406.40 C 136.85 404.89, 135.18 403.44, 133.46 402.04 C 131.74 400.63, 129.96 399.31, 128.18 397.96 C 126.40 396.61, 124.56 395.32, 122.78 393.96 C 120.99 392.60, 119.18 391.24, 117.45 389.80 C 115.72 388.35, 114.01 386.87, 112.42 385.28 C 110.83 383.69, 109.30 382.02, 107.93 380.25 C 106.55 378.47, 105.29 376.58, 104.16 374.63 C 103.03 372.67, 102.06 370.60, 101.13 368.52 C 100.20 366.45, 99.38 364.30, 98.59 362.18 C 97.79 360.05, 97.08 357.89, 96.36 355.75 C 95.65 353.62, 94.99 351.47, 94.31 349.35 C 93.63 347.23, 92.98 345.13, 92.28 343.05 C 91.58 340.98, 90.87 338.93, 90.14 336.90 C 89.40 334.87, 88.62 332.87, 87.86 330.86 C 87.10 328.85, 86.31 326.87, 85.58 324.85 C 84.86 322.84, 84.15 320.82, 83.51 318.78 C 82.88 316.74, 82.32 314.67, 81.78 312.61 C 81.24 310.54, 80.73 308.47, 80.25 306.39 C 79.77 304.32, 79.33 302.24, 78.89 300.16 C 78.46 298.08, 78.10 295.98, 77.65 293.91 C 77.19 291.84, 76.76 289.77, 76.17 287.71 C 75.58 285.65, 74.91 283.61, 74.13 281.56 C 73.35 279.51, 72.41 277.47, 71.48 275.39 C 70.55 273.32, 69.48 271.23, 68.54 269.11 C 67.60 266.98, 66.65 264.83, 65.84 262.64 C 65.04 260.46, 64.39 258.24, 63.72 256.00 C 63.06 253.76, 62.49 251.51, 61.85 249.22 C 61.21 246.93, 60.49 244.62, 59.87 242.29 C 59.25 239.95, 58.57 237.57, 58.11 235.20 C 57.64 232.83, 57.24 230.42, 57.08 228.04 C 56.92 225.67, 56.93 223.28, 57.13 220.93 C 57.32 218.59, 57.74 216.26, 58.25 213.97 C 58.77 211.68, 59.47 209.42, 60.19 207.18 C 60.92 204.94, 61.75 202.73, 62.61 200.55 C 63.47 198.36, 64.39 196.19, 65.36 194.06 C 66.33 191.92, 67.35 189.81, 68.43 187.73 C 69.50 185.65, 70.62 183.59, 71.82 181.58 C 73.02 179.58, 74.28 177.61, 75.63 175.69 C 76.97 173.78, 78.42 171.92, 79.89 170.10 C 81.36 168.29, 82.92 166.53, 84.46 164.79 C 85.99 163.04, 87.57 161.35, 89.09 159.63 C 90.60 157.92, 92.10 156.22, 93.56 154.50 C 95.02 152.78, 96.43 151.05, 97.83 149.31 C 99.24 147.58, 100.62 145.85, 101.99 144.10 C 103.35 142.35, 104.71 140.61, 106.02 138.82 C 107.33 137.03, 108.57 135.19, 109.84 133.36 C 111.11 131.52, 112.33 129.64, 113.62 127.80 C 114.91 125.96, 116.21 124.11, 117.57 122.32 C 118.92 120.52, 120.32 118.73, 121.78 117.01 C 123.24 115.28, 124.75 113.60, 126.32 111.97 C 127.89 110.35, 129.52 108.78, 131.19 107.25 C 132.85 105.72, 134.57 104.25, 136.31 102.80 C 138.05 101.36, 139.82 99.95, 141.63 98.58 C 143.43 97.21, 145.25 95.86, 147.13 94.59 C 149.00 93.32, 150.91 92.09, 152.88 90.97 C 154.85 89.86, 156.87 88.82, 158.94 87.88 C 161.01 86.95, 163.14 86.14, 165.28 85.38 C 167.42 84.62, 169.62 83.99, 171.77 83.31 C 173.93 82.62, 176.09 82.01, 178.21 81.28 C 180.32 80.55, 182.40 79.77, 184.46 78.93 C 186.52 78.08, 188.53 77.15, 190.56 76.20 C 192.59 75.26, 194.59 74.24, 196.62 73.26 C 198.66 72.28, 200.69 71.27, 202.76 70.33 C 204.83 69.39, 206.92 68.46, 209.04 67.64 C 211.16 66.83, 213.31 66.06, 215.49 65.42 C 217.67 64.78, 219.89 64.26, 222.11 63.82 C 224.34 63.38, 226.60 63.10, 228.84 62.77 C 231.09 62.45, 233.34 62.18, 235.60 61.86 C 237.85 61.54, 240.09 61.16, 242.35 60.83 C 244.61 60.50, 246.88 60.12, 249.15 59.89 C 251.43 59.65, 253.72 59.45, 256.00 59.43 C 258.28 59.41, 260.58 59.51, 262.85 59.78 C 265.12 60.05, 267.40 60.50, 269.63 61.07 C 271.87 61.63, 274.08 62.38, 276.27 63.19 C 278.45 63.99, 280.59 64.96, 282.72 65.89 C 284.84 66.82, 286.92 67.88, 289.01 68.79 C 291.10 69.70, 293.16 70.59, 295.25 71.35 C 297.34 72.10, 299.43 72.74, 301.54 73.33 C 303.66 73.92, 305.80 74.38, 307.93 74.90 C 310.07 75.41, 312.22 75.86, 314.35 76.41 C 316.48 76.97, 318.61 77.54, 320.70 78.23 C 322.79 78.92, 324.86 79.69, 326.89 80.54 C 328.92 81.39, 330.90 82.36, 332.87 83.34 C 334.85 84.31, 336.77 85.38, 338.72 86.40 C 340.67 87.42, 342.62 88.42, 344.55 89.45 C 346.49 90.49, 348.41 91.54, 350.34 92.59 C 352.28 93.64, 354.19 94.72, 356.14 95.74 C 358.09 96.77, 360.05 97.78, 362.06 98.75 C 364.07 99.72, 366.13 100.64, 368.21 101.56 C 370.28 102.48, 372.43 103.34, 374.53 104.29 C 376.64 105.23, 378.79 106.15, 380.83 107.23 C 382.88 108.31, 384.91 109.44, 386.79 110.74 C 388.68 112.04, 390.47 113.48, 392.14 115.03 C 393.80 116.58, 395.32 118.30, 396.79 120.04 C 398.27 121.78, 399.62 123.63, 400.97 125.47 C 402.32 127.30, 403.60 129.20, 404.92 131.04 C 406.23 132.89, 407.52 134.75, 408.87 136.56 C 410.22 138.38, 411.62 140.14, 413.00 141.93 C 414.39 143.72, 415.80 145.48, 417.18 147.28 C 418.55 149.08, 419.91 150.90, 421.26 152.74 C 422.60 154.57, 423.93 156.42, 425.25 158.28 C 426.57 160.15, 427.88 162.02, 429.17 163.92 C 430.46 165.82, 431.75 167.73, 433.00 169.67 C 434.25 171.61, 435.48 173.57, 436.67 175.56 C 437.86 177.55, 439.01 179.57, 440.12 181.61 C 441.23 183.65, 442.31 185.72, 443.35 187.81 C 444.39 189.90, 445.41 192.01, 446.36 194.15 C 447.31 196.29, 448.27 198.44, 449.05 200.64 C 449.82 202.85, 450.53 205.09, 451.02 207.38 C 451.51 209.66, 451.82 212.00, 451.98 214.34 C 452.14 216.69, 452.09 219.08, 451.99 221.44 C 451.89 223.81, 451.60 226.19, 451.37 228.54 C 451.15 230.89, 450.82 233.23, 450.62 235.54 C 450.42 237.86, 450.23 240.14, 450.18 242.42 C 450.13 244.70, 450.20 246.95, 450.32 249.21 C 450.44 251.48, 450.51 254.87, 450.90 256.00 C 451.29 257.13, 452.34 254.85, 452.66 256.00 Z" stroke-width="2.77" opacity="0.22"/>
    <path d="M 434.62 256.00 C 434.58 257.05, 435.39 260.17, 435.61 262.27 C 435.84 264.37, 435.99 266.49, 435.96 268.58 C 435.94 270.68, 435.77 272.79, 435.49 274.86 C 435.20 276.94, 434.75 279.01, 434.25 281.05 C 433.75 283.09, 433.12 285.11, 432.50 287.12 C 431.88 289.13, 431.18 291.11, 430.54 293.10 C 429.91 295.09, 429.26 297.06, 428.68 299.05 C 428.10 301.05, 427.57 303.04, 427.07 305.05 C 426.57 307.07, 426.15 309.10, 425.66 311.13 C 425.18 313.15, 424.73 315.20, 424.16 317.20 C 423.59 319.21, 422.96 321.21, 422.25 323.17 C 421.54 325.13, 420.73 327.06, 419.87 328.96 C 419.01 330.86, 418.06 332.72, 417.10 334.57 C 416.13 336.42, 415.09 338.23, 414.07 340.04 C 413.04 341.86, 411.96 343.64, 410.93 345.45 C 409.89 347.25, 408.84 349.05, 407.83 350.88 C 406.82 352.70, 405.84 354.55, 404.87 356.42 C 403.91 358.29, 402.98 360.19, 402.03 362.10 C 401.08 364.00, 400.16 365.95, 399.17 367.85 C 398.17 369.76, 397.17 371.68, 396.07 373.53 C 394.96 375.38, 393.81 377.22, 392.53 378.93 C 391.24 380.64, 389.87 382.31, 388.35 383.81 C 386.83 385.31, 385.16 386.69, 383.41 387.94 C 381.66 389.18, 379.74 390.27, 377.82 391.29 C 375.90 392.32, 373.86 393.19, 371.88 394.10 C 369.90 395.01, 367.89 395.83, 365.96 396.74 C 364.02 397.64, 362.13 398.56, 360.28 399.53 C 358.43 400.50, 356.65 401.54, 354.85 402.55 C 353.05 403.57, 351.29 404.63, 349.49 405.62 C 347.69 406.62, 345.90 407.61, 344.05 408.51 C 342.21 409.42, 340.34 410.27, 338.44 411.05 C 336.54 411.82, 334.59 412.51, 332.64 413.14 C 330.69 413.77, 328.70 414.31, 326.72 414.84 C 324.74 415.37, 322.75 415.83, 320.78 416.33 C 318.80 416.82, 316.84 417.28, 314.89 417.81 C 312.95 418.34, 311.03 418.89, 309.12 419.50 C 307.22 420.11, 305.34 420.78, 303.45 421.47 C 301.56 422.16, 299.69 422.93, 297.80 423.63 C 295.90 424.33, 294.00 425.05, 292.06 425.66 C 290.13 426.28, 288.18 426.83, 286.21 427.30 C 284.23 427.77, 282.24 428.15, 280.24 428.48 C 278.24 428.81, 276.23 429.05, 274.21 429.28 C 272.20 429.51, 270.18 429.67, 268.16 429.86 C 266.14 430.05, 264.12 430.21, 262.09 430.41 C 260.06 430.62, 258.04 430.83, 256.00 431.08 C 253.96 431.33, 251.92 431.63, 249.86 431.90 C 247.80 432.18, 245.72 432.51, 243.64 432.72 C 241.56 432.93, 239.47 433.12, 237.38 433.17 C 235.29 433.22, 233.20 433.17, 231.12 433.01 C 229.05 432.85, 226.98 432.57, 224.93 432.20 C 222.89 431.82, 220.86 431.32, 218.85 430.76 C 216.85 430.20, 214.87 429.53, 212.90 428.85 C 210.94 428.16, 209.00 427.40, 207.07 426.66 C 205.13 425.91, 203.21 425.13, 201.29 424.37 C 199.38 423.60, 197.46 422.85, 195.55 422.07 C 193.65 421.30, 191.73 420.56, 189.85 419.74 C 187.96 418.92, 186.08 418.09, 184.25 417.16 C 182.42 416.22, 180.62 415.22, 178.86 414.15 C 177.11 413.08, 175.41 411.92, 173.73 410.73 C 172.05 409.54, 170.43 408.28, 168.81 407.03 C 167.18 405.77, 165.60 404.48, 164.01 403.22 C 162.41 401.96, 160.83 400.69, 159.23 399.47 C 157.62 398.25, 156.01 397.05, 154.37 395.88 C 152.73 394.71, 151.07 393.58, 149.38 392.46 C 147.70 391.34, 145.98 390.27, 144.26 389.16 C 142.55 388.06, 140.80 386.98, 139.09 385.84 C 137.38 384.70, 135.66 383.55, 134.02 382.32 C 132.37 381.09, 130.75 379.80, 129.20 378.45 C 127.65 377.10, 126.14 375.69, 124.70 374.23 C 123.25 372.76, 121.88 371.23, 120.56 369.65 C 119.24 368.07, 117.98 366.44, 116.79 364.77 C 115.59 363.09, 114.44 361.38, 113.40 359.61 C 112.36 357.83, 111.40 355.99, 110.55 354.11 C 109.71 352.22, 108.99 350.25, 108.33 348.27 C 107.67 346.30, 107.15 344.25, 106.61 342.25 C 106.06 340.25, 105.60 338.22, 105.04 336.27 C 104.47 334.31, 103.91 332.38, 103.22 330.51 C 102.53 328.65, 101.76 326.84, 100.90 325.06 C 100.04 323.27, 99.05 321.55, 98.07 319.81 C 97.08 318.07, 96.00 316.36, 94.99 314.60 C 93.97 312.85, 92.96 311.08, 91.98 309.29 C 90.99 307.50, 90.02 305.70, 89.07 303.87 C 88.12 302.04, 87.14 300.20, 86.26 298.32 C 85.38 296.44, 84.50 294.54, 83.79 292.60 C 83.09 290.66, 82.45 288.68, 82.01 286.68 C 81.57 284.67, 81.27 282.63, 81.13 280.58 C 80.99 278.53, 81.04 276.44, 81.17 274.38 C 81.30 272.31, 81.60 270.23, 81.90 268.17 C 82.21 266.12, 82.61 264.07, 82.99 262.04 C 83.37 260.01, 83.75 258.00, 84.18 256.00 C 84.60 254.00, 85.04 252.02, 85.53 250.05 C 86.03 248.08, 86.61 246.13, 87.15 244.19 C 87.69 242.26, 88.29 240.34, 88.78 238.42 C 89.27 236.51, 89.74 234.61, 90.09 232.68 C 90.44 230.76, 90.71 228.84, 90.89 226.89 C 91.08 224.94, 91.15 222.97, 91.22 220.97 C 91.29 218.98, 91.27 216.96, 91.31 214.94 C 91.36 212.91, 91.38 210.87, 91.50 208.83 C 91.62 206.79, 91.80 204.76, 92.01 202.72 C 92.23 200.68, 92.51 198.65, 92.78 196.59 C 93.06 194.54, 93.33 192.47, 93.66 190.41 C 93.99 188.35, 94.32 186.26, 94.76 184.21 C 95.20 182.16, 95.69 180.11, 96.31 178.11 C 96.93 176.12, 97.65 174.15, 98.48 172.25 C 99.32 170.34, 100.28 168.49, 101.33 166.70 C 102.38 164.91, 103.56 163.19, 104.78 161.51 C 106.01 159.83, 107.34 158.22, 108.69 156.64 C 110.05 155.06, 111.47 153.53, 112.91 152.04 C 114.34 150.54, 115.81 149.07, 117.33 147.66 C 118.84 146.24, 120.39 144.86, 121.97 143.54 C 123.56 142.21, 125.20 140.95, 126.84 139.70 C 128.48 138.46, 130.15 137.26, 131.79 136.05 C 133.43 134.84, 135.08 133.67, 136.68 132.44 C 138.28 131.21, 139.86 129.99, 141.36 128.68 C 142.86 127.37, 144.31 126.00, 145.70 124.55 C 147.10 123.11, 148.41 121.56, 149.75 120.00 C 151.08 118.45, 152.35 116.79, 153.71 115.21 C 155.07 113.64, 156.42 112.02, 157.89 110.55 C 159.36 109.08, 160.89 107.65, 162.51 106.39 C 164.14 105.13, 165.87 104.00, 167.65 102.98 C 169.44 101.97, 171.32 101.11, 173.22 100.30 C 175.11 99.50, 177.07 98.83, 179.01 98.15 C 180.95 97.47, 182.91 96.85, 184.86 96.23 C 186.81 95.60, 188.75 94.96, 190.70 94.39 C 192.66 93.82, 194.62 93.26, 196.60 92.79 C 198.58 92.33, 200.58 91.95, 202.58 91.60 C 204.58 91.25, 206.60 90.99, 208.60 90.69 C 210.59 90.39, 212.59 90.13, 214.56 89.80 C 216.54 89.47, 218.49 89.12, 220.44 88.71 C 222.39 88.31, 224.32 87.84, 226.27 87.38 C 228.21 86.92, 230.15 86.39, 232.10 85.93 C 234.05 85.48, 236.01 85.01, 237.99 84.63 C 239.96 84.24, 241.95 83.93, 243.95 83.62 C 245.94 83.31, 247.94 83.08, 249.95 82.77 C 251.96 82.47, 253.97 82.13, 256.00 81.80 C 258.03 81.48, 260.07 81.10, 262.12 80.83 C 264.17 80.55, 266.23 80.28, 268.30 80.17 C 270.36 80.05, 272.43 80.02, 274.49 80.12 C 276.54 80.23, 278.59 80.48, 280.62 80.82 C 282.65 81.16, 284.66 81.64, 286.66 82.14 C 288.65 82.64, 290.63 83.24, 292.60 83.83 C 294.57 84.41, 296.53 85.01, 298.48 85.64 C 300.43 86.26, 302.36 86.93, 304.29 87.58 C 306.23 88.23, 308.15 88.89, 310.08 89.54 C 312.02 90.19, 313.96 90.81, 315.88 91.48 C 317.81 92.14, 319.74 92.79, 321.64 93.53 C 323.54 94.26, 325.44 95.03, 327.28 95.89 C 329.13 96.75, 330.95 97.68, 332.72 98.70 C 334.49 99.71, 336.22 100.81, 337.90 101.97 C 339.58 103.13, 341.21 104.38, 342.81 105.64 C 344.41 106.91, 345.95 108.26, 347.49 109.58 C 349.03 110.91, 350.53 112.28, 352.05 113.61 C 353.56 114.93, 355.05 116.28, 356.59 117.55 C 358.13 118.83, 359.68 120.06, 361.28 121.24 C 362.89 122.43, 364.54 123.54, 366.21 124.66 C 367.88 125.78, 369.60 126.84, 371.29 127.96 C 372.98 129.07, 374.70 130.18, 376.36 131.36 C 378.02 132.55, 379.66 133.76, 381.26 135.04 C 382.85 136.32, 384.40 137.65, 385.92 139.02 C 387.44 140.39, 388.92 141.81, 390.36 143.26 C 391.80 144.71, 393.22 146.19, 394.57 147.74 C 395.92 149.28, 397.22 150.87, 398.43 152.52 C 399.65 154.16, 400.77 155.88, 401.85 157.62 C 402.93 159.36, 403.92 161.16, 404.91 162.95 C 405.91 164.74, 406.83 166.56, 407.80 168.36 C 408.77 170.15, 409.73 171.95, 410.73 173.73 C 411.73 175.51, 412.76 177.27, 413.82 179.03 C 414.87 180.79, 415.98 182.53, 417.05 184.30 C 418.13 186.06, 419.24 187.83, 420.26 189.64 C 421.28 191.45, 422.27 193.28, 423.18 195.15 C 424.08 197.02, 424.91 198.94, 425.69 200.87 C 426.46 202.80, 427.18 204.75, 427.81 206.74 C 428.43 208.72, 428.96 210.73, 429.42 212.76 C 429.87 214.79, 430.22 216.85, 430.53 218.90 C 430.85 220.96, 431.07 223.03, 431.30 225.09 C 431.54 227.15, 431.73 229.21, 431.96 231.27 C 432.19 233.33, 432.42 235.38, 432.70 237.43 C 432.98 239.48, 433.29 241.52, 433.63 243.58 C 433.97 245.63, 434.35 247.69, 434.71 249.76 C 435.08 251.83, 435.82 254.96, 435.81 256.00 C 435.79 257.04, 434.65 254.95, 434.62 256.00 Z" stroke-width="2.93" opacity="0.28"/>
    <path d="M 414.61 256.00 C 414.74 256.93, 415.09 259.70, 415.31 261.56 C 415.52 263.43, 415.73 265.30, 415.89 267.18 C 416.05 269.06, 416.21 270.95, 416.27 272.84 C 416.33 274.73, 416.34 276.64, 416.24 278.52 C 416.14 280.41, 415.96 282.29, 415.67 284.15 C 415.38 286.02, 414.98 287.87, 414.50 289.69 C 414.03 291.52, 413.44 293.32, 412.82 295.10 C 412.20 296.88, 411.49 298.64, 410.78 300.38 C 410.07 302.13, 409.31 303.85, 408.57 305.57 C 407.82 307.29, 407.08 309.01, 406.31 310.71 C 405.55 312.41, 404.80 314.12, 404.00 315.79 C 403.19 317.47, 402.37 319.14, 401.50 320.78 C 400.63 322.42, 399.72 324.04, 398.78 325.64 C 397.84 327.24, 396.86 328.81, 395.86 330.37 C 394.87 331.92, 393.83 333.45, 392.79 334.97 C 391.74 336.49, 390.67 337.99, 389.60 339.48 C 388.53 340.97, 387.43 342.45, 386.36 343.93 C 385.29 345.42, 384.22 346.89, 383.17 348.40 C 382.13 349.90, 381.10 351.41, 380.09 352.95 C 379.08 354.49, 378.10 356.05, 377.12 357.63 C 376.14 359.21, 375.19 360.82, 374.20 362.42 C 373.21 364.02, 372.23 365.65, 371.18 367.23 C 370.13 368.81, 369.07 370.39, 367.91 371.89 C 366.76 373.39, 365.55 374.86, 364.26 376.23 C 362.96 377.60, 361.59 378.91, 360.14 380.11 C 358.69 381.31, 357.15 382.42, 355.56 383.43 C 353.97 384.45, 352.30 385.36, 350.60 386.20 C 348.90 387.05, 347.14 387.79, 345.38 388.51 C 343.62 389.23, 341.82 389.86, 340.05 390.51 C 338.28 391.16, 336.50 391.76, 334.75 392.40 C 333.00 393.04, 331.27 393.67, 329.56 394.34 C 327.85 395.01, 326.16 395.70, 324.49 396.42 C 322.82 397.14, 321.17 397.91, 319.52 398.66 C 317.86 399.42, 316.23 400.21, 314.56 400.95 C 312.90 401.69, 311.23 402.43, 309.54 403.10 C 307.85 403.77, 306.13 404.40, 304.40 404.94 C 302.66 405.49, 300.90 405.97, 299.12 406.38 C 297.35 406.79, 295.55 407.11, 293.75 407.40 C 291.95 407.69, 290.14 407.89, 288.33 408.09 C 286.52 408.29, 284.71 408.44, 282.91 408.61 C 281.11 408.78, 279.31 408.92, 277.52 409.10 C 275.72 409.29, 273.94 409.48, 272.15 409.70 C 270.37 409.91, 268.59 410.17, 266.80 410.40 C 265.01 410.64, 263.22 410.90, 261.42 411.12 C 259.62 411.35, 257.81 411.55, 256.00 411.75 C 254.19 411.95, 252.37 412.17, 250.54 412.35 C 248.71 412.53, 246.87 412.72, 245.03 412.84 C 243.19 412.96, 241.34 413.06, 239.49 413.07 C 237.64 413.08, 235.79 413.02, 233.95 412.89 C 232.11 412.75, 230.27 412.52, 228.45 412.24 C 226.63 411.96, 224.81 411.59, 223.01 411.21 C 221.21 410.82, 219.41 410.37, 217.62 409.92 C 215.83 409.47, 214.05 409.00, 212.27 408.52 C 210.48 408.04, 208.70 407.57, 206.92 407.04 C 205.15 406.52, 203.38 405.97, 201.63 405.37 C 199.89 404.76, 198.16 404.10, 196.45 403.40 C 194.73 402.71, 193.04 401.96, 191.35 401.20 C 189.67 400.44, 188.00 399.65, 186.33 398.84 C 184.67 398.04, 183.01 397.22, 181.36 396.37 C 179.72 395.53, 178.07 394.67, 176.45 393.78 C 174.83 392.89, 173.22 391.97, 171.63 391.01 C 170.05 390.06, 168.48 389.07, 166.94 388.04 C 165.40 387.01, 163.88 385.95, 162.38 384.85 C 160.89 383.76, 159.41 382.63, 157.97 381.47 C 156.53 380.30, 155.11 379.11, 153.73 377.88 C 152.36 376.64, 151.02 375.36, 149.72 374.04 C 148.41 372.73, 147.15 371.37, 145.92 369.99 C 144.69 368.61, 143.50 367.19, 142.35 365.75 C 141.20 364.31, 140.08 362.84, 139.00 361.34 C 137.92 359.85, 136.88 358.33, 135.87 356.80 C 134.86 355.27, 133.88 353.71, 132.94 352.15 C 132.00 350.58, 131.09 348.99, 130.21 347.39 C 129.34 345.79, 128.50 344.17, 127.68 342.55 C 126.86 340.94, 126.07 339.31, 125.28 337.68 C 124.50 336.06, 123.73 334.43, 122.97 332.81 C 122.20 331.19, 121.44 329.57, 120.67 327.96 C 119.91 326.34, 119.14 324.73, 118.39 323.12 C 117.63 321.51, 116.87 319.90, 116.13 318.27 C 115.40 316.65, 114.68 315.02, 113.98 313.38 C 113.28 311.74, 112.62 310.08, 111.96 308.43 C 111.29 306.77, 110.67 305.10, 110.00 303.44 C 109.34 301.77, 108.67 300.11, 107.98 298.44 C 107.30 296.77, 106.58 295.11, 105.88 293.43 C 105.18 291.75, 104.46 290.06, 103.79 288.35 C 103.12 286.64, 102.46 284.92, 101.87 283.18 C 101.29 281.43, 100.74 279.67, 100.30 277.88 C 99.86 276.10, 99.48 274.29, 99.22 272.48 C 98.95 270.66, 98.78 268.83, 98.71 267.00 C 98.64 265.17, 98.68 263.32, 98.78 261.49 C 98.88 259.66, 99.10 257.82, 99.31 256.00 C 99.51 254.18, 99.79 252.36, 100.01 250.55 C 100.22 248.74, 100.44 246.94, 100.62 245.13 C 100.79 243.33, 100.93 241.53, 101.05 239.71 C 101.18 237.90, 101.26 236.09, 101.38 234.27 C 101.49 232.45, 101.58 230.62, 101.75 228.80 C 101.91 226.98, 102.08 225.15, 102.34 223.34 C 102.61 221.53, 102.92 219.72, 103.33 217.93 C 103.73 216.15, 104.22 214.38, 104.79 212.64 C 105.35 210.90, 106.02 209.19, 106.73 207.50 C 107.44 205.81, 108.24 204.16, 109.06 202.52 C 109.87 200.88, 110.75 199.27, 111.61 197.66 C 112.47 196.06, 113.36 194.47, 114.23 192.88 C 115.11 191.29, 115.98 189.71, 116.86 188.14 C 117.74 186.56, 118.61 184.99, 119.50 183.42 C 120.38 181.85, 121.27 180.29, 122.18 178.74 C 123.08 177.18, 124.00 175.64, 124.95 174.11 C 125.89 172.58, 126.85 171.06, 127.84 169.56 C 128.83 168.06, 129.85 166.57, 130.89 165.10 C 131.93 163.64, 133.00 162.19, 134.09 160.76 C 135.19 159.33, 136.31 157.92, 137.45 156.52 C 138.59 155.13, 139.75 153.75, 140.93 152.39 C 142.12 151.03, 143.32 149.70, 144.54 148.36 C 145.75 147.03, 146.98 145.70, 148.22 144.39 C 149.46 143.07, 150.70 141.76, 151.97 140.46 C 153.24 139.17, 154.53 137.89, 155.83 136.62 C 157.13 135.35, 158.45 134.09, 159.78 132.85 C 161.12 131.60, 162.46 130.36, 163.83 129.14 C 165.20 127.92, 166.58 126.71, 167.99 125.52 C 169.39 124.33, 170.82 123.15, 172.27 122.00 C 173.71 120.84, 175.18 119.70, 176.66 118.58 C 178.15 117.47, 179.65 116.36, 181.18 115.28 C 182.71 114.21, 184.25 113.14, 185.82 112.12 C 187.40 111.09, 188.99 110.09, 190.61 109.14 C 192.24 108.20, 193.89 107.28, 195.58 106.45 C 197.26 105.61, 198.98 104.82, 200.71 104.10 C 202.45 103.39, 204.23 102.75, 206.01 102.14 C 207.79 101.53, 209.59 100.99, 211.39 100.44 C 213.19 99.89, 215.00 99.36, 216.81 98.83 C 218.62 98.30, 220.44 97.77, 222.26 97.25 C 224.08 96.73, 225.90 96.20, 227.74 95.72 C 229.57 95.23, 231.42 94.74, 233.28 94.33 C 235.14 93.91, 237.01 93.52, 238.89 93.23 C 240.77 92.94, 242.67 92.70, 244.57 92.57 C 246.47 92.45, 248.38 92.40, 250.29 92.46 C 252.19 92.51, 254.10 92.68, 256.00 92.91 C 257.90 93.13, 259.79 93.47, 261.66 93.81 C 263.54 94.14, 265.41 94.54, 267.26 94.91 C 269.12 95.27, 270.97 95.63, 272.82 95.97 C 274.67 96.32, 276.51 96.64, 278.35 96.97 C 280.19 97.30, 282.03 97.61, 283.87 97.95 C 285.70 98.30, 287.54 98.65, 289.36 99.06 C 291.18 99.47, 293.00 99.90, 294.79 100.42 C 296.58 100.93, 298.37 101.50, 300.11 102.15 C 301.86 102.81, 303.59 103.53, 305.28 104.33 C 306.97 105.12, 308.63 106.01, 310.26 106.93 C 311.89 107.84, 313.48 108.85, 315.05 109.84 C 316.63 110.82, 318.18 111.86, 319.73 112.85 C 321.29 113.85, 322.83 114.84, 324.38 115.80 C 325.94 116.75, 327.49 117.69, 329.06 118.60 C 330.62 119.51, 332.20 120.39, 333.78 121.28 C 335.37 122.16, 336.96 123.02, 338.55 123.89 C 340.14 124.77, 341.74 125.63, 343.33 126.53 C 344.92 127.43, 346.51 128.33, 348.07 129.27 C 349.64 130.21, 351.20 131.17, 352.74 132.18 C 354.28 133.18, 355.80 134.21, 357.30 135.28 C 358.79 136.35, 360.27 137.45, 361.72 138.59 C 363.17 139.72, 364.60 140.89, 366.02 142.07 C 367.43 143.26, 368.83 144.48, 370.21 145.71 C 371.60 146.94, 372.97 148.19, 374.33 149.45 C 375.70 150.71, 377.07 151.98, 378.42 153.28 C 379.77 154.58, 381.13 155.87, 382.42 157.23 C 383.71 158.59, 385.00 159.97, 386.18 161.42 C 387.36 162.87, 388.48 164.38, 389.50 165.96 C 390.51 167.53, 391.43 169.17, 392.27 170.85 C 393.11 172.53, 393.83 174.27, 394.53 176.02 C 395.23 177.76, 395.84 179.55, 396.46 181.32 C 397.09 183.08, 397.67 184.85, 398.28 186.60 C 398.90 188.35, 399.52 190.09, 400.17 191.81 C 400.81 193.54, 401.48 195.24, 402.15 196.95 C 402.81 198.66, 403.49 200.37, 404.14 202.08 C 404.79 203.80, 405.45 205.51, 406.05 207.24 C 406.66 208.98, 407.24 210.72, 407.75 212.49 C 408.26 214.25, 408.73 216.03, 409.13 217.82 C 409.54 219.61, 409.88 221.42, 410.19 223.23 C 410.50 225.03, 410.74 226.86, 410.98 228.67 C 411.21 230.49, 411.40 232.31, 411.60 234.13 C 411.80 235.95, 411.99 237.77, 412.20 239.58 C 412.41 241.40, 412.64 243.21, 412.88 245.03 C 413.13 246.85, 413.41 248.67, 413.68 250.49 C 413.95 252.32, 414.34 255.08, 414.49 256.00 C 414.65 256.92, 414.47 255.07, 414.61 256.00 Z" stroke-width="3.10" opacity="0.33"/>
    <path d="M 401.98 256.00 C 402.12 256.85, 402.36 259.41, 402.46 261.11 C 402.55 262.82, 402.61 264.54, 402.58 266.25 C 402.55 267.96, 402.44 269.67, 402.27 271.37 C 402.10 273.08, 401.85 274.77, 401.55 276.46 C 401.25 278.14, 400.88 279.81, 400.47 281.47 C 400.07 283.13, 399.60 284.78, 399.11 286.42 C 398.63 288.06, 398.11 289.68, 397.58 291.30 C 397.05 292.92, 396.49 294.52, 395.94 296.13 C 395.38 297.73, 394.82 299.33, 394.25 300.92 C 393.69 302.52, 393.12 304.11, 392.54 305.70 C 391.95 307.28, 391.37 308.87, 390.75 310.44 C 390.13 312.02, 389.50 313.59, 388.82 315.13 C 388.13 316.68, 387.42 318.22, 386.65 319.72 C 385.88 321.23, 385.07 322.72, 384.21 324.17 C 383.35 325.62, 382.43 327.05, 381.47 328.44 C 380.52 329.83, 379.50 331.19, 378.46 332.52 C 377.41 333.85, 376.32 335.14, 375.20 336.40 C 374.09 337.67, 372.94 338.90, 371.78 340.12 C 370.62 341.34, 369.44 342.52, 368.27 343.71 C 367.10 344.90, 365.91 346.07, 364.75 347.25 C 363.59 348.44, 362.43 349.61, 361.29 350.81 C 360.15 352.00, 359.03 353.20, 357.92 354.42 C 356.80 355.64, 355.71 356.87, 354.61 358.11 C 353.51 359.35, 352.42 360.61, 351.31 361.85 C 350.21 363.10, 349.10 364.36, 347.97 365.61 C 346.84 366.85, 345.71 368.10, 344.54 369.32 C 343.37 370.54, 342.18 371.76, 340.95 372.93 C 339.73 374.10, 338.47 375.25, 337.18 376.35 C 335.88 377.45, 334.55 378.51, 333.19 379.53 C 331.83 380.55, 330.44 381.53, 329.01 382.46 C 327.59 383.38, 326.13 384.27, 324.64 385.09 C 323.15 385.91, 321.62 386.67, 320.07 387.37 C 318.53 388.08, 316.95 388.72, 315.36 389.33 C 313.77 389.94, 312.16 390.49, 310.56 391.03 C 308.95 391.57, 307.33 392.08, 305.71 392.59 C 304.10 393.10, 302.48 393.60, 300.87 394.11 C 299.26 394.62, 297.66 395.13, 296.05 395.66 C 294.44 396.18, 292.83 396.73, 291.22 397.26 C 289.61 397.79, 287.99 398.34, 286.36 398.85 C 284.74 399.36, 283.10 399.87, 281.45 400.34 C 279.80 400.81, 278.14 401.25, 276.47 401.66 C 274.80 402.07, 273.12 402.46, 271.43 402.80 C 269.74 403.13, 268.03 403.43, 266.33 403.67 C 264.62 403.92, 262.90 404.11, 261.18 404.26 C 259.46 404.41, 257.73 404.50, 256.00 404.56 C 254.27 404.61, 252.54 404.61, 250.81 404.58 C 249.08 404.56, 247.35 404.48, 245.62 404.39 C 243.90 404.29, 242.17 404.16, 240.44 404.01 C 238.72 403.86, 236.99 403.69, 235.27 403.49 C 233.55 403.29, 231.83 403.08, 230.11 402.84 C 228.39 402.59, 226.67 402.33, 224.96 402.03 C 223.25 401.74, 221.53 401.43, 219.84 401.04 C 218.14 400.66, 216.45 400.24, 214.78 399.73 C 213.12 399.23, 211.47 398.65, 209.86 398.01 C 208.24 397.36, 206.66 396.63, 205.09 395.86 C 203.53 395.09, 202.01 394.24, 200.50 393.37 C 198.99 392.51, 197.51 391.58, 196.05 390.66 C 194.58 389.73, 193.14 388.77, 191.71 387.82 C 190.27 386.87, 188.86 385.90, 187.44 384.94 C 186.03 383.98, 184.62 383.02, 183.23 382.05 C 181.83 381.08, 180.43 380.12, 179.05 379.14 C 177.67 378.16, 176.30 377.18, 174.94 376.17 C 173.59 375.16, 172.25 374.14, 170.93 373.08 C 169.62 372.02, 168.33 370.94, 167.08 369.81 C 165.83 368.69, 164.61 367.52, 163.43 366.32 C 162.25 365.12, 161.11 363.88, 159.99 362.63 C 158.87 361.38, 157.79 360.10, 156.70 358.82 C 155.62 357.55, 154.57 356.26, 153.49 354.99 C 152.42 353.72, 151.35 352.45, 150.26 351.21 C 149.17 349.96, 148.07 348.73, 146.95 347.50 C 145.83 346.28, 144.69 345.07, 143.56 343.85 C 142.42 342.63, 141.26 341.42, 140.14 340.18 C 139.02 338.93, 137.89 337.68, 136.82 336.39 C 135.74 335.10, 134.69 333.78, 133.70 332.42 C 132.72 331.06, 131.78 329.66, 130.90 328.23 C 130.01 326.80, 129.19 325.33, 128.42 323.84 C 127.64 322.35, 126.92 320.83, 126.22 319.30 C 125.52 317.77, 124.87 316.22, 124.23 314.67 C 123.59 313.11, 122.98 311.55, 122.38 309.99 C 121.79 308.42, 121.22 306.84, 120.66 305.26 C 120.10 303.68, 119.56 302.09, 119.02 300.51 C 118.48 298.92, 117.95 297.33, 117.42 295.74 C 116.89 294.14, 116.37 292.55, 115.86 290.94 C 115.35 289.34, 114.85 287.72, 114.38 286.10 C 113.92 284.48, 113.46 282.85, 113.07 281.20 C 112.67 279.56, 112.30 277.90, 112.00 276.24 C 111.71 274.57, 111.45 272.89, 111.28 271.21 C 111.10 269.53, 110.99 267.83, 110.95 266.14 C 110.90 264.45, 110.94 262.75, 111.02 261.06 C 111.09 259.37, 111.25 257.68, 111.42 256.00 C 111.58 254.32, 111.80 252.64, 112.00 250.97 C 112.20 249.30, 112.42 247.64, 112.63 245.97 C 112.84 244.31, 113.05 242.65, 113.26 241.00 C 113.47 239.34, 113.67 237.68, 113.90 236.03 C 114.12 234.37, 114.35 232.72, 114.62 231.07 C 114.88 229.42, 115.17 227.77, 115.50 226.14 C 115.84 224.50, 116.21 222.87, 116.63 221.25 C 117.05 219.64, 117.53 218.03, 118.05 216.44 C 118.57 214.86, 119.14 213.28, 119.75 211.73 C 120.36 210.18, 121.03 208.64, 121.70 207.12 C 122.38 205.60, 123.10 204.09, 123.81 202.59 C 124.52 201.09, 125.25 199.60, 125.97 198.11 C 126.69 196.61, 127.40 195.12, 128.11 193.62 C 128.81 192.12, 129.51 190.62, 130.22 189.12 C 130.92 187.62, 131.62 186.11, 132.35 184.61 C 133.08 183.11, 133.82 181.62, 134.59 180.14 C 135.36 178.65, 136.16 177.18, 136.99 175.73 C 137.83 174.28, 138.70 172.84, 139.60 171.43 C 140.51 170.02, 141.45 168.63, 142.42 167.27 C 143.40 165.90, 144.41 164.55, 145.44 163.23 C 146.47 161.90, 147.54 160.60, 148.62 159.31 C 149.70 158.03, 150.81 156.76, 151.94 155.51 C 153.07 154.26, 154.22 153.03, 155.40 151.83 C 156.58 150.62, 157.78 149.43, 159.00 148.27 C 160.23 147.12, 161.48 145.98, 162.76 144.88 C 164.04 143.78, 165.34 142.71, 166.68 141.67 C 168.01 140.64, 169.38 139.65, 170.77 138.69 C 172.16 137.73, 173.57 136.80, 175.01 135.92 C 176.44 135.04, 177.91 134.20, 179.39 133.40 C 180.87 132.59, 182.37 131.83, 183.88 131.08 C 185.38 130.33, 186.90 129.62, 188.42 128.90 C 189.93 128.18, 191.45 127.48, 192.97 126.77 C 194.49 126.06, 196.00 125.35, 197.52 124.64 C 199.03 123.93, 200.54 123.21, 202.07 122.51 C 203.59 121.81, 205.12 121.10, 206.66 120.43 C 208.20 119.76, 209.75 119.10, 211.32 118.48 C 212.89 117.87, 214.47 117.28, 216.07 116.75 C 217.67 116.22, 219.29 115.73, 220.91 115.27 C 222.54 114.82, 224.18 114.42, 225.82 114.01 C 227.46 113.60, 229.11 113.23, 230.75 112.82 C 232.40 112.42, 234.05 112.02, 235.71 111.61 C 237.36 111.20, 239.02 110.77, 240.69 110.36 C 242.36 109.95, 244.04 109.52, 245.73 109.13 C 247.42 108.74, 249.12 108.36, 250.83 108.03 C 252.54 107.70, 254.27 107.40, 256.00 107.16 C 257.73 106.93, 259.47 106.74, 261.22 106.64 C 262.96 106.53, 264.71 106.49, 266.45 106.52 C 268.20 106.56, 269.94 106.68, 271.68 106.86 C 273.41 107.03, 275.14 107.29, 276.86 107.59 C 278.58 107.89, 280.29 108.23, 281.98 108.64 C 283.68 109.05, 285.36 109.52, 287.02 110.05 C 288.68 110.58, 290.33 111.18, 291.95 111.81 C 293.57 112.44, 295.18 113.14, 296.76 113.84 C 298.35 114.54, 299.92 115.29, 301.48 116.02 C 303.04 116.76, 304.59 117.51, 306.13 118.26 C 307.67 119.01, 309.21 119.76, 310.74 120.52 C 312.27 121.27, 313.80 122.01, 315.32 122.77 C 316.84 123.52, 318.36 124.28, 319.87 125.05 C 321.38 125.82, 322.89 126.59, 324.39 127.39 C 325.88 128.18, 327.37 129.00, 328.85 129.83 C 330.32 130.66, 331.78 131.52, 333.25 132.38 C 334.71 133.24, 336.16 134.12, 337.62 135.00 C 339.07 135.88, 340.53 136.76, 341.99 137.65 C 343.44 138.54, 344.91 139.43, 346.36 140.34 C 347.81 141.26, 349.27 142.18, 350.71 143.13 C 352.14 144.09, 353.57 145.06, 354.97 146.08 C 356.37 147.10, 357.76 148.14, 359.10 149.24 C 360.44 150.33, 361.75 151.47, 363.02 152.66 C 364.28 153.84, 365.50 155.08, 366.67 156.35 C 367.84 157.62, 368.97 158.95, 370.05 160.30 C 371.14 161.65, 372.17 163.04, 373.17 164.46 C 374.17 165.87, 375.12 167.32, 376.04 168.78 C 376.97 170.25, 377.85 171.73, 378.70 173.23 C 379.56 174.74, 380.38 176.26, 381.17 177.78 C 381.97 179.31, 382.73 180.86, 383.47 182.40 C 384.21 183.95, 384.93 185.51, 385.64 187.07 C 386.34 188.63, 387.03 190.19, 387.71 191.76 C 388.40 193.32, 389.07 194.89, 389.74 196.46 C 390.40 198.03, 391.06 199.60, 391.69 201.18 C 392.32 202.76, 392.94 204.35, 393.51 205.95 C 394.08 207.55, 394.62 209.17, 395.10 210.80 C 395.58 212.44, 396.02 214.08, 396.41 215.74 C 396.80 217.39, 397.14 219.06, 397.44 220.74 C 397.74 222.41, 397.99 224.09, 398.23 225.77 C 398.46 227.45, 398.65 229.13, 398.85 230.81 C 399.04 232.49, 399.20 234.17, 399.38 235.85 C 399.55 237.53, 399.72 239.20, 399.90 240.88 C 400.08 242.55, 400.27 244.22, 400.46 245.90 C 400.66 247.57, 400.87 249.25, 401.06 250.93 C 401.25 252.62, 401.46 255.16, 401.62 256.00 C 401.77 256.84, 401.84 255.15, 401.98 256.00 Z" stroke-width="3.27" opacity="0.39"/>
    <path d="M 393.04 256.00 C 393.06 256.80, 393.19 259.19, 393.20 260.79 C 393.20 262.39, 393.17 263.99, 393.08 265.59 C 392.98 267.18, 392.84 268.78, 392.63 270.36 C 392.43 271.95, 392.17 273.53, 391.86 275.09 C 391.55 276.66, 391.18 278.22, 390.78 279.76 C 390.37 281.31, 389.92 282.84, 389.44 284.36 C 388.96 285.88, 388.43 287.39, 387.90 288.89 C 387.36 290.38, 386.79 291.86, 386.21 293.34 C 385.64 294.81, 385.04 296.27, 384.44 297.73 C 383.84 299.19, 383.22 300.64, 382.60 302.08 C 381.98 303.52, 381.36 304.96, 380.72 306.39 C 380.09 307.82, 379.45 309.25, 378.79 310.67 C 378.13 312.09, 377.46 313.50, 376.78 314.91 C 376.09 316.31, 375.38 317.71, 374.67 319.10 C 373.95 320.48, 373.21 321.87, 372.46 323.24 C 371.71 324.61, 370.95 325.98, 370.16 327.34 C 369.38 328.69, 368.58 330.05, 367.76 331.39 C 366.95 332.73, 366.11 334.06, 365.25 335.37 C 364.39 336.69, 363.50 337.99, 362.59 339.28 C 361.68 340.56, 360.74 341.83, 359.78 343.08 C 358.81 344.33, 357.82 345.55, 356.80 346.76 C 355.78 347.96, 354.73 349.15, 353.66 350.31 C 352.59 351.47, 351.49 352.61, 350.38 353.73 C 349.26 354.85, 348.13 355.95, 346.98 357.05 C 345.84 358.14, 344.67 359.21, 343.50 360.28 C 342.33 361.35, 341.15 362.41, 339.95 363.45 C 338.76 364.50, 337.55 365.54, 336.34 366.57 C 335.12 367.60, 333.89 368.62, 332.64 369.63 C 331.40 370.63, 330.14 371.63, 328.86 372.60 C 327.58 373.57, 326.29 374.53, 324.97 375.46 C 323.65 376.39, 322.32 377.30, 320.96 378.17 C 319.60 379.03, 318.21 379.88, 316.81 380.67 C 315.40 381.46, 313.97 382.22, 312.51 382.92 C 311.06 383.63, 309.57 384.29, 308.08 384.89 C 306.58 385.50, 305.06 386.05, 303.52 386.56 C 301.99 387.07, 300.43 387.53, 298.87 387.95 C 297.31 388.37, 295.74 388.74, 294.16 389.09 C 292.59 389.44, 291.00 389.75, 289.42 390.05 C 287.84 390.34, 286.25 390.61, 284.67 390.87 C 283.08 391.13, 281.50 391.38, 279.91 391.61 C 278.32 391.84, 276.74 392.05, 275.15 392.25 C 273.56 392.45, 271.97 392.64, 270.38 392.80 C 268.79 392.96, 267.19 393.10, 265.60 393.22 C 264.00 393.33, 262.40 393.42, 260.80 393.47 C 259.20 393.53, 257.60 393.55, 256.00 393.54 C 254.40 393.53, 252.80 393.48, 251.20 393.39 C 249.61 393.30, 248.01 393.17, 246.42 393.01 C 244.83 392.85, 243.24 392.65, 241.66 392.43 C 240.08 392.21, 238.50 391.97, 236.93 391.70 C 235.36 391.42, 233.79 391.13, 232.23 390.81 C 230.67 390.48, 229.12 390.13, 227.57 389.76 C 226.02 389.38, 224.48 388.98, 222.95 388.56 C 221.41 388.15, 219.89 387.71, 218.36 387.27 C 216.83 386.82, 215.31 386.36, 213.80 385.89 C 212.28 385.42, 210.76 384.94, 209.25 384.45 C 207.74 383.95, 206.23 383.44, 204.72 382.91 C 203.22 382.38, 201.72 381.84, 200.23 381.26 C 198.74 380.68, 197.26 380.08, 195.79 379.44 C 194.33 378.80, 192.87 378.13, 191.44 377.42 C 190.01 376.70, 188.60 375.95, 187.20 375.16 C 185.81 374.37, 184.44 373.53, 183.10 372.67 C 181.75 371.81, 180.42 370.91, 179.12 369.98 C 177.82 369.05, 176.54 368.09, 175.29 367.09 C 174.03 366.10, 172.80 365.08, 171.60 364.03 C 170.39 362.98, 169.21 361.91, 168.05 360.82 C 166.88 359.73, 165.74 358.61, 164.62 357.49 C 163.49 356.37, 162.38 355.23, 161.29 354.08 C 160.19 352.93, 159.12 351.76, 158.05 350.59 C 156.98 349.42, 155.93 348.23, 154.89 347.04 C 153.86 345.84, 152.83 344.63, 151.82 343.41 C 150.82 342.19, 149.83 340.96, 148.86 339.71 C 147.89 338.46, 146.93 337.20, 146.01 335.91 C 145.08 334.63, 144.18 333.33, 143.30 332.02 C 142.42 330.70, 141.56 329.37, 140.73 328.03 C 139.91 326.68, 139.10 325.32, 138.32 323.94 C 137.54 322.57, 136.78 321.18, 136.04 319.78 C 135.30 318.39, 134.58 316.98, 133.88 315.56 C 133.18 314.14, 132.49 312.72, 131.84 311.28 C 131.19 309.84, 130.56 308.39, 129.96 306.92 C 129.37 305.46, 128.81 303.98, 128.28 302.49 C 127.75 301.00, 127.26 299.49, 126.80 297.98 C 126.33 296.47, 125.89 294.95, 125.47 293.43 C 125.05 291.90, 124.66 290.38, 124.27 288.84 C 123.89 287.31, 123.52 285.77, 123.17 284.23 C 122.81 282.69, 122.47 281.15, 122.14 279.60 C 121.81 278.05, 121.50 276.50, 121.21 274.94 C 120.92 273.39, 120.64 271.82, 120.41 270.25 C 120.17 268.68, 119.96 267.10, 119.79 265.52 C 119.62 263.94, 119.49 262.36, 119.40 260.77 C 119.31 259.18, 119.26 257.59, 119.24 256.00 C 119.22 254.41, 119.24 252.82, 119.27 251.23 C 119.30 249.63, 119.34 248.04, 119.42 246.45 C 119.49 244.86, 119.57 243.26, 119.70 241.67 C 119.82 240.08, 119.96 238.49, 120.15 236.91 C 120.34 235.32, 120.56 233.74, 120.83 232.17 C 121.10 230.59, 121.42 229.02, 121.77 227.47 C 122.13 225.91, 122.54 224.37, 122.98 222.83 C 123.43 221.30, 123.92 219.78, 124.44 218.28 C 124.96 216.77, 125.52 215.28, 126.10 213.79 C 126.68 212.31, 127.30 210.84, 127.93 209.38 C 128.55 207.93, 129.20 206.48, 129.86 205.04 C 130.53 203.60, 131.21 202.17, 131.91 200.75 C 132.61 199.33, 133.33 197.93, 134.07 196.53 C 134.80 195.13, 135.56 193.75, 136.32 192.37 C 137.08 190.98, 137.86 189.61, 138.65 188.25 C 139.43 186.88, 140.23 185.52, 141.05 184.17 C 141.86 182.82, 142.69 181.48, 143.54 180.15 C 144.39 178.82, 145.26 177.50, 146.16 176.19 C 147.05 174.89, 147.96 173.60, 148.90 172.32 C 149.84 171.05, 150.80 169.79, 151.78 168.55 C 152.76 167.30, 153.76 166.07, 154.78 164.86 C 155.80 163.65, 156.84 162.45, 157.90 161.27 C 158.96 160.09, 160.04 158.92, 161.14 157.77 C 162.24 156.62, 163.35 155.48, 164.49 154.37 C 165.63 153.25, 166.78 152.15, 167.96 151.08 C 169.14 150.00, 170.34 148.95, 171.56 147.92 C 172.78 146.90, 174.03 145.89, 175.30 144.92 C 176.57 143.95, 177.86 143.01, 179.18 142.10 C 180.49 141.19, 181.83 140.31, 183.18 139.46 C 184.53 138.61, 185.90 137.78, 187.28 136.98 C 188.67 136.18, 190.07 135.40, 191.48 134.65 C 192.89 133.90, 194.31 133.17, 195.75 132.47 C 197.18 131.76, 198.63 131.09, 200.10 130.44 C 201.56 129.79, 203.03 129.17, 204.52 128.57 C 206.00 127.98, 207.50 127.41, 209.00 126.87 C 210.50 126.33, 212.02 125.81, 213.54 125.33 C 215.06 124.84, 216.60 124.38, 218.13 123.95 C 219.67 123.51, 221.22 123.10, 222.77 122.72 C 224.32 122.34, 225.88 121.99, 227.45 121.67 C 229.01 121.35, 230.58 121.06, 232.16 120.80 C 233.74 120.54, 235.32 120.32, 236.90 120.12 C 238.49 119.92, 240.08 119.75, 241.67 119.61 C 243.25 119.48, 244.85 119.37, 246.44 119.30 C 248.03 119.23, 249.63 119.19, 251.22 119.19 C 252.82 119.19, 254.41 119.23, 256.00 119.30 C 257.59 119.36, 259.18 119.46, 260.76 119.57 C 262.35 119.69, 263.93 119.83, 265.51 119.98 C 267.09 120.13, 268.67 120.30, 270.24 120.47 C 271.82 120.65, 273.39 120.84, 274.97 121.04 C 276.54 121.24, 278.11 121.45, 279.68 121.68 C 281.26 121.91, 282.83 122.15, 284.39 122.42 C 285.96 122.69, 287.53 122.97, 289.09 123.29 C 290.65 123.61, 292.20 123.96, 293.75 124.34 C 295.30 124.72, 296.85 125.13, 298.38 125.57 C 299.91 126.01, 301.44 126.48, 302.95 126.99 C 304.47 127.51, 305.97 128.06, 307.45 128.65 C 308.94 129.24, 310.40 129.88, 311.85 130.55 C 313.30 131.22, 314.73 131.94, 316.14 132.68 C 317.56 133.43, 318.95 134.21, 320.33 135.01 C 321.71 135.81, 323.07 136.65, 324.42 137.49 C 325.77 138.33, 327.11 139.20, 328.44 140.07 C 329.77 140.95, 331.09 141.84, 332.40 142.74 C 333.71 143.63, 335.01 144.54, 336.31 145.46 C 337.61 146.38, 338.90 147.31, 340.19 148.25 C 341.48 149.18, 342.76 150.12, 344.04 151.08 C 345.32 152.03, 346.60 152.99, 347.87 153.97 C 349.14 154.95, 350.40 155.94, 351.64 156.96 C 352.88 157.99, 354.11 159.03, 355.30 160.11 C 356.49 161.19, 357.66 162.30, 358.79 163.44 C 359.92 164.59, 361.02 165.77, 362.08 166.99 C 363.13 168.21, 364.15 169.46, 365.13 170.74 C 366.11 172.02, 367.04 173.33, 367.95 174.67 C 368.85 176.00, 369.71 177.36, 370.55 178.73 C 371.40 180.10, 372.20 181.50, 373.00 182.89 C 373.79 184.29, 374.56 185.70, 375.31 187.11 C 376.07 188.53, 376.82 189.95, 377.55 191.37 C 378.28 192.79, 379.01 194.22, 379.72 195.66 C 380.43 197.09, 381.13 198.53, 381.81 199.99 C 382.48 201.44, 383.14 202.90, 383.76 204.38 C 384.38 205.86, 384.97 207.35, 385.51 208.86 C 386.06 210.37, 386.56 211.89, 387.02 213.43 C 387.48 214.96, 387.89 216.52, 388.27 218.07 C 388.65 219.63, 388.98 221.20, 389.29 222.77 C 389.60 224.34, 389.86 225.92, 390.11 227.49 C 390.36 229.07, 390.58 230.65, 390.79 232.23 C 390.99 233.81, 391.18 235.40, 391.36 236.98 C 391.54 238.56, 391.71 240.14, 391.88 241.72 C 392.04 243.30, 392.20 244.88, 392.35 246.47 C 392.51 248.05, 392.66 249.63, 392.78 251.22 C 392.91 252.81, 393.07 255.20, 393.11 256.00 C 393.16 256.80, 393.03 255.20, 393.04 256.00 Z" stroke-width="3.43" opacity="0.44"/>
    <path d="M 389.91 256.00 C 389.92 256.78, 390.00 259.12, 390.00 260.68 C 390.00 262.24, 389.98 263.80, 389.92 265.36 C 389.86 266.93, 389.77 268.49, 389.64 270.05 C 389.52 271.61, 389.36 273.16, 389.16 274.72 C 388.97 276.27, 388.73 277.82, 388.46 279.36 C 388.19 280.90, 387.88 282.43, 387.53 283.96 C 387.18 285.48, 386.78 287.00, 386.36 288.50 C 385.94 290.01, 385.47 291.50, 384.98 292.98 C 384.49 294.47, 383.96 295.94, 383.41 297.40 C 382.85 298.86, 382.27 300.30, 381.67 301.74 C 381.07 303.18, 380.44 304.60, 379.79 306.02 C 379.15 307.43, 378.48 308.84, 377.80 310.23 C 377.12 311.62, 376.42 313.01, 375.70 314.38 C 374.98 315.76, 374.25 317.12, 373.49 318.47 C 372.73 319.82, 371.94 321.15, 371.14 322.47 C 370.33 323.80, 369.50 325.10, 368.65 326.39 C 367.80 327.69, 366.93 328.96, 366.05 330.23 C 365.16 331.49, 364.25 332.74, 363.34 333.98 C 362.42 335.23, 361.48 336.45, 360.54 337.67 C 359.59 338.89, 358.63 340.10, 357.65 341.30 C 356.68 342.50, 355.69 343.68, 354.68 344.86 C 353.68 346.03, 352.66 347.19, 351.61 348.33 C 350.57 349.48, 349.51 350.61, 348.43 351.71 C 347.34 352.82, 346.24 353.90, 345.11 354.97 C 343.98 356.03, 342.83 357.07, 341.66 358.08 C 340.48 359.09, 339.28 360.08, 338.07 361.04 C 336.85 362.00, 335.61 362.93, 334.35 363.84 C 333.10 364.75, 331.82 365.63, 330.53 366.50 C 329.24 367.36, 327.94 368.20, 326.62 369.02 C 325.30 369.83, 323.97 370.63, 322.63 371.41 C 321.29 372.19, 319.94 372.95, 318.58 373.69 C 317.21 374.43, 315.84 375.15, 314.45 375.84 C 313.06 376.53, 311.66 377.20, 310.25 377.84 C 308.83 378.47, 307.40 379.08, 305.96 379.66 C 304.52 380.24, 303.07 380.79, 301.61 381.31 C 300.15 381.83, 298.68 382.32, 297.20 382.79 C 295.72 383.25, 294.23 383.69, 292.73 384.10 C 291.24 384.51, 289.73 384.90, 288.23 385.26 C 286.72 385.63, 285.21 385.97, 283.69 386.29 C 282.18 386.62, 280.66 386.92, 279.14 387.21 C 277.61 387.49, 276.08 387.76, 274.55 388.00 C 273.02 388.25, 271.48 388.48, 269.95 388.68 C 268.41 388.89, 266.86 389.07, 265.32 389.24 C 263.77 389.40, 262.22 389.54, 260.67 389.66 C 259.11 389.77, 257.56 389.86, 256.00 389.92 C 254.44 389.98, 252.88 390.02, 251.32 390.02 C 249.76 390.03, 248.20 390.00, 246.63 389.95 C 245.07 389.90, 243.51 389.82, 241.95 389.71 C 240.39 389.59, 238.83 389.45, 237.27 389.26 C 235.72 389.08, 234.16 388.86, 232.62 388.60 C 231.07 388.34, 229.53 388.05, 228.00 387.71 C 226.48 387.37, 224.95 386.99, 223.44 386.58 C 221.93 386.16, 220.43 385.70, 218.95 385.21 C 217.46 384.72, 215.99 384.19, 214.53 383.63 C 213.07 383.06, 211.63 382.47, 210.20 381.84 C 208.77 381.22, 207.35 380.56, 205.95 379.89 C 204.54 379.21, 203.15 378.51, 201.78 377.79 C 200.40 377.06, 199.04 376.32, 197.69 375.56 C 196.34 374.79, 195.00 374.01, 193.68 373.20 C 192.36 372.39, 191.06 371.56, 189.77 370.71 C 188.49 369.85, 187.22 368.98, 185.96 368.08 C 184.71 367.19, 183.47 366.28, 182.24 365.35 C 181.02 364.42, 179.81 363.48, 178.61 362.52 C 177.41 361.57, 176.22 360.60, 175.04 359.63 C 173.86 358.65, 172.69 357.67, 171.52 356.68 C 170.36 355.68, 169.20 354.68, 168.05 353.67 C 166.91 352.66, 165.77 351.64, 164.64 350.61 C 163.51 349.57, 162.39 348.53, 161.28 347.47 C 160.18 346.40, 159.09 345.33, 158.01 344.23 C 156.94 343.13, 155.89 342.01, 154.86 340.87 C 153.83 339.73, 152.81 338.57, 151.84 337.38 C 150.86 336.20, 149.90 334.99, 148.98 333.76 C 148.06 332.52, 147.16 331.27, 146.30 329.99 C 145.44 328.72, 144.62 327.42, 143.82 326.10 C 143.02 324.78, 142.26 323.44, 141.52 322.09 C 140.78 320.74, 140.08 319.38, 139.40 318.00 C 138.72 316.62, 138.06 315.23, 137.43 313.83 C 136.80 312.43, 136.19 311.02, 135.61 309.60 C 135.02 308.18, 134.47 306.75, 133.93 305.32 C 133.40 303.88, 132.89 302.44, 132.39 300.99 C 131.90 299.54, 131.43 298.08, 130.97 296.63 C 130.50 295.17, 130.06 293.70, 129.62 292.24 C 129.19 290.77, 128.76 289.30, 128.35 287.83 C 127.93 286.35, 127.53 284.87, 127.14 283.39 C 126.75 281.91, 126.37 280.42, 126.01 278.92 C 125.66 277.42, 125.31 275.92, 125.00 274.41 C 124.69 272.90, 124.39 271.38, 124.13 269.86 C 123.87 268.34, 123.64 266.80, 123.45 265.27 C 123.25 263.73, 123.09 262.19, 122.96 260.65 C 122.83 259.10, 122.74 257.55, 122.67 256.00 C 122.61 254.45, 122.57 252.89, 122.56 251.34 C 122.54 249.79, 122.55 248.23, 122.58 246.67 C 122.62 245.11, 122.68 243.55, 122.77 242.00 C 122.86 240.44, 122.97 238.88, 123.13 237.33 C 123.28 235.77, 123.47 234.22, 123.69 232.67 C 123.91 231.12, 124.17 229.58, 124.47 228.04 C 124.77 226.51, 125.10 224.98, 125.48 223.46 C 125.85 221.94, 126.26 220.43, 126.70 218.92 C 127.14 217.42, 127.62 215.93, 128.13 214.45 C 128.64 212.97, 129.17 211.50, 129.73 210.04 C 130.30 208.58, 130.88 207.13, 131.49 205.70 C 132.10 204.26, 132.73 202.83, 133.39 201.41 C 134.04 199.99, 134.72 198.58, 135.42 197.19 C 136.12 195.79, 136.84 194.41, 137.59 193.04 C 138.33 191.67, 139.11 190.31, 139.91 188.97 C 140.71 187.63, 141.53 186.31, 142.39 185.01 C 143.24 183.70, 144.12 182.41, 145.02 181.14 C 145.92 179.87, 146.84 178.62, 147.79 177.38 C 148.73 176.14, 149.70 174.92, 150.68 173.72 C 151.67 172.51, 152.67 171.33, 153.69 170.16 C 154.71 168.98, 155.75 167.83, 156.80 166.68 C 157.86 165.54, 158.92 164.41, 160.00 163.30 C 161.08 162.18, 162.18 161.08, 163.29 159.99 C 164.39 158.90, 165.51 157.83, 166.65 156.77 C 167.79 155.71, 168.93 154.66, 170.10 153.63 C 171.27 152.60, 172.45 151.58, 173.65 150.59 C 174.85 149.60, 176.06 148.62, 177.30 147.68 C 178.53 146.73, 179.79 145.80, 181.06 144.90 C 182.34 144.00, 183.63 143.13, 184.95 142.29 C 186.26 141.45, 187.60 140.64, 188.95 139.86 C 190.30 139.09, 191.67 138.34, 193.06 137.62 C 194.44 136.91, 195.85 136.22, 197.26 135.56 C 198.67 134.90, 200.09 134.26, 201.53 133.65 C 202.96 133.04, 204.40 132.45, 205.86 131.89 C 207.31 131.33, 208.77 130.78, 210.24 130.27 C 211.70 129.75, 213.18 129.25, 214.66 128.78 C 216.15 128.32, 217.64 127.87, 219.14 127.45 C 220.64 127.04, 222.15 126.65, 223.66 126.29 C 225.17 125.93, 226.69 125.59, 228.22 125.29 C 229.74 124.99, 231.27 124.72, 232.81 124.48 C 234.34 124.24, 235.89 124.03, 237.43 123.86 C 238.97 123.68, 240.52 123.54, 242.07 123.43 C 243.61 123.32, 245.16 123.24, 246.71 123.20 C 248.26 123.15, 249.81 123.13, 251.36 123.15 C 252.91 123.16, 254.46 123.21, 256.00 123.28 C 257.54 123.35, 259.09 123.45, 260.62 123.57 C 262.16 123.68, 263.70 123.82, 265.23 123.96 C 266.77 124.11, 268.30 124.27, 269.83 124.44 C 271.36 124.61, 272.89 124.79, 274.41 124.98 C 275.94 125.18, 277.47 125.39, 278.99 125.62 C 280.51 125.84, 282.04 126.08, 283.56 126.35 C 285.08 126.62, 286.60 126.90, 288.11 127.22 C 289.62 127.53, 291.13 127.87, 292.63 128.24 C 294.14 128.61, 295.63 129.01, 297.12 129.45 C 298.60 129.89, 300.08 130.36, 301.55 130.86 C 303.01 131.37, 304.47 131.91, 305.91 132.48 C 307.34 133.05, 308.77 133.66, 310.19 134.30 C 311.60 134.93, 313.00 135.60, 314.38 136.29 C 315.77 136.99, 317.14 137.71, 318.50 138.45 C 319.86 139.19, 321.21 139.96, 322.55 140.74 C 323.88 141.52, 325.21 142.33, 326.52 143.15 C 327.83 143.97, 329.13 144.81, 330.42 145.66 C 331.71 146.52, 332.99 147.40, 334.25 148.29 C 335.52 149.19, 336.77 150.10, 338.01 151.04 C 339.24 151.97, 340.46 152.93, 341.66 153.91 C 342.86 154.89, 344.05 155.89, 345.21 156.92 C 346.37 157.95, 347.51 159.00, 348.63 160.08 C 349.75 161.15, 350.84 162.25, 351.91 163.38 C 352.98 164.50, 354.03 165.65, 355.05 166.81 C 356.08 167.98, 357.07 169.17, 358.05 170.37 C 359.03 171.57, 359.98 172.80, 360.91 174.04 C 361.84 175.27, 362.75 176.52, 363.65 177.79 C 364.54 179.05, 365.42 180.33, 366.28 181.62 C 367.14 182.90, 367.98 184.20, 368.80 185.51 C 369.63 186.82, 370.44 188.14, 371.23 189.47 C 372.02 190.80, 372.80 192.14, 373.55 193.50 C 374.30 194.85, 375.03 196.22, 375.74 197.60 C 376.45 198.98, 377.13 200.37, 377.78 201.78 C 378.44 203.18, 379.06 204.61, 379.66 206.04 C 380.26 207.47, 380.82 208.92, 381.36 210.37 C 381.89 211.83, 382.40 213.30, 382.87 214.78 C 383.35 216.25, 383.79 217.74, 384.21 219.24 C 384.63 220.73, 385.01 222.23, 385.38 223.74 C 385.74 225.25, 386.08 226.76, 386.40 228.28 C 386.72 229.80, 387.01 231.32, 387.28 232.85 C 387.56 234.38, 387.81 235.91, 388.05 237.44 C 388.28 238.98, 388.50 240.51, 388.70 242.05 C 388.90 243.59, 389.08 245.14, 389.24 246.68 C 389.40 248.23, 389.55 249.78, 389.67 251.33 C 389.79 252.89, 389.91 255.22, 389.95 256.00 C 389.99 256.78, 389.90 255.22, 389.91 256.00 Z" stroke-width="3.60" opacity="0.50"/>
  </g>
</svg>