<svg width="512" height="512" viewBox="0 0 512 512" fill="none" xmlns="http://www.w3.org/2000/svg">
  <!-- Background -->
  <rect width="512" height="512" fill="#FDFBF7"/>
  
  <!-- Organic wavy rings - hand-crafted to match the flowing aesthetic -->
  <g stroke="#1a1a1a" fill="none" stroke-linecap="round" stroke-linejoin="round">
    
    <!-- Ring 1 - Outermost (most wavy, lowest opacity) -->
    <path d="M256 58 
      C320 55, 385 95, 420 145 
      C458 198, 462 265, 448 320 
      C432 380, 385 430, 325 452 
      C268 472, 195 468, 140 435 
      C82 400, 52 340, 50 275 
      C48 210, 72 145, 120 100 
      C168 55, 210 60, 256 58Z" 
      stroke-width="1.2" opacity="0.12"/>
    
    <!-- Ring 2 -->
    <path d="M256 85 
      C310 82, 365 115, 395 158 
      C428 205, 435 260, 422 310 
      C408 362, 368 405, 315 425 
      C265 443, 200 440, 152 410 
      C102 378, 78 325, 78 268 
      C78 212, 98 158, 140 118 
      C182 78, 218 87, 256 85Z" 
      stroke-width="1.2" opacity="0.18"/>
    
    <!-- Ring 3 -->
    <path d="M256 112 
      C302 108, 348 135, 375 172 
      C404 212, 412 260, 400 305 
      C388 352, 355 392, 305 410 
      C258 426, 202 422, 158 395 
      C112 367, 92 320, 92 268 
      C92 218, 110 170, 145 138 
      C180 106, 215 115, 256 112Z" 
      stroke-width="1.2" opacity="0.25"/>
    
    <!-- Ring 4 -->
    <path d="M256 140 
      C295 136, 335 158, 358 190 
      C382 224, 390 265, 380 305 
      C370 345, 342 380, 298 395 
      C255 410, 205 405, 165 380 
      C125 355, 108 315, 108 268 
      C108 222, 125 180, 155 152 
      C185 124, 220 142, 256 140Z" 
      stroke-width="1.2" opacity="0.35"/>
    
    <!-- Ring 5 -->
    <path d="M256 168 
      C288 165, 322 182, 342 210 
      C362 240, 368 275, 360 308 
      C352 342, 328 372, 292 385 
      C256 398, 212 394, 178 372 
      C144 350, 128 315, 128 270 
      C128 228, 142 190, 168 166 
      C194 142, 226 170, 256 168Z" 
      stroke-width="1.3" opacity="0.45"/>
    
    <!-- Ring 6 -->
    <path d="M256 195 
      C282 192, 310 206, 328 230 
      C346 255, 352 285, 345 312 
      C338 340, 318 365, 288 376 
      C258 387, 222 384, 192 365 
      C162 346, 148 318, 148 272 
      C148 235, 162 202, 185 182 
      C208 162, 232 197, 256 195Z" 
      stroke-width="1.3" opacity="0.55"/>
    
    <!-- Ring 7 -->
    <path d="M256 218 
      C278 215, 302 228, 318 248 
      C334 270, 340 295, 334 318 
      C328 342, 310 362, 285 372 
      C260 382, 228 378, 202 362 
      C176 345, 162 320, 165 280 
      C168 245, 182 218, 205 202 
      C228 186, 238 220, 256 218Z" 
      stroke-width="1.4" opacity="0.65"/>
    
    <!-- Ring 8 -->
    <path d="M256 242 
      C275 240, 295 250, 308 268 
      C322 286, 326 308, 320 328 
      C314 348, 298 365, 276 372 
      C254 379, 228 376, 208 362 
      C188 348, 178 325, 182 295 
      C186 268, 200 248, 220 238 
      C240 228, 242 244, 256 242Z" 
      stroke-width="1.4" opacity="0.75"/>
    
    <!-- Ring 9 - Center (tightest, highest opacity) -->
    <path d="M256 268 
      C272 266, 288 275, 298 290 
      C308 306, 310 325, 304 340 
      C298 356, 284 368, 264 372 
      C244 376, 222 372, 206 358 
      C190 344, 185 325, 190 302 
      C195 282, 210 270, 230 266 
      C250 262, 244 270, 256 268Z" 
      stroke-width="1.5" opacity="0.85"/>

  </g>
</svg>
