<svg width="512" height="512" viewBox="0 0 512 512" fill="none" xmlns="http://www.w3.org/2000/svg">
  <rect width="512" height="512" fill="#FDFBF7"/>
  <g stroke="#1a1a1a" fill="none" stroke-linecap="round" stroke-linejoin="round">
    <path d="M 562.50 256.00 C 561.52 257.78, 562.86 263.15, 562.61 266.71 C 562.36 270.26, 561.69 273.81, 560.99 277.33 C 560.29 280.84, 559.25 284.31, 558.42 287.79 C 557.60 291.26, 556.77 294.71, 556.03 298.17 C 555.29 301.63, 554.72 305.10, 553.98 308.54 C 553.24 311.99, 552.55 315.44, 551.59 318.83 C 550.62 322.21, 549.48 325.57, 548.18 328.85 C 546.88 332.13, 545.53 335.41, 543.79 338.52 C 542.06 341.64, 540.05 344.68, 537.77 347.55 C 535.49 350.43, 532.76 353.12, 530.12 355.77 C 527.48 358.42, 524.51 360.88, 521.94 363.45 C 519.36 366.01, 516.75 368.47, 514.67 371.17 C 512.60 373.87, 510.80 376.60, 509.47 379.63 C 508.15 382.65, 507.35 385.89, 506.72 389.31 C 506.09 392.73, 506.03 396.48, 505.71 400.17 C 505.38 403.86, 505.32 407.77, 504.78 411.45 C 504.24 415.14, 503.64 418.88, 502.48 422.25 C 501.32 425.62, 499.82 428.87, 497.81 431.68 C 495.79 434.50, 493.18 436.93, 490.39 439.13 C 487.59 441.32, 484.20 443.03, 481.04 444.83 C 477.87 446.63, 474.44 448.13, 471.40 449.94 C 468.36 451.76, 465.46 453.61, 462.79 455.70 C 460.13 457.79, 457.80 460.15, 455.42 462.50 C 453.04 464.86, 450.84 467.39, 448.52 469.81 C 446.20 472.24, 443.88 474.69, 441.48 477.05 C 439.08 479.40, 436.61 481.71, 434.09 483.95 C 431.58 486.19, 428.96 488.32, 426.38 490.50 C 423.79 492.69, 421.23 494.92, 418.59 497.05 C 415.95 499.18, 413.32 501.37, 410.51 503.27 C 407.70 505.16, 404.77 506.91, 401.75 508.44 C 398.72 509.97, 395.53 511.23, 392.36 512.45 C 389.18 513.66, 385.88 514.62, 382.68 515.73 C 379.48 516.84, 376.25 517.82, 373.14 519.11 C 370.04 520.39, 367.01 521.78, 364.06 523.45 C 361.11 525.13, 358.30 527.16, 355.43 529.18 C 352.56 531.20, 349.78 533.58, 346.84 535.58 C 343.90 537.58, 340.91 539.62, 337.78 541.19 C 334.65 542.76, 331.38 544.04, 328.05 544.99 C 324.73 545.94, 321.26 546.42, 317.83 546.90 C 314.40 547.37, 310.90 547.47, 307.46 547.86 C 304.03 548.25, 300.60 548.55, 297.21 549.22 C 293.82 549.90, 290.48 550.84, 287.10 551.89 C 283.72 552.94, 280.36 554.32, 276.95 555.53 C 273.53 556.74, 270.08 558.00, 266.59 559.16 C 263.10 560.33, 259.56 561.74, 256.00 562.52 C 252.44 563.31, 248.81 564.01, 245.25 563.89 C 241.68 563.77, 238.09 563.05, 234.62 561.81 C 231.14 560.58, 227.73 558.51, 224.42 556.50 C 221.10 554.50, 217.90 551.93, 214.71 549.76 C 211.53 547.60, 208.42 545.46, 205.30 543.52 C 202.19 541.58, 199.16 539.60, 196.03 538.13 C 192.90 536.67, 189.77 535.51, 186.51 534.73 C 183.24 533.95, 179.87 533.71, 176.44 533.45 C 173.01 533.20, 169.44 533.36, 165.94 533.17 C 162.44 532.99, 158.85 532.89, 155.42 532.33 C 152.00 531.76, 148.62 530.91, 145.38 529.78 C 142.15 528.65, 139.07 527.06, 135.99 525.54 C 132.91 524.02, 129.90 522.35, 126.91 520.68 C 123.91 519.00, 120.93 517.31, 118.02 515.50 C 115.12 513.68, 112.27 511.77, 109.48 509.79 C 106.68 507.81, 103.93 505.77, 101.28 503.61 C 98.62 501.45, 96.04 499.19, 93.55 496.84 C 91.06 494.50, 88.70 491.98, 86.33 489.53 C 83.96 487.07, 81.72 484.50, 79.34 482.12 C 76.96 479.73, 74.60 477.38, 72.07 475.20 C 69.54 473.03, 66.85 471.07, 64.17 469.05 C 61.49 467.03, 58.66 465.17, 56.00 463.10 C 53.35 461.03, 50.78 458.85, 48.24 456.64 C 45.69 454.42, 43.23 452.12, 40.72 449.84 C 38.22 447.56, 35.68 445.29, 33.19 442.96 C 30.70 440.63, 28.16 438.32, 25.78 435.87 C 23.39 433.42, 21.07 430.90, 18.89 428.27 C 16.71 425.64, 14.72 422.87, 12.69 420.11 C 10.67 417.36, 8.78 414.51, 6.75 411.75 C 4.72 408.98, 2.57 406.28, 0.51 403.51 C -1.56 400.74, -3.77 398.02, -5.63 395.11 C -7.49 392.20, -9.21 389.18, -10.64 386.05 C -12.08 382.92, -13.20 379.62, -14.25 376.32 C -15.30 373.03, -16.04 369.61, -16.96 366.28 C -17.88 362.96, -18.64 359.60, -19.79 356.38 C -20.94 353.15, -22.18 350.00, -23.85 346.93 C -25.51 343.86, -27.58 340.92, -29.78 337.94 C -31.97 334.97, -34.54 332.06, -37.00 329.05 C -39.46 326.04, -42.07 323.01, -44.56 319.89 C -47.04 316.76, -49.82 313.61, -51.92 310.30 C -54.03 306.98, -56.04 303.55, -57.18 300.01 C -58.32 296.48, -58.84 292.77, -58.75 289.08 C -58.66 285.39, -57.68 281.58, -56.62 277.86 C -55.56 274.14, -53.84 270.41, -52.38 266.77 C -50.91 263.13, -49.30 259.54, -47.82 256.00 C -46.35 252.46, -44.67 249.00, -43.53 245.54 C -42.39 242.08, -41.49 238.68, -40.96 235.23 C -40.43 231.79, -40.42 228.34, -40.37 224.85 C -40.32 221.36, -40.68 217.82, -40.66 214.31 C -40.63 210.79, -40.70 207.23, -40.23 203.77 C -39.76 200.31, -38.99 196.86, -37.83 193.54 C -36.67 190.23, -34.92 187.04, -33.26 183.88 C -31.60 180.72, -29.50 177.72, -27.88 174.60 C -26.25 171.48, -24.75 168.39, -23.52 165.18 C -22.29 161.97, -21.42 158.68, -20.52 155.36 C -19.61 152.04, -18.99 148.60, -18.09 145.26 C -17.19 141.92, -16.34 138.52, -15.11 135.30 C -13.87 132.07, -12.45 128.90, -10.68 125.93 C -8.90 122.97, -6.73 120.18, -4.48 117.50 C -2.22 114.82, 0.50 112.42, 2.85 109.85 C 5.21 107.27, 7.74 104.87, 9.65 102.06 C 11.56 99.25, 13.08 96.26, 14.31 92.98 C 15.54 89.70, 16.17 86.01, 17.01 82.36 C 17.84 78.71, 18.30 74.71, 19.33 71.09 C 20.36 67.47, 21.45 63.79, 23.19 60.65 C 24.92 57.51, 27.12 54.66, 29.73 52.26 C 32.34 49.87, 35.54 47.97, 38.85 46.30 C 42.16 44.63, 45.89 43.40, 49.57 42.24 C 53.25 41.08, 57.18 40.25, 60.93 39.36 C 64.69 38.46, 68.62 37.89, 72.11 36.85 C 75.60 35.81, 78.93 34.74, 81.86 33.11 C 84.79 31.49, 87.31 29.45, 89.68 27.08 C 92.04 24.70, 93.97 21.75, 96.04 18.85 C 98.11 15.95, 99.95 12.63, 102.09 9.69 C 104.24 6.76, 106.44 3.79, 108.91 1.23 C 111.37 -1.33, 114.08 -3.58, 116.87 -5.67 C 119.65 -7.76, 122.63 -9.56, 125.62 -11.31 C 128.61 -13.07, 131.65 -14.80, 134.80 -16.22 C 137.95 -17.65, 141.23 -18.83, 144.54 -19.87 C 147.85 -20.92, 151.31 -21.54, 154.64 -22.49 C 157.97 -23.44, 161.31 -24.24, 164.51 -25.57 C 167.71 -26.91, 170.79 -28.55, 173.85 -30.51 C 176.91 -32.46, 179.83 -34.96, 182.88 -37.28 C 185.93 -39.61, 188.96 -42.26, 192.14 -44.44 C 195.33 -46.61, 198.62 -48.65, 201.98 -50.34 C 205.35 -52.02, 208.81 -53.65, 212.35 -54.56 C 215.90 -55.46, 219.57 -55.89, 223.23 -55.77 C 226.89 -55.65, 230.65 -54.80, 234.33 -53.85 C 238.01 -52.90, 241.70 -51.32, 245.31 -50.05 C 248.92 -48.77, 252.47 -47.22, 256.00 -46.19 C 259.53 -45.16, 262.98 -44.31, 266.47 -43.86 C 269.96 -43.41, 273.43 -43.45, 276.94 -43.51 C 280.46 -43.56, 283.97 -43.81, 287.55 -44.18 C 291.13 -44.56, 294.77 -45.34, 298.41 -45.74 C 302.04 -46.14, 305.77 -46.75, 309.35 -46.57 C 312.94 -46.40, 316.52 -45.84, 319.92 -44.71 C 323.32 -43.59, 326.58 -41.72, 329.75 -39.80 C 332.92 -37.88, 335.91 -35.37, 338.92 -33.19 C 341.94 -31.00, 344.87 -28.73, 347.85 -26.68 C 350.83 -24.64, 353.80 -22.74, 356.79 -20.92 C 359.78 -19.09, 362.79 -17.43, 365.80 -15.76 C 368.80 -14.09, 371.86 -12.57, 374.83 -10.89 C 377.80 -9.21, 380.75 -7.50, 383.63 -5.67 C 386.50 -3.85, 389.29 -1.86, 392.09 0.05 C 394.89 1.97, 397.62 3.97, 400.44 5.83 C 403.25 7.69, 406.09 9.46, 408.97 11.19 C 411.85 12.93, 414.81 14.54, 417.71 16.25 C 420.62 17.97, 423.47 19.76, 426.39 21.48 C 429.31 23.20, 432.26 24.90, 435.23 26.59 C 438.21 28.29, 441.30 29.87, 444.25 31.65 C 447.21 33.42, 450.25 35.16, 452.98 37.24 C 455.70 39.32, 458.40 41.50, 460.61 44.12 C 462.82 46.74, 464.68 49.77, 466.25 52.96 C 467.83 56.15, 468.90 59.79, 470.04 63.28 C 471.17 66.77, 471.95 70.48, 473.05 73.87 C 474.15 77.27, 475.21 80.59, 476.62 83.64 C 478.02 86.69, 479.65 89.49, 481.49 92.17 C 483.33 94.86, 485.46 97.30, 487.65 99.75 C 489.84 102.21, 492.25 104.51, 494.61 106.90 C 496.96 109.29, 499.37 111.68, 501.78 114.10 C 504.20 116.52, 506.69 118.93, 509.10 121.43 C 511.50 123.92, 513.89 126.47, 516.20 129.09 C 518.51 131.71, 520.76 134.40, 522.95 137.15 C 525.14 139.89, 527.27 142.70, 529.35 145.56 C 531.43 148.42, 533.43 151.34, 535.45 154.29 C 537.47 157.24, 539.43 160.23, 541.49 163.24 C 543.54 166.25, 545.65 169.27, 547.80 172.33 C 549.94 175.39, 552.24 178.45, 554.35 181.61 C 556.47 184.77, 558.61 187.98, 560.48 191.28 C 562.36 194.58, 564.19 197.95, 565.60 201.41 C 567.01 204.87, 568.20 208.42, 568.94 212.02 C 569.69 215.62, 569.97 219.31, 570.05 222.99 C 570.13 226.67, 569.69 230.40, 569.44 234.08 C 569.18 237.76, 568.70 241.43, 568.54 245.09 C 568.38 248.74, 569.47 254.18, 568.46 256.00 C 567.45 257.82, 563.47 254.22, 562.50 256.00 Z" stroke-width="1.47" opacity="0.15"/>
    <path d="M 516.69 256.00 C 516.41 257.53, 518.93 262.12, 519.65 265.21 C 520.37 268.30, 520.86 271.43, 521.01 274.53 C 521.16 277.63, 520.90 280.74, 520.55 283.80 C 520.19 286.87, 519.47 289.91, 518.89 292.95 C 518.31 295.98, 517.55 298.98, 517.05 302.03 C 516.55 305.08, 516.11 308.12, 515.90 311.24 C 515.69 314.37, 515.75 317.55, 515.78 320.77 C 515.81 323.99, 516.15 327.33, 516.09 330.58 C 516.03 333.83, 515.94 337.13, 515.42 340.29 C 514.90 343.45, 514.05 346.55, 512.98 349.53 C 511.90 352.52, 510.44 355.38, 508.97 358.21 C 507.49 361.03, 505.74 363.73, 504.14 366.48 C 502.54 369.23, 500.85 371.91, 499.36 374.69 C 497.87 377.48, 496.47 380.28, 495.22 383.20 C 493.97 386.11, 492.92 389.12, 491.84 392.16 C 490.76 395.20, 489.89 398.39, 488.75 401.44 C 487.60 404.48, 486.41 407.54, 484.96 410.44 C 483.51 413.33, 481.81 416.08, 480.05 418.78 C 478.29 421.48, 476.35 424.06, 474.41 426.64 C 472.47 429.22, 470.49 431.77, 468.42 434.24 C 466.36 436.72, 464.29 439.21, 462.01 441.49 C 459.73 443.78, 457.35 445.98, 454.76 447.94 C 452.17 449.89, 449.33 451.61, 446.46 453.22 C 443.58 454.84, 440.57 456.27, 437.54 457.62 C 434.50 458.96, 431.37 460.15, 428.25 461.28 C 425.14 462.42, 421.94 463.40, 418.82 464.40 C 415.70 465.40, 412.54 466.28, 409.51 467.29 C 406.48 468.30, 403.49 469.26, 400.66 470.46 C 397.83 471.67, 395.15 473.01, 392.54 474.52 C 389.94 476.03, 387.52 477.78, 385.05 479.53 C 382.59 481.28, 380.23 483.21, 377.76 485.00 C 375.29 486.78, 372.83 488.63, 370.25 490.25 C 367.68 491.88, 365.06 493.51, 362.30 494.74 C 359.53 495.98, 356.62 496.96, 353.64 497.67 C 350.67 498.38, 347.51 498.63, 344.44 499.00 C 341.38 499.37, 338.24 499.44, 335.25 499.91 C 332.26 500.38, 329.34 500.92, 326.49 501.82 C 323.64 502.72, 320.91 503.96, 318.16 505.30 C 315.40 506.64, 312.73 508.35, 309.96 509.85 C 307.19 511.35, 304.40 512.94, 301.54 514.30 C 298.69 515.65, 295.78 516.99, 292.82 517.99 C 289.86 518.99, 286.83 519.87, 283.78 520.30 C 280.73 520.73, 277.60 520.76, 274.50 520.60 C 271.41 520.43, 268.28 519.83, 265.20 519.32 C 262.11 518.81, 259.05 518.02, 256.00 517.55 C 252.95 517.08, 249.94 516.60, 246.90 516.51 C 243.86 516.42, 240.84 516.60, 237.75 517.02 C 234.66 517.43, 231.54 518.24, 228.36 519.00 C 225.18 519.75, 221.96 520.66, 218.68 521.56 C 215.40 522.46, 212.03 523.59, 208.67 524.40 C 205.31 525.21, 201.87 526.08, 198.52 526.42 C 195.17 526.76, 191.81 526.82, 188.57 526.46 C 185.33 526.10, 182.17 525.22, 179.08 524.24 C 176.00 523.26, 173.03 521.83, 170.04 520.56 C 167.05 519.29, 164.12 517.88, 161.14 516.64 C 158.15 515.39, 155.13 514.27, 152.14 513.07 C 149.14 511.87, 146.12 510.73, 143.17 509.42 C 140.23 508.10, 137.27 506.78, 134.47 505.17 C 131.68 503.55, 128.95 501.77, 126.40 499.75 C 123.84 497.72, 121.45 495.40, 119.16 493.02 C 116.86 490.64, 114.76 487.98, 112.61 485.46 C 110.47 482.95, 108.46 480.32, 106.31 477.92 C 104.17 475.52, 102.02 473.21, 99.74 471.07 C 97.46 468.93, 95.09 466.98, 92.64 465.09 C 90.18 463.21, 87.65 461.46, 85.01 459.77 C 82.38 458.09, 79.65 456.52, 76.83 454.99 C 74.01 453.46, 70.99 452.11, 68.09 450.58 C 65.20 449.05, 62.18 447.58, 59.45 445.81 C 56.72 444.03, 54.07 442.11, 51.72 439.94 C 49.36 437.77, 47.24 435.34, 45.32 432.78 C 43.40 430.23, 41.75 427.43, 40.20 424.60 C 38.65 421.77, 37.31 418.79, 36.03 415.82 C 34.76 412.84, 33.62 409.78, 32.54 406.73 C 31.46 403.67, 30.54 400.55, 29.55 397.50 C 28.55 394.46, 27.69 391.38, 26.58 388.46 C 25.46 385.54, 24.25 382.71, 22.85 379.97 C 21.46 377.22, 19.83 374.62, 18.19 371.99 C 16.56 369.35, 14.70 366.82, 13.03 364.18 C 11.37 361.53, 9.61 358.89, 8.21 356.11 C 6.81 353.33, 5.52 350.47, 4.61 347.50 C 3.70 344.53, 3.10 341.42, 2.75 338.28 C 2.41 335.15, 2.51 331.87, 2.55 328.68 C 2.59 325.48, 2.98 322.22, 2.97 319.09 C 2.95 315.96, 2.86 312.90, 2.48 309.89 C 2.10 306.88, 1.39 303.96, 0.69 301.02 C -0.00 298.07, -0.99 295.17, -1.69 292.22 C -2.40 289.26, -3.17 286.29, -3.55 283.28 C -3.93 280.27, -4.11 277.22, -3.96 274.18 C -3.80 271.14, -3.27 268.06, -2.61 265.03 C -1.95 262.00, -0.90 258.98, 0.02 256.00 C 0.94 253.02, 2.06 250.09, 2.89 247.16 C 3.72 244.24, 4.47 241.35, 4.99 238.45 C 5.52 235.54, 5.82 232.65, 6.02 229.73 C 6.23 226.80, 6.22 223.86, 6.24 220.90 C 6.27 217.94, 6.15 214.94, 6.17 211.95 C 6.18 208.95, 6.18 205.93, 6.33 202.93 C 6.49 199.93, 6.75 196.93, 7.09 193.94 C 7.43 190.95, 8.02 188.02, 8.35 184.99 C 8.69 181.96, 9.03 178.94, 9.07 175.77 C 9.11 172.60, 8.81 169.30, 8.59 165.95 C 8.37 162.61, 7.88 159.11, 7.76 155.70 C 7.64 152.30, 7.51 148.81, 7.88 145.53 C 8.25 142.25, 8.88 139.00, 9.98 136.01 C 11.08 133.02, 12.65 130.20, 14.48 127.58 C 16.31 124.96, 18.64 122.60, 20.97 120.30 C 23.29 118.01, 25.97 115.94, 28.44 113.81 C 30.92 111.67, 33.47 109.64, 35.82 107.49 C 38.18 105.34, 40.39 103.15, 42.55 100.92 C 44.72 98.69, 46.74 96.40, 48.81 94.12 C 50.87 91.85, 52.90 89.57, 54.94 87.29 C 56.98 85.02, 59.05 82.78, 61.06 80.47 C 63.06 78.17, 65.06 75.87, 66.98 73.47 C 68.90 71.07, 70.74 68.58, 72.59 66.07 C 74.44 63.56, 76.20 60.94, 78.08 58.40 C 79.96 55.86, 81.87 53.32, 83.85 50.84 C 85.83 48.35, 87.92 45.97, 89.96 43.48 C 92.01 41.00, 94.03 38.45, 96.10 35.91 C 98.17 33.37, 100.19 30.72, 102.38 28.24 C 104.56 25.77, 106.78 23.28, 109.19 21.05 C 111.59 18.82, 114.11 16.71, 116.79 14.88 C 119.47 13.05, 122.31 11.44, 125.25 10.10 C 128.20 8.75, 131.30 7.67, 134.46 6.80 C 137.61 5.93, 140.90 5.34, 144.18 4.86 C 147.47 4.38, 150.85 4.20, 154.15 3.91 C 157.45 3.62, 160.80 3.61, 163.97 3.14 C 167.14 2.66, 170.21 2.11, 173.17 1.07 C 176.12 0.02, 178.91 -1.44, 181.69 -3.13 C 184.48 -4.83, 187.14 -7.04, 189.90 -9.12 C 192.66 -11.20, 195.39 -13.62, 198.27 -15.60 C 201.15 -17.58, 204.10 -19.53, 207.16 -20.98 C 210.22 -22.44, 213.40 -23.54, 216.60 -24.33 C 219.81 -25.13, 223.11 -25.37, 226.39 -25.75 C 229.66 -26.13, 232.95 -26.27, 236.24 -26.61 C 239.52 -26.95, 242.80 -27.36, 246.09 -27.79 C 249.38 -28.22, 252.68 -28.79, 256.00 -29.17 C 259.32 -29.55, 262.66 -29.99, 265.99 -30.06 C 269.32 -30.13, 272.68 -30.08, 275.97 -29.59 C 279.27 -29.11, 282.56 -28.30, 285.76 -27.14 C 288.96 -25.99, 292.10 -24.35, 295.16 -22.65 C 298.22 -20.94, 301.16 -18.71, 304.12 -16.89 C 307.07 -15.06, 309.94 -13.13, 312.90 -11.69 C 315.86 -10.25, 318.84 -9.16, 321.88 -8.24 C 324.93 -7.31, 328.06 -6.83, 331.17 -6.16 C 334.29 -5.50, 337.49 -5.08, 340.55 -4.23 C 343.62 -3.39, 346.70 -2.48, 349.58 -1.10 C 352.45 0.27, 355.22 2.02, 357.81 4.02 C 360.40 6.02, 362.78 8.50, 365.12 10.91 C 367.46 13.32, 369.58 16.10, 371.84 18.48 C 374.11 20.87, 376.29 23.27, 378.70 25.23 C 381.12 27.18, 383.65 28.82, 386.35 30.23 C 389.04 31.65, 391.97 32.63, 394.90 33.71 C 397.83 34.79, 400.97 35.58, 403.91 36.72 C 406.85 37.85, 409.84 39.00, 412.54 40.53 C 415.24 42.07, 417.81 43.87, 420.11 45.95 C 422.41 48.03, 424.47 50.44, 426.33 53.01 C 428.19 55.57, 429.75 58.48, 431.27 61.35 C 432.78 64.21, 434.03 67.31, 435.42 70.21 C 436.80 73.11, 438.08 76.03, 439.56 78.73 C 441.05 81.43, 442.64 83.97, 444.35 86.41 C 446.07 88.84, 447.93 91.10, 449.83 93.35 C 451.74 95.60, 453.73 97.77, 455.79 99.91 C 457.85 102.05, 459.94 104.16, 462.21 106.18 C 464.48 108.20, 466.84 110.16, 469.41 112.05 C 471.98 113.94, 474.77 115.71, 477.64 117.51 C 480.50 119.31, 483.49 121.08, 486.63 122.85 C 489.77 124.62, 493.21 126.29, 496.47 128.14 C 499.73 129.99, 503.25 131.82, 506.19 133.97 C 509.14 136.13, 512.00 138.44, 514.12 141.08 C 516.25 143.71, 517.89 146.65, 518.95 149.76 C 520.01 152.87, 520.35 156.31, 520.47 159.74 C 520.60 163.17, 520.09 166.80, 519.69 170.32 C 519.30 173.84, 518.70 177.37, 518.12 180.84 C 517.53 184.31, 516.97 187.72, 516.18 191.13 C 515.40 194.54, 514.32 197.96, 513.39 201.29 C 512.46 204.62, 511.29 207.92, 510.62 211.10 C 509.95 214.29, 509.39 217.37, 509.37 220.39 C 509.36 223.41, 509.79 226.32, 510.52 229.25 C 511.25 232.18, 512.54 235.04, 513.75 237.98 C 514.96 240.91, 516.52 243.85, 517.79 246.86 C 519.06 249.86, 521.55 254.48, 521.37 256.00 C 521.19 257.52, 516.98 254.47, 516.69 256.00 Z" stroke-width="1.59" opacity="0.21"/>
    <path d="M 495.77 256.00 C 496.16 257.41, 497.30 261.61, 497.87 264.45 C 498.44 267.28, 498.90 270.15, 499.20 273.01 C 499.49 275.87, 499.63 278.74, 499.65 281.61 C 499.68 284.47, 499.55 287.34, 499.35 290.20 C 499.15 293.06, 498.83 295.91, 498.45 298.75 C 498.07 301.59, 497.60 304.42, 497.07 307.24 C 496.53 310.06, 495.92 312.86, 495.23 315.65 C 494.54 318.43, 493.78 321.20, 492.92 323.94 C 492.07 326.67, 491.21 329.42, 490.10 332.06 C 488.99 334.71, 487.73 337.31, 486.26 339.81 C 484.79 342.30, 483.06 344.70, 481.27 347.02 C 479.48 349.34, 477.46 351.54, 475.51 353.73 C 473.55 355.92, 471.47 358.01, 469.53 360.15 C 467.60 362.28, 465.66 364.37, 463.91 366.55 C 462.15 368.72, 460.50 370.91, 459.00 373.20 C 457.50 375.49, 456.17 377.86, 454.89 380.28 C 453.61 382.70, 452.52 385.25, 451.31 387.74 C 450.10 390.23, 448.98 392.80, 447.62 395.22 C 446.27 397.64, 444.83 400.03, 443.20 402.26 C 441.57 404.48, 439.75 406.59, 437.85 408.59 C 435.94 410.59, 433.85 412.43, 431.76 414.26 C 429.68 416.08, 427.47 417.77, 425.34 419.53 C 423.21 421.28, 421.04 422.97, 418.99 424.78 C 416.94 426.59, 414.93 428.43, 413.03 430.40 C 411.13 432.38, 409.33 434.46, 407.58 436.64 C 405.82 438.83, 404.18 441.16, 402.51 443.52 C 400.83 445.88, 399.23 448.37, 397.52 450.79 C 395.82 453.21, 394.10 455.67, 392.27 458.03 C 390.44 460.38, 388.54 462.71, 386.54 464.91 C 384.55 467.12, 382.51 469.35, 380.29 471.28 C 378.07 473.20, 375.72 474.99, 373.23 476.47 C 370.73 477.95, 368.05 479.14, 365.34 480.18 C 362.62 481.22, 359.75 481.94, 356.93 482.70 C 354.12 483.47, 351.23 484.04, 348.43 484.77 C 345.62 485.49, 342.84 486.20, 340.09 487.03 C 337.34 487.86, 334.65 488.81, 331.94 489.73 C 329.23 490.65, 326.56 491.67, 323.83 492.56 C 321.11 493.45, 318.38 494.36, 315.60 495.05 C 312.82 495.73, 310.02 496.39, 307.16 496.67 C 304.30 496.95, 301.37 496.99, 298.44 496.72 C 295.52 496.45, 292.54 495.82, 289.60 495.05 C 286.66 494.28, 283.70 493.15, 280.81 492.09 C 277.93 491.03, 275.07 489.71, 272.27 488.71 C 269.48 487.70, 266.75 486.67, 264.03 486.05 C 261.32 485.43, 258.67 485.12, 256.00 485.01 C 253.33 484.91, 250.67 485.30, 247.99 485.40 C 245.31 485.49, 242.62 485.66, 239.94 485.60 C 237.27 485.55, 234.60 485.29, 231.92 485.06 C 229.25 484.84, 226.60 484.49, 223.92 484.26 C 221.24 484.02, 218.57 483.80, 215.86 483.66 C 213.15 483.53, 210.42 483.48, 207.66 483.44 C 204.90 483.40, 202.10 483.44, 199.29 483.43 C 196.48 483.42, 193.64 483.45, 190.80 483.38 C 187.96 483.31, 185.08 483.24, 182.23 483.04 C 179.38 482.83, 176.51 482.57, 173.69 482.15 C 170.87 481.72, 168.04 481.21, 165.31 480.46 C 162.58 479.71, 159.89 478.79, 157.31 477.66 C 154.73 476.52, 152.24 475.15, 149.83 473.67 C 147.42 472.20, 145.13 470.49, 142.86 468.79 C 140.58 467.10, 138.41 465.25, 136.20 463.50 C 133.99 461.75, 131.84 459.94, 129.60 458.29 C 127.35 456.63, 125.10 455.04, 122.74 453.57 C 120.37 452.11, 117.90 450.82, 115.41 449.50 C 112.93 448.18, 110.34 446.98, 107.84 445.64 C 105.33 444.30, 102.80 442.95, 100.38 441.46 C 97.97 439.96, 95.59 438.38, 93.34 436.65 C 91.09 434.93, 88.95 433.06, 86.90 431.11 C 84.86 429.15, 82.96 427.04, 81.08 424.92 C 79.20 422.81, 77.45 420.57, 75.62 418.42 C 73.79 416.26, 72.02 414.07, 70.11 411.98 C 68.21 409.88, 66.25 407.85, 64.20 405.85 C 62.14 403.86, 59.95 401.97, 57.77 400.02 C 55.59 398.08, 53.26 396.22, 51.12 394.20 C 48.98 392.17, 46.79 390.14, 44.92 387.90 C 43.04 385.67, 41.32 383.29, 39.86 380.79 C 38.40 378.29, 37.20 375.61, 36.15 372.89 C 35.11 370.18, 34.34 367.31, 33.59 364.48 C 32.84 361.64, 32.29 358.73, 31.63 355.90 C 30.98 353.06, 30.39 350.22, 29.67 347.44 C 28.95 344.67, 28.17 341.94, 27.33 339.23 C 26.49 336.52, 25.52 333.86, 24.62 331.18 C 23.71 328.50, 22.73 325.83, 21.90 323.13 C 21.06 320.42, 20.27 317.69, 19.60 314.94 C 18.93 312.19, 18.30 309.42, 17.88 306.61 C 17.47 303.81, 17.17 300.97, 17.11 298.12 C 17.05 295.27, 17.20 292.38, 17.52 289.52 C 17.84 286.65, 18.41 283.76, 19.04 280.91 C 19.66 278.06, 20.49 275.21, 21.28 272.41 C 22.07 269.61, 22.95 266.85, 23.77 264.11 C 24.59 261.37, 25.41 258.68, 26.20 256.00 C 26.99 253.32, 27.92 250.69, 28.52 248.06 C 29.11 245.42, 29.61 242.82, 29.78 240.18 C 29.96 237.54, 29.85 234.90, 29.59 232.20 C 29.33 229.50, 28.75 226.77, 28.23 223.99 C 27.70 221.21, 26.97 218.37, 26.44 215.52 C 25.91 212.68, 25.35 209.78, 25.07 206.91 C 24.79 204.05, 24.67 201.18, 24.76 198.34 C 24.84 195.51, 25.24 192.73, 25.57 189.93 C 25.91 187.12, 26.45 184.37, 26.77 181.52 C 27.10 178.67, 27.33 175.79, 27.52 172.84 C 27.70 169.89, 27.73 166.86, 27.89 163.84 C 28.04 160.81, 28.13 157.71, 28.45 154.69 C 28.77 151.66, 29.16 148.61, 29.83 145.69 C 30.50 142.77, 31.34 139.87, 32.46 137.14 C 33.58 134.41, 34.94 131.76, 36.55 129.30 C 38.17 126.84, 40.10 124.54, 42.17 122.38 C 44.24 120.23, 46.64 118.29, 48.99 116.37 C 51.33 114.45, 53.89 112.71, 56.24 110.87 C 58.59 109.02, 60.97 107.25, 63.11 105.30 C 65.25 103.34, 67.26 101.35, 69.08 99.15 C 70.89 96.96, 72.48 94.61, 74.01 92.13 C 75.53 89.66, 76.82 86.97, 78.20 84.30 C 79.59 81.64, 80.84 78.80, 82.33 76.16 C 83.83 73.53, 85.34 70.84, 87.16 68.48 C 88.97 66.12, 90.97 63.90, 93.22 62.01 C 95.47 60.12, 97.99 58.51, 100.64 57.14 C 103.28 55.78, 106.20 54.76, 109.09 53.79 C 111.97 52.82, 115.01 52.12, 117.94 51.32 C 120.87 50.52, 123.80 49.80, 126.64 48.99 C 129.49 48.17, 132.27 47.33, 135.00 46.43 C 137.74 45.53, 140.41 44.57, 143.05 43.57 C 145.69 42.57, 148.26 41.48, 150.85 40.41 C 153.44 39.35, 155.98 38.20, 158.58 37.19 C 161.18 36.17, 163.77 35.14, 166.44 34.34 C 169.11 33.53, 171.84 32.86, 174.60 32.35 C 177.35 31.83, 180.19 31.59, 182.97 31.25 C 185.76 30.91, 188.54 30.67, 191.28 30.30 C 194.02 29.93, 196.72 29.49, 199.41 29.01 C 202.09 28.53, 204.75 27.96, 207.42 27.44 C 210.09 26.92, 212.74 26.34, 215.43 25.89 C 218.11 25.44, 220.80 25.01, 223.50 24.76 C 226.21 24.52, 228.94 24.37, 231.66 24.43 C 234.39 24.48, 237.13 24.72, 239.85 25.09 C 242.58 25.46, 245.30 26.10, 247.99 26.67 C 250.68 27.24, 253.35 28.05, 256.00 28.53 C 258.65 29.01, 261.27 29.44, 263.91 29.57 C 266.55 29.69, 269.18 29.57, 271.85 29.30 C 274.53 29.04, 277.23 28.49, 279.96 28.00 C 282.70 27.50, 285.49 26.82, 288.28 26.34 C 291.07 25.86, 293.90 25.36, 296.71 25.13 C 299.51 24.91, 302.33 24.84, 305.10 24.99 C 307.88 25.13, 310.61 25.57, 313.34 26.02 C 316.07 26.47, 318.74 27.17, 321.46 27.70 C 324.19 28.23, 326.90 28.80, 329.69 29.21 C 332.48 29.61, 335.32 29.88, 338.21 30.13 C 341.10 30.38, 344.08 30.45, 347.03 30.70 C 349.97 30.95, 352.99 31.13, 355.90 31.63 C 358.80 32.13, 361.70 32.75, 364.43 33.68 C 367.17 34.61, 369.82 35.81, 372.33 37.21 C 374.84 38.61, 377.20 40.33, 379.51 42.07 C 381.83 43.81, 383.98 45.79, 386.20 47.64 C 388.42 49.49, 390.56 51.41, 392.81 53.16 C 395.07 54.92, 397.36 56.58, 399.74 58.16 C 402.12 59.74, 404.59 61.17, 407.08 62.62 C 409.58 64.07, 412.17 65.41, 414.72 66.84 C 417.27 68.27, 419.88 69.67, 422.38 71.21 C 424.89 72.75, 427.38 74.34, 429.75 76.07 C 432.12 77.80, 434.42 79.64, 436.61 81.59 C 438.79 83.53, 440.87 85.61, 442.86 87.75 C 444.85 89.89, 446.73 92.14, 448.57 94.41 C 450.42 96.68, 452.17 99.03, 453.93 101.36 C 455.69 103.70, 457.42 106.05, 459.14 108.41 C 460.87 110.77, 462.63 113.10, 464.28 115.51 C 465.94 117.92, 467.59 120.34, 469.06 122.86 C 470.54 125.38, 471.93 127.97, 473.16 130.62 C 474.39 133.28, 475.48 136.01, 476.42 138.80 C 477.36 141.59, 478.13 144.46, 478.78 147.34 C 479.44 150.23, 479.90 153.19, 480.34 156.12 C 480.78 159.05, 481.05 162.02, 481.44 164.92 C 481.83 167.81, 482.14 170.70, 482.65 173.50 C 483.17 176.31, 483.79 179.04, 484.55 181.74 C 485.31 184.44, 486.35 187.04, 487.23 189.70 C 488.11 192.36, 489.15 194.99, 489.83 197.70 C 490.52 200.41, 491.05 203.18, 491.35 205.98 C 491.64 208.77, 491.65 211.62, 491.62 214.45 C 491.59 217.28, 491.31 220.14, 491.17 222.95 C 491.04 225.76, 490.79 228.55, 490.80 231.32 C 490.81 234.09, 490.90 236.82, 491.25 239.55 C 491.61 242.28, 492.21 244.98, 492.92 247.73 C 493.63 250.47, 495.03 254.62, 495.51 256.00 C 495.98 257.38, 495.38 254.59, 495.77 256.00 Z" stroke-width="1.70" opacity="0.26"/>
    <path d="M 468.04 256.00 C 468.90 257.24, 469.38 260.96, 469.83 263.47 C 470.27 265.97, 470.60 268.50, 470.72 271.02 C 470.85 273.53, 470.76 276.05, 470.56 278.55 C 470.36 281.05, 469.95 283.54, 469.52 286.01 C 469.10 288.48, 468.52 290.93, 467.99 293.38 C 467.46 295.83, 466.86 298.26, 466.35 300.71 C 465.84 303.16, 465.36 305.61, 464.93 308.09 C 464.50 310.57, 464.16 313.07, 463.78 315.58 C 463.40 318.09, 463.04 320.61, 462.62 323.14 C 462.20 325.66, 461.74 328.18, 461.27 330.71 C 460.80 333.25, 460.36 335.81, 459.80 338.34 C 459.23 340.87, 458.66 343.42, 457.88 345.88 C 457.10 348.34, 456.21 350.79, 455.11 353.11 C 454.01 355.44, 452.71 357.69, 451.27 359.83 C 449.83 361.97, 448.17 364.00, 446.48 365.97 C 444.79 367.95, 442.92 369.80, 441.12 371.68 C 439.33 373.55, 437.47 375.36, 435.72 377.22 C 433.96 379.08, 432.27 380.96, 430.60 382.85 C 428.92 384.74, 427.31 386.66, 425.66 388.56 C 424.02 390.45, 422.37 392.34, 420.73 394.22 C 419.08 396.11, 417.41 397.97, 415.78 399.87 C 414.15 401.77, 412.51 403.65, 410.94 405.63 C 409.38 407.60, 407.84 409.60, 406.38 411.72 C 404.91 413.84, 403.55 416.06, 402.17 418.34 C 400.79 420.61, 399.50 423.01, 398.12 425.37 C 396.74 427.73, 395.39 430.18, 393.89 432.50 C 392.40 434.81, 390.86 437.15, 389.17 439.29 C 387.47 441.43, 385.66 443.49, 383.71 445.34 C 381.77 447.20, 379.66 448.88, 377.49 450.42 C 375.31 451.96, 372.99 453.30, 370.65 454.58 C 368.31 455.86, 365.88 456.98, 363.46 458.11 C 361.05 459.23, 358.59 460.27, 356.16 461.35 C 353.72 462.43, 351.29 463.50, 348.87 464.58 C 346.44 465.66, 344.03 466.79, 341.59 467.84 C 339.15 468.90, 336.72 470.01, 334.22 470.92 C 331.73 471.83, 329.19 472.67, 326.61 473.31 C 324.03 473.96, 321.39 474.43, 318.74 474.79 C 316.09 475.15, 313.39 475.31, 310.72 475.45 C 308.04 475.60, 305.35 475.59, 302.69 475.67 C 300.04 475.75, 297.39 475.76, 294.78 475.92 C 292.16 476.09, 289.58 476.29, 287.01 476.66 C 284.44 477.02, 281.90 477.52, 279.34 478.11 C 276.79 478.69, 274.25 479.48, 271.68 480.17 C 269.10 480.86, 266.51 481.74, 263.90 482.26 C 261.29 482.78, 258.64 483.21, 256.00 483.29 C 253.36 483.36, 250.70 483.14, 248.08 482.70 C 245.47 482.26, 242.86 481.48, 240.29 480.65 C 237.73 479.81, 235.20 478.71, 232.70 477.71 C 230.19 476.72, 227.74 475.60, 225.27 474.67 C 222.80 473.75, 220.36 472.87, 217.88 472.16 C 215.41 471.46, 212.92 470.94, 210.41 470.47 C 207.90 469.99, 205.35 469.72, 202.82 469.30 C 200.29 468.88, 197.74 468.49, 195.23 467.93 C 192.72 467.37, 190.22 466.74, 187.78 465.96 C 185.34 465.18, 182.92 464.27, 180.56 463.26 C 178.21 462.24, 175.90 461.08, 173.64 459.86 C 171.37 458.63, 169.17 457.27, 166.99 455.92 C 164.81 454.56, 162.69 453.11, 160.54 451.72 C 158.39 450.34, 156.29 448.92, 154.12 447.61 C 151.95 446.31, 149.76 445.06, 147.52 443.88 C 145.29 442.71, 142.97 441.66, 140.69 440.54 C 138.40 439.42, 136.05 438.38, 133.81 437.16 C 131.57 435.94, 129.34 434.66, 127.24 433.22 C 125.15 431.78, 123.14 430.19, 121.23 428.50 C 119.31 426.82, 117.52 424.98, 115.77 423.12 C 114.02 421.26, 112.38 419.28, 110.73 417.34 C 109.08 415.40, 107.48 413.42, 105.86 411.47 C 104.25 409.52, 102.63 407.59, 101.02 405.66 C 99.42 403.72, 97.79 401.82, 96.24 399.85 C 94.68 397.88, 93.14 395.91, 91.71 393.85 C 90.28 391.80, 88.94 389.67, 87.68 387.51 C 86.41 385.34, 85.29 383.09, 84.13 380.87 C 82.96 378.66, 81.87 376.42, 80.71 374.24 C 79.54 372.06, 78.34 369.91, 77.11 367.78 C 75.88 365.66, 74.59 363.57, 73.31 361.47 C 72.04 359.37, 70.74 357.29, 69.47 355.18 C 68.20 353.07, 66.93 350.96, 65.69 348.82 C 64.45 346.68, 63.21 344.54, 62.04 342.35 C 60.87 340.17, 59.72 337.97, 58.67 335.73 C 57.61 333.48, 56.61 331.21, 55.73 328.89 C 54.84 326.58, 54.07 324.22, 53.34 321.85 C 52.60 319.48, 51.98 317.08, 51.33 314.69 C 50.68 312.30, 50.05 309.90, 49.42 307.51 C 48.80 305.11, 48.16 302.71, 47.59 300.30 C 47.02 297.89, 46.45 295.47, 46.00 293.03 C 45.55 290.59, 45.14 288.14, 44.89 285.67 C 44.64 283.20, 44.48 280.72, 44.49 278.23 C 44.50 275.75, 44.66 273.24, 44.96 270.76 C 45.27 268.27, 45.76 265.78, 46.33 263.32 C 46.90 260.86, 47.69 258.42, 48.39 256.00 C 49.08 253.58, 49.96 251.20, 50.52 248.82 C 51.07 246.44, 51.54 244.10, 51.74 241.72 C 51.93 239.33, 51.87 236.96, 51.70 234.53 C 51.52 232.10, 51.07 229.64, 50.67 227.14 C 50.26 224.65, 49.68 222.10, 49.28 219.55 C 48.89 217.00, 48.46 214.41, 48.30 211.85 C 48.15 209.30, 48.12 206.73, 48.35 204.23 C 48.57 201.72, 49.06 199.26, 49.65 196.83 C 50.23 194.40, 51.07 192.04, 51.85 189.67 C 52.62 187.29, 53.47 184.95, 54.30 182.59 C 55.13 180.23, 55.98 177.88, 56.82 175.53 C 57.66 173.17, 58.51 170.81, 59.37 168.45 C 60.23 166.09, 61.08 163.73, 61.98 161.37 C 62.87 159.01, 63.77 156.64, 64.74 154.30 C 65.71 151.97, 66.71 149.63, 67.82 147.35 C 68.93 145.08, 70.11 142.82, 71.41 140.65 C 72.71 138.48, 74.13 136.38, 75.62 134.33 C 77.11 132.29, 78.74 130.34, 80.35 128.38 C 81.96 126.43, 83.65 124.55, 85.27 122.61 C 86.90 120.68, 88.50 118.74, 90.09 116.78 C 91.68 114.83, 93.24 112.84, 94.83 110.88 C 96.43 108.92, 98.02 106.95, 99.66 105.02 C 101.29 103.09, 102.96 101.17, 104.66 99.28 C 106.35 97.39, 108.08 95.52, 109.85 93.68 C 111.61 91.84, 113.39 90.01, 115.24 88.24 C 117.08 86.48, 118.94 84.72, 120.90 83.08 C 122.86 81.44, 124.87 79.85, 126.98 78.41 C 129.09 76.98, 131.30 75.67, 133.57 74.49 C 135.84 73.30, 138.23 72.30, 140.60 71.32 C 142.97 70.33, 145.41 69.49, 147.80 68.58 C 150.18 67.67, 152.57 66.82, 154.90 65.86 C 157.23 64.89, 159.52 63.89, 161.76 62.79 C 164.01 61.68, 166.20 60.47, 168.39 59.22 C 170.58 57.97, 172.72 56.59, 174.90 55.28 C 177.09 53.96, 179.26 52.57, 181.51 51.34 C 183.76 50.11, 186.04 48.90, 188.38 47.89 C 190.73 46.88, 193.14 46.02, 195.58 45.29 C 198.02 44.55, 200.52 44.02, 203.01 43.48 C 205.50 42.94, 208.01 42.43, 210.52 42.05 C 213.04 41.67, 215.58 41.39, 218.12 41.18 C 220.66 40.98, 223.22 40.91, 225.76 40.81 C 228.30 40.71, 230.83 40.69, 233.36 40.60 C 235.89 40.51, 238.40 40.42, 240.91 40.27 C 243.43 40.11, 245.93 39.91, 248.45 39.69 C 250.96 39.48, 253.47 39.19, 256.00 38.97 C 258.53 38.74, 261.06 38.49, 263.60 38.33 C 266.14 38.18, 268.69 38.05, 271.24 38.04 C 273.79 38.03, 276.35 38.08, 278.88 38.28 C 281.42 38.48, 283.96 38.81, 286.46 39.24 C 288.97 39.67, 291.46 40.25, 293.94 40.85 C 296.41 41.46, 298.85 42.19, 301.30 42.87 C 303.75 43.55, 306.17 44.30, 308.63 44.93 C 311.08 45.56, 313.52 46.17, 316.03 46.64 C 318.54 47.10, 321.07 47.47, 323.68 47.72 C 326.28 47.97, 328.95 48.04, 331.65 48.14 C 334.36 48.25, 337.12 48.26, 339.91 48.32 C 342.69 48.39, 345.53 48.43, 348.36 48.55 C 351.20 48.67, 354.11 48.75, 356.94 49.05 C 359.77 49.35, 362.63 49.70, 365.34 50.35 C 368.06 51.01, 370.73 51.84, 373.21 52.99 C 375.69 54.13, 378.04 55.56, 380.22 57.20 C 382.40 58.84, 384.40 60.80, 386.29 62.83 C 388.18 64.87, 389.89 67.15, 391.58 69.39 C 393.26 71.64, 394.82 74.00, 396.40 76.30 C 397.97 78.59, 399.49 80.91, 401.03 83.17 C 402.56 85.42, 404.07 87.66, 405.61 89.84 C 407.16 92.02, 408.72 94.14, 410.27 96.24 C 411.83 98.35, 413.42 100.40, 414.97 102.48 C 416.52 104.56, 418.06 106.64, 419.56 108.73 C 421.07 110.82, 422.54 112.93, 424.01 115.03 C 425.48 117.12, 426.93 119.22, 428.38 121.32 C 429.83 123.42, 431.31 125.49, 432.70 127.62 C 434.09 129.75, 435.46 131.89, 436.74 134.09 C 438.01 136.29, 439.21 138.54, 440.34 140.81 C 441.47 143.09, 442.52 145.40, 443.51 147.74 C 444.50 150.08, 445.42 152.45, 446.27 154.83 C 447.13 157.21, 447.91 159.63, 448.64 162.04 C 449.38 164.46, 450.03 166.90, 450.68 169.32 C 451.33 171.75, 451.90 174.19, 452.54 176.59 C 453.17 179.00, 453.79 181.39, 454.47 183.76 C 455.16 186.13, 455.92 188.46, 456.65 190.80 C 457.38 193.15, 458.20 195.47, 458.84 197.84 C 459.47 200.21, 460.06 202.60, 460.47 205.02 C 460.87 207.44, 461.13 209.91, 461.28 212.37 C 461.43 214.83, 461.40 217.32, 461.37 219.79 C 461.34 222.26, 461.17 224.73, 461.10 227.18 C 461.03 229.62, 460.91 232.05, 460.97 234.46 C 461.03 236.87, 461.15 239.25, 461.44 241.63 C 461.74 244.02, 462.21 246.39, 462.75 248.78 C 463.29 251.17, 463.80 254.80, 464.69 256.00 C 465.57 257.20, 467.18 254.76, 468.04 256.00 Z" stroke-width="1.82" opacity="0.32"/>
    <path d="M 454.61 256.00 C 454.61 257.16, 455.11 260.64, 455.19 262.96 C 455.27 265.28, 455.24 267.61, 455.08 269.92 C 454.93 272.23, 454.61 274.54, 454.26 276.84 C 453.91 279.13, 453.42 281.41, 452.98 283.68 C 452.54 285.96, 452.03 288.22, 451.61 290.49 C 451.19 292.77, 450.79 295.04, 450.47 297.34 C 450.15 299.64, 449.91 301.95, 449.67 304.29 C 449.44 306.63, 449.29 308.99, 449.08 311.36 C 448.86 313.73, 448.66 316.12, 448.36 318.50 C 448.07 320.88, 447.71 323.26, 447.31 325.63 C 446.90 328.00, 446.48 330.39, 445.96 332.75 C 445.43 335.11, 444.88 337.48, 444.16 339.77 C 443.44 342.07, 442.61 344.35, 441.61 346.53 C 440.61 348.71, 439.45 350.83, 438.16 352.86 C 436.87 354.88, 435.39 356.82, 433.87 358.69 C 432.34 360.57, 430.67 362.35, 429.01 364.11 C 427.35 365.87, 425.61 367.56, 423.91 369.26 C 422.21 370.96, 420.51 372.63, 418.82 374.30 C 417.14 375.97, 415.48 377.64, 413.79 379.28 C 412.10 380.92, 410.44 382.56, 408.70 384.13 C 406.96 385.69, 405.19 387.23, 403.34 388.67 C 401.50 390.11, 399.58 391.47, 397.62 392.76 C 395.66 394.05, 393.63 395.25, 391.60 396.42 C 389.58 397.59, 387.50 398.68, 385.46 399.78 C 383.42 400.87, 381.36 401.92, 379.35 403.00 C 377.34 404.09, 375.35 405.15, 373.41 406.28 C 371.47 407.41, 369.57 408.55, 367.72 409.78 C 365.87 411.00, 364.08 412.27, 362.31 413.61 C 360.54 414.95, 358.83 416.37, 357.12 417.83 C 355.41 419.29, 353.75 420.84, 352.05 422.37 C 350.35 423.90, 348.66 425.46, 346.92 427.00 C 345.19 428.55, 343.44 430.09, 341.66 431.62 C 339.87 433.15, 338.08 434.71, 336.21 436.16 C 334.35 437.62, 332.46 439.07, 330.48 440.35 C 328.51 441.63, 326.48 442.84, 324.38 443.86 C 322.28 444.88, 320.10 445.75, 317.88 446.45 C 315.66 447.15, 313.37 447.66, 311.07 448.05 C 308.77 448.45, 306.41 448.65, 304.08 448.82 C 301.74 448.99, 299.37 449.01, 297.04 449.05 C 294.70 449.10, 292.36 449.10, 290.04 449.07 C 287.72 449.03, 285.41 449.02, 283.10 448.86 C 280.80 448.70, 278.49 448.45, 276.19 448.13 C 273.90 447.81, 271.61 447.35, 269.35 446.94 C 267.09 446.53, 264.85 446.04, 262.62 445.69 C 260.40 445.33, 258.20 444.99, 256.00 444.79 C 253.80 444.59, 251.62 444.50, 249.42 444.51 C 247.22 444.51, 245.02 444.66, 242.80 444.81 C 240.58 444.96, 238.34 445.23, 236.09 445.41 C 233.84 445.60, 231.58 445.81, 229.31 445.94 C 227.03 446.07, 224.75 446.17, 222.47 446.18 C 220.18 446.20, 217.88 446.19, 215.61 446.03 C 213.34 445.86, 211.07 445.58, 208.83 445.18 C 206.60 444.77, 204.39 444.22, 202.21 443.60 C 200.02 442.98, 197.87 442.23, 195.74 441.46 C 193.61 440.69, 191.50 439.82, 189.40 438.98 C 187.30 438.14, 185.21 437.25, 183.11 436.41 C 181.01 435.56, 178.91 434.73, 176.79 433.92 C 174.66 433.11, 172.52 432.34, 170.38 431.55 C 168.23 430.77, 166.06 430.02, 163.91 429.20 C 161.76 428.38, 159.61 427.54, 157.50 426.61 C 155.39 425.68, 153.29 424.71, 151.25 423.64 C 149.21 422.57, 147.19 421.43, 145.26 420.18 C 143.33 418.93, 141.45 417.58, 139.65 416.15 C 137.84 414.72, 136.12 413.17, 134.43 411.60 C 132.75 410.02, 131.14 408.36, 129.55 406.70 C 127.95 405.04, 126.41 403.34, 124.87 401.63 C 123.34 399.93, 121.82 398.21, 120.34 396.48 C 118.85 394.75, 117.38 393.01, 115.96 391.24 C 114.53 389.46, 113.14 387.67, 111.80 385.84 C 110.46 384.01, 109.18 382.14, 107.90 380.27 C 106.63 378.40, 105.41 376.50, 104.16 374.63 C 102.91 372.76, 101.68 370.89, 100.41 369.04 C 99.15 367.19, 97.88 365.35, 96.59 363.53 C 95.29 361.70, 93.98 359.89, 92.64 358.08 C 91.29 356.28, 89.92 354.49, 88.53 352.69 C 87.13 350.89, 85.69 349.12, 84.28 347.30 C 82.87 345.49, 81.43 343.68, 80.06 341.81 C 78.70 339.94, 77.34 338.05, 76.12 336.09 C 74.89 334.13, 73.73 332.12, 72.71 330.05 C 71.69 327.99, 70.81 325.85, 70.00 323.70 C 69.18 321.55, 68.52 319.34, 67.83 317.14 C 67.14 314.94, 66.50 312.73, 65.85 310.52 C 65.21 308.31, 64.58 306.10, 63.97 303.88 C 63.37 301.66, 62.77 299.43, 62.23 297.19 C 61.69 294.95, 61.16 292.70, 60.74 290.43 C 60.31 288.16, 59.92 285.88, 59.66 283.59 C 59.39 281.30, 59.20 279.00, 59.15 276.69 C 59.09 274.38, 59.15 272.06, 59.33 269.75 C 59.51 267.44, 59.82 265.13, 60.22 262.84 C 60.61 260.54, 61.16 258.26, 61.70 256.00 C 62.23 253.74, 62.87 251.50, 63.44 249.28 C 64.00 247.05, 64.58 244.85, 65.09 242.65 C 65.61 240.45, 66.08 238.27, 66.53 236.09 C 66.98 233.90, 67.38 231.72, 67.80 229.55 C 68.22 227.38, 68.61 225.20, 69.06 223.04 C 69.51 220.87, 69.97 218.71, 70.50 216.57 C 71.02 214.43, 71.59 212.29, 72.22 210.18 C 72.85 208.07, 73.55 205.97, 74.28 203.89 C 75.01 201.81, 75.82 199.76, 76.61 197.71 C 77.40 195.66, 78.26 193.64, 79.03 191.59 C 79.81 189.54, 80.57 187.49, 81.25 185.40 C 81.93 183.30, 82.54 181.18, 83.10 179.02 C 83.67 176.86, 84.15 174.66, 84.66 172.43 C 85.16 170.21, 85.60 167.93, 86.12 165.67 C 86.64 163.41, 87.14 161.12, 87.75 158.86 C 88.37 156.61, 89.02 154.35, 89.81 152.15 C 90.59 149.96, 91.47 147.78, 92.46 145.69 C 93.45 143.60, 94.58 141.56, 95.77 139.59 C 96.97 137.61, 98.30 135.72, 99.65 133.84 C 100.99 131.97, 102.43 130.16, 103.86 128.34 C 105.28 126.51, 106.72 124.70, 108.20 122.92 C 109.67 121.13, 111.14 119.33, 112.69 117.61 C 114.24 115.88, 115.83 114.18, 117.51 112.59 C 119.19 110.99, 120.95 109.47, 122.79 108.05 C 124.62 106.63, 126.55 105.32, 128.50 104.05 C 130.45 102.78, 132.48 101.63, 134.47 100.45 C 136.47 99.27, 138.49 98.16, 140.47 96.99 C 142.45 95.82, 144.41 94.65, 146.35 93.44 C 148.29 92.23, 150.19 90.97, 152.11 89.74 C 154.03 88.50, 155.93 87.24, 157.86 86.02 C 159.80 84.80, 161.75 83.62, 163.71 82.43 C 165.67 81.24, 167.63 80.05, 169.61 78.88 C 171.59 77.71, 173.56 76.50, 175.58 75.38 C 177.60 74.26, 179.63 73.13, 181.72 72.16 C 183.82 71.19, 185.95 70.28, 188.14 69.55 C 190.32 68.81, 192.57 68.22, 194.84 67.77 C 197.11 67.32, 199.44 67.04, 201.76 66.84 C 204.08 66.63, 206.43 66.59, 208.76 66.54 C 211.09 66.49, 213.43 66.55, 215.73 66.54 C 218.03 66.54, 220.32 66.54, 222.59 66.53 C 224.86 66.52, 227.12 66.53, 229.37 66.49 C 231.61 66.46, 233.84 66.43, 236.06 66.30 C 238.28 66.18, 240.49 65.98, 242.70 65.74 C 244.91 65.49, 247.11 65.16, 249.32 64.85 C 251.54 64.53, 253.77 64.15, 256.00 63.87 C 258.23 63.59, 260.49 63.30, 262.73 63.16 C 264.98 63.02, 267.25 62.94, 269.49 63.04 C 271.74 63.14, 273.99 63.37, 276.21 63.75 C 278.42 64.12, 280.63 64.69, 282.80 65.31 C 284.97 65.93, 287.11 66.73, 289.24 67.47 C 291.38 68.20, 293.48 69.01, 295.59 69.73 C 297.71 70.45, 299.81 71.14, 301.93 71.77 C 304.05 72.41, 306.18 72.98, 308.32 73.55 C 310.45 74.12, 312.60 74.64, 314.74 75.20 C 316.89 75.77, 319.04 76.31, 321.17 76.95 C 323.30 77.58, 325.43 78.24, 327.51 79.00 C 329.60 79.76, 331.66 80.60, 333.69 81.51 C 335.71 82.43, 337.69 83.44, 339.65 84.49 C 341.61 85.54, 343.51 86.70, 345.42 87.82 C 347.34 88.95, 349.22 90.11, 351.13 91.24 C 353.03 92.37, 354.92 93.51, 356.85 94.60 C 358.78 95.70, 360.71 96.78, 362.70 97.81 C 364.69 98.84, 366.71 99.81, 368.78 100.77 C 370.84 101.74, 372.97 102.63, 375.08 103.58 C 377.20 104.53, 379.36 105.45, 381.46 106.48 C 383.55 107.52, 385.65 108.59, 387.66 109.78 C 389.67 110.97, 391.62 112.25, 393.49 113.62 C 395.37 114.99, 397.16 116.47, 398.93 117.98 C 400.69 119.49, 402.38 121.08, 404.06 122.68 C 405.75 124.28, 407.42 125.91, 409.05 127.57 C 410.69 129.24, 412.33 130.91, 413.88 132.65 C 415.42 134.40, 416.92 136.20, 418.32 138.07 C 419.72 139.94, 421.02 141.88, 422.27 143.85 C 423.51 145.82, 424.66 147.86, 425.79 149.91 C 426.91 151.95, 427.95 154.04, 428.99 156.12 C 430.04 158.20, 431.03 160.30, 432.05 162.39 C 433.07 164.48, 434.08 166.57, 435.10 168.65 C 436.13 170.73, 437.17 172.79, 438.21 174.87 C 439.25 176.95, 440.32 179.02, 441.34 181.12 C 442.36 183.21, 443.38 185.32, 444.35 187.45 C 445.31 189.58, 446.25 191.73, 447.13 193.90 C 448.01 196.07, 448.88 198.26, 449.62 200.48 C 450.35 202.71, 451.02 204.96, 451.54 207.25 C 452.06 209.53, 452.45 211.86, 452.72 214.19 C 452.99 216.52, 453.11 218.88, 453.19 221.23 C 453.27 223.58, 453.21 225.94, 453.20 228.29 C 453.19 230.63, 453.12 232.96, 453.15 235.28 C 453.18 237.60, 453.23 239.90, 453.39 242.20 C 453.55 244.50, 453.82 246.78, 454.11 249.08 C 454.41 251.38, 455.07 254.85, 455.15 256.00 C 455.24 257.15, 454.60 254.84, 454.61 256.00 Z" stroke-width="1.94" opacity="0.37"/>
    <path d="M 434.91 256.00 C 434.90 257.04, 435.17 260.17, 435.19 262.26 C 435.21 264.34, 435.17 266.44, 435.01 268.52 C 434.86 270.60, 434.60 272.68, 434.27 274.74 C 433.93 276.80, 433.49 278.85, 433.01 280.88 C 432.54 282.91, 431.97 284.92, 431.40 286.93 C 430.84 288.93, 430.22 290.92, 429.64 292.91 C 429.06 294.90, 428.47 296.87, 427.92 298.86 C 427.37 300.85, 426.84 302.84, 426.34 304.85 C 425.85 306.85, 425.41 308.87, 424.96 310.90 C 424.51 312.93, 424.11 314.98, 423.65 317.02 C 423.18 319.06, 422.73 321.12, 422.18 323.14 C 421.62 325.16, 421.02 327.18, 420.31 329.16 C 419.61 331.13, 418.82 333.08, 417.95 334.99 C 417.07 336.89, 416.11 338.76, 415.08 340.58 C 414.05 342.41, 412.94 344.19, 411.78 345.94 C 410.63 347.69, 409.40 349.40, 408.15 351.08 C 406.90 352.76, 405.60 354.40, 404.28 356.02 C 402.97 357.64, 401.61 359.23, 400.25 360.80 C 398.88 362.37, 397.49 363.92, 396.09 365.45 C 394.69 366.98, 393.27 368.49, 391.82 369.97 C 390.37 371.45, 388.91 372.91, 387.42 374.33 C 385.92 375.75, 384.40 377.14, 382.84 378.49 C 381.28 379.83, 379.68 381.14, 378.05 382.39 C 376.42 383.64, 374.74 384.83, 373.05 386.00 C 371.36 387.16, 369.64 388.28, 367.92 389.38 C 366.20 390.48, 364.46 391.55, 362.73 392.61 C 361.00 393.68, 359.27 394.71, 357.54 395.76 C 355.82 396.81, 354.11 397.87, 352.40 398.92 C 350.69 399.97, 348.98 401.02, 347.26 402.04 C 345.54 403.07, 343.81 404.09, 342.07 405.07 C 340.32 406.05, 338.56 407.00, 336.78 407.92 C 335.00 408.84, 333.20 409.71, 331.39 410.57 C 329.58 411.42, 327.75 412.24, 325.92 413.05 C 324.10 413.87, 322.26 414.66, 320.43 415.48 C 318.61 416.30, 316.78 417.12, 314.95 417.96 C 313.12 418.81, 311.30 419.69, 309.47 420.57 C 307.64 421.45, 305.81 422.38, 303.95 423.24 C 302.09 424.09, 300.22 424.97, 298.31 425.71 C 296.40 426.46, 294.46 427.14, 292.50 427.70 C 290.53 428.26, 288.53 428.71, 286.51 429.06 C 284.50 429.41, 282.46 429.64, 280.43 429.81 C 278.39 429.98, 276.34 430.04, 274.30 430.08 C 272.25 430.13, 270.21 430.09, 268.17 430.08 C 266.14 430.06, 264.11 430.01, 262.08 430.01 C 260.05 430.00, 258.03 430.00, 256.00 430.03 C 253.97 430.07, 251.95 430.15, 249.92 430.22 C 247.88 430.29, 245.84 430.42, 243.80 430.46 C 241.76 430.50, 239.70 430.55, 237.66 430.47 C 235.62 430.39, 233.57 430.25, 231.55 429.98 C 229.52 429.71, 227.51 429.34, 225.52 428.87 C 223.53 428.39, 221.56 427.79, 219.63 427.13 C 217.69 426.46, 215.78 425.69, 213.89 424.89 C 212.00 424.09, 210.15 423.21, 208.30 422.34 C 206.46 421.48, 204.64 420.57, 202.82 419.68 C 201.00 418.80, 199.19 417.91, 197.38 417.05 C 195.57 416.18, 193.77 415.34, 191.96 414.50 C 190.16 413.65, 188.35 412.84, 186.55 412.00 C 184.74 411.16, 182.95 410.32, 181.15 409.46 C 179.36 408.60, 177.56 407.76, 175.78 406.86 C 174.01 405.97, 172.23 405.08, 170.49 404.11 C 168.75 403.15, 167.02 402.14, 165.35 401.08 C 163.67 400.01, 162.02 398.88, 160.41 397.71 C 158.81 396.54, 157.24 395.31, 155.69 394.06 C 154.15 392.81, 152.64 391.52, 151.13 390.23 C 149.62 388.94, 148.13 387.63, 146.64 386.33 C 145.15 385.03, 143.67 383.72, 142.18 382.41 C 140.70 381.10, 139.21 379.79, 137.73 378.47 C 136.25 377.15, 134.77 375.83, 133.30 374.49 C 131.83 373.15, 130.36 371.81, 128.88 370.46 C 127.41 369.10, 125.93 367.75, 124.44 366.39 C 122.96 365.02, 121.47 363.66, 119.97 362.28 C 118.48 360.90, 116.98 359.51, 115.47 358.10 C 113.96 356.70, 112.44 355.29, 110.92 353.86 C 109.40 352.43, 107.85 350.99, 106.34 349.52 C 104.82 348.05, 103.28 346.56, 101.81 345.02 C 100.34 343.48, 98.87 341.91, 97.52 340.26 C 96.17 338.62, 94.86 336.92, 93.71 335.15 C 92.56 333.38, 91.50 331.54, 90.60 329.64 C 89.71 327.74, 88.96 325.75, 88.33 323.74 C 87.70 321.73, 87.24 319.65, 86.83 317.57 C 86.42 315.49, 86.11 313.39, 85.90 311.27 C 85.68 309.15, 85.58 307.01, 85.55 304.87 C 85.53 302.74, 85.63 300.58, 85.74 298.45 C 85.86 296.32, 86.07 294.18, 86.25 292.08 C 86.44 289.98, 86.66 287.89, 86.83 285.83 C 86.99 283.77, 87.14 281.74, 87.22 279.72 C 87.31 277.70, 87.34 275.71, 87.34 273.73 C 87.35 271.74, 87.28 269.77, 87.23 267.80 C 87.19 265.83, 87.10 263.87, 87.06 261.90 C 87.02 259.93, 87.00 257.97, 86.99 256.00 C 86.98 254.03, 87.02 252.07, 86.99 250.10 C 86.95 248.13, 86.88 246.15, 86.77 244.17 C 86.67 242.18, 86.49 240.18, 86.34 238.17 C 86.20 236.16, 86.01 234.13, 85.89 232.09 C 85.77 230.06, 85.66 228.01, 85.64 225.96 C 85.61 223.91, 85.64 221.86, 85.75 219.81 C 85.87 217.77, 86.06 215.72, 86.32 213.69 C 86.59 211.67, 86.93 209.64, 87.35 207.64 C 87.76 205.64, 88.25 203.64, 88.79 201.67 C 89.34 199.70, 89.95 197.74, 90.61 195.80 C 91.27 193.86, 91.99 191.95, 92.73 190.03 C 93.46 188.12, 94.22 186.22, 95.00 184.32 C 95.78 182.42, 96.57 180.52, 97.40 178.64 C 98.22 176.76, 99.06 174.88, 99.96 173.03 C 100.86 171.19, 101.79 169.34, 102.80 167.55 C 103.80 165.75, 104.85 163.98, 105.99 162.26 C 107.12 160.54, 108.32 158.86, 109.59 157.24 C 110.86 155.63, 112.21 154.06, 113.62 152.55 C 115.03 151.05, 116.52 149.61, 118.06 148.23 C 119.60 146.85, 121.21 145.54, 122.86 144.28 C 124.51 143.03, 126.24 141.86, 127.97 140.72 C 129.69 139.57, 131.47 138.50, 133.21 137.43 C 134.96 136.35, 136.72 135.32, 138.43 134.25 C 140.14 133.19, 141.82 132.12, 143.48 131.03 C 145.13 129.94, 146.74 128.83, 148.35 127.71 C 149.96 126.60, 151.54 125.45, 153.14 124.34 C 154.74 123.24, 156.33 122.12, 157.96 121.06 C 159.59 120.01, 161.24 118.97, 162.93 118.01 C 164.61 117.05, 166.33 116.14, 168.07 115.28 C 169.81 114.42, 171.58 113.63, 173.35 112.84 C 175.11 112.06, 176.90 111.32, 178.67 110.56 C 180.43 109.79, 182.19 109.04, 183.94 108.25 C 185.68 107.46, 187.42 106.67, 189.14 105.84 C 190.87 105.02, 192.60 104.20, 194.31 103.30 C 196.01 102.40, 197.70 101.45, 199.38 100.44 C 201.06 99.42, 202.72 98.33, 204.41 97.21 C 206.09 96.10, 207.77 94.92, 209.48 93.77 C 211.20 92.63, 212.93 91.44, 214.70 90.35 C 216.47 89.26, 218.28 88.18, 220.13 87.24 C 221.98 86.29, 223.87 85.41, 225.79 84.67 C 227.71 83.94, 229.68 83.32, 231.66 82.82 C 233.64 82.32, 235.66 81.97, 237.68 81.68 C 239.70 81.39, 241.73 81.24, 243.77 81.07 C 245.80 80.90, 247.84 80.81, 249.88 80.67 C 251.92 80.52, 253.95 80.38, 256.00 80.22 C 258.05 80.05, 260.10 79.85, 262.16 79.66 C 264.22 79.48, 266.29 79.26, 268.37 79.10 C 270.45 78.93, 272.54 78.76, 274.64 78.69 C 276.73 78.62, 278.83 78.57, 280.92 78.65 C 283.02 78.73, 285.11 78.89, 287.18 79.17 C 289.25 79.44, 291.31 79.83, 293.34 80.33 C 295.37 80.82, 297.38 81.44, 299.35 82.14 C 301.32 82.83, 303.26 83.65, 305.18 84.48 C 307.10 85.32, 308.98 86.25, 310.86 87.15 C 312.74 88.05, 314.60 88.99, 316.45 89.91 C 318.30 90.84, 320.15 91.76, 321.98 92.71 C 323.81 93.65, 325.63 94.59, 327.43 95.57 C 329.23 96.55, 331.02 97.54, 332.78 98.57 C 334.54 99.61, 336.28 100.68, 338.00 101.79 C 339.71 102.89, 341.40 104.04, 343.06 105.21 C 344.72 106.38, 346.35 107.60, 347.97 108.82 C 349.58 110.05, 351.17 111.30, 352.75 112.56 C 354.33 113.83, 355.88 115.11, 357.43 116.40 C 358.98 117.68, 360.51 118.97, 362.05 120.26 C 363.59 121.55, 365.11 122.85, 366.65 124.13 C 368.19 125.41, 369.73 126.69, 371.29 127.95 C 372.85 129.22, 374.42 130.47, 376.00 131.74 C 377.58 133.00, 379.17 134.25, 380.76 135.52 C 382.36 136.79, 383.97 138.04, 385.56 139.34 C 387.15 140.64, 388.76 141.94, 390.30 143.31 C 391.85 144.67, 393.38 146.07, 394.83 147.54 C 396.28 149.00, 397.68 150.53, 398.99 152.11 C 400.30 153.70, 401.54 155.35, 402.71 157.05 C 403.87 158.74, 404.94 160.50, 405.98 162.28 C 407.02 164.06, 407.98 165.88, 408.94 167.70 C 409.90 169.52, 410.81 171.36, 411.77 173.18 C 412.73 174.99, 413.67 176.81, 414.67 178.61 C 415.68 180.41, 416.71 182.19, 417.78 183.97 C 418.86 185.75, 419.99 187.51, 421.10 189.29 C 422.22 191.08, 423.39 192.86, 424.47 194.68 C 425.54 196.51, 426.62 198.36, 427.57 200.25 C 428.51 202.15, 429.39 204.09, 430.13 206.07 C 430.88 208.04, 431.50 210.07, 432.01 212.12 C 432.52 214.16, 432.89 216.25, 433.18 218.34 C 433.47 220.43, 433.62 222.55, 433.74 224.66 C 433.87 226.77, 433.89 228.89, 433.93 230.99 C 433.98 233.10, 433.96 235.20, 434.01 237.29 C 434.06 239.38, 434.10 241.46, 434.21 243.54 C 434.32 245.62, 434.48 247.68, 434.65 249.76 C 434.82 251.84, 435.19 254.96, 435.24 256.00 C 435.28 257.04, 434.92 254.96, 434.91 256.00 Z" stroke-width="2.05" opacity="0.43"/>
    <path d="M 412.03 256.00 C 412.08 256.91, 412.19 259.64, 412.20 261.45 C 412.22 263.27, 412.19 265.10, 412.12 266.92 C 412.05 268.74, 411.93 270.56, 411.77 272.37 C 411.62 274.19, 411.42 276.00, 411.19 277.81 C 410.97 279.62, 410.71 281.43, 410.44 283.23 C 410.17 285.04, 409.87 286.84, 409.57 288.64 C 409.27 290.45, 408.95 292.25, 408.63 294.05 C 408.31 295.86, 407.98 297.67, 407.64 299.48 C 407.30 301.29, 406.95 303.11, 406.58 304.93 C 406.21 306.74, 405.83 308.57, 405.42 310.38 C 405.00 312.20, 404.57 314.02, 404.08 315.83 C 403.58 317.63, 403.07 319.44, 402.46 321.21 C 401.85 322.98, 401.18 324.73, 400.43 326.44 C 399.68 328.16, 398.85 329.84, 397.96 331.48 C 397.07 333.13, 396.10 334.73, 395.10 336.31 C 394.09 337.88, 393.02 339.42, 391.92 340.93 C 390.82 342.44, 389.67 343.92, 388.50 345.37 C 387.32 346.82, 386.12 348.24, 384.89 349.64 C 383.66 351.04, 382.40 352.41, 381.13 353.76 C 379.85 355.11, 378.56 356.43, 377.25 357.74 C 375.94 359.04, 374.60 360.32, 373.26 361.58 C 371.91 362.84, 370.54 364.07, 369.16 365.28 C 367.78 366.49, 366.38 367.68, 364.97 368.85 C 363.57 370.02, 362.14 371.16, 360.71 372.30 C 359.28 373.43, 357.84 374.54, 356.39 375.64 C 354.94 376.75, 353.49 377.83, 352.03 378.91 C 350.57 379.99, 349.10 381.06, 347.63 382.12 C 346.16 383.18, 344.68 384.23, 343.19 385.26 C 341.70 386.29, 340.20 387.32, 338.68 388.31 C 337.16 389.30, 335.62 390.28, 334.07 391.21 C 332.51 392.15, 330.94 393.06, 329.34 393.94 C 327.75 394.81, 326.14 395.65, 324.51 396.47 C 322.89 397.29, 321.24 398.07, 319.59 398.84 C 317.95 399.60, 316.28 400.35, 314.61 401.07 C 312.94 401.79, 311.26 402.50, 309.57 403.17 C 307.87 403.85, 306.17 404.51, 304.46 405.13 C 302.74 405.75, 301.01 406.35, 299.27 406.90 C 297.53 407.45, 295.77 407.97, 294.00 408.42 C 292.23 408.88, 290.45 409.29, 288.66 409.64 C 286.86 409.99, 285.06 410.28, 283.25 410.53 C 281.44 410.77, 279.62 410.96, 277.80 411.12 C 275.98 411.29, 274.16 411.40, 272.35 411.52 C 270.53 411.63, 268.71 411.72, 266.89 411.79 C 265.08 411.87, 263.26 411.96, 261.45 411.98 C 259.63 412.01, 257.81 412.02, 256.00 411.95 C 254.19 411.88, 252.37 411.75, 250.57 411.56 C 248.76 411.38, 246.96 411.12, 245.17 410.84 C 243.38 410.56, 241.60 410.22, 239.83 409.89 C 238.05 409.55, 236.29 409.18, 234.52 408.81 C 232.76 408.45, 231.01 408.07, 229.25 407.69 C 227.50 407.31, 225.75 406.93, 224.00 406.53 C 222.26 406.14, 220.51 405.75, 218.77 405.33 C 217.02 404.92, 215.28 404.50, 213.54 404.06 C 211.81 403.62, 210.07 403.17, 208.34 402.69 C 206.61 402.21, 204.88 401.71, 203.15 401.19 C 201.43 400.68, 199.71 400.12, 197.99 399.59 C 196.26 399.05, 194.53 398.51, 192.79 397.98 C 191.05 397.44, 189.29 396.92, 187.53 396.38 C 185.77 395.84, 184.00 395.31, 182.25 394.71 C 180.49 394.12, 178.73 393.51, 177.01 392.81 C 175.29 392.12, 173.58 391.37, 171.94 390.53 C 170.29 389.69, 168.68 388.76, 167.13 387.75 C 165.59 386.74, 164.10 385.62, 162.67 384.46 C 161.24 383.29, 159.88 382.02, 158.55 380.73 C 157.22 379.44, 155.95 378.08, 154.71 376.72 C 153.46 375.35, 152.26 373.94, 151.07 372.53 C 149.89 371.12, 148.73 369.69, 147.59 368.26 C 146.44 366.83, 145.32 365.39, 144.20 363.96 C 143.08 362.53, 141.98 361.09, 140.86 359.67 C 139.74 358.25, 138.62 356.84, 137.49 355.44 C 136.35 354.05, 135.20 352.67, 134.05 351.28 C 132.91 349.89, 131.74 348.51, 130.60 347.11 C 129.46 345.71, 128.32 344.30, 127.23 342.86 C 126.13 341.42, 125.05 339.96, 124.04 338.46 C 123.03 336.95, 122.06 335.42, 121.16 333.85 C 120.27 332.28, 119.43 330.66, 118.67 329.02 C 117.90 327.38, 117.21 325.70, 116.57 324.00 C 115.94 322.31, 115.38 320.57, 114.86 318.84 C 114.34 317.11, 113.88 315.35, 113.44 313.60 C 112.99 311.85, 112.59 310.09, 112.17 308.35 C 111.76 306.60, 111.35 304.87, 110.93 303.14 C 110.51 301.40, 110.08 299.69, 109.64 297.97 C 109.21 296.25, 108.75 294.54, 108.31 292.82 C 107.86 291.11, 107.40 289.40, 106.97 287.68 C 106.55 285.95, 106.12 284.23, 105.75 282.49 C 105.38 280.76, 105.03 279.01, 104.75 277.26 C 104.47 275.50, 104.24 273.74, 104.09 271.97 C 103.94 270.20, 103.86 268.42, 103.85 266.64 C 103.84 264.86, 103.92 263.08, 104.05 261.31 C 104.17 259.53, 104.39 257.76, 104.61 256.00 C 104.82 254.24, 105.11 252.49, 105.34 250.74 C 105.57 248.99, 105.80 247.25, 105.98 245.51 C 106.16 243.77, 106.30 242.03, 106.41 240.28 C 106.51 238.53, 106.57 236.77, 106.62 235.01 C 106.67 233.24, 106.68 231.46, 106.71 229.68 C 106.75 227.89, 106.76 226.09, 106.82 224.29 C 106.89 222.49, 106.97 220.68, 107.13 218.88 C 107.29 217.08, 107.48 215.28, 107.77 213.50 C 108.06 211.72, 108.42 209.94, 108.86 208.19 C 109.31 206.45, 109.84 204.72, 110.42 203.01 C 111.00 201.31, 111.67 199.63, 112.35 197.96 C 113.03 196.29, 113.75 194.64, 114.51 193.01 C 115.28 191.38, 116.08 189.76, 116.93 188.17 C 117.78 186.59, 118.69 185.02, 119.63 183.49 C 120.57 181.95, 121.56 180.45, 122.57 178.96 C 123.58 177.48, 124.63 176.02, 125.68 174.57 C 126.73 173.12, 127.81 171.69, 128.87 170.25 C 129.93 168.82, 131.00 167.39, 132.07 165.96 C 133.13 164.53, 134.19 163.09, 135.26 161.66 C 136.33 160.24, 137.39 158.80, 138.48 157.39 C 139.57 155.98, 140.68 154.57, 141.82 153.19 C 142.96 151.81, 144.13 150.46, 145.33 149.13 C 146.54 147.81, 147.78 146.52, 149.04 145.24 C 150.30 143.97, 151.60 142.73, 152.89 141.49 C 154.19 140.25, 155.50 139.02, 156.82 137.80 C 158.14 136.59, 159.48 135.38, 160.84 134.20 C 162.19 133.01, 163.57 131.84, 164.96 130.70 C 166.36 129.55, 167.77 128.43, 169.21 127.32 C 170.64 126.22, 172.09 125.13, 173.56 124.07 C 175.03 123.00, 176.51 121.96, 178.02 120.93 C 179.53 119.91, 181.05 118.91, 182.59 117.94 C 184.14 116.98, 185.71 116.04, 187.30 115.15 C 188.90 114.27, 190.52 113.42, 192.17 112.64 C 193.82 111.86, 195.50 111.13, 197.20 110.47 C 198.90 109.80, 200.63 109.22, 202.37 108.66 C 204.11 108.10, 205.87 107.61, 207.63 107.12 C 209.38 106.63, 211.15 106.18, 212.91 105.72 C 214.67 105.27, 216.43 104.82, 218.20 104.39 C 219.96 103.95, 221.73 103.52, 223.50 103.10 C 225.27 102.69, 227.05 102.28, 228.83 101.91 C 230.61 101.55, 232.40 101.19, 234.20 100.90 C 236.00 100.61, 237.81 100.34, 239.62 100.15 C 241.43 99.97, 243.25 99.83, 245.08 99.78 C 246.90 99.72, 248.73 99.74, 250.55 99.82 C 252.37 99.91, 254.19 100.08, 256.00 100.30 C 257.81 100.52, 259.61 100.83, 261.41 101.14 C 263.20 101.45, 264.98 101.82, 266.76 102.16 C 268.53 102.51, 270.30 102.87, 272.06 103.21 C 273.82 103.54, 275.58 103.87, 277.34 104.17 C 279.10 104.48, 280.86 104.76, 282.62 105.05 C 284.38 105.33, 286.14 105.59, 287.91 105.88 C 289.67 106.17, 291.44 106.44, 293.21 106.76 C 294.97 107.08, 296.74 107.41, 298.50 107.80 C 300.25 108.18, 302.00 108.60, 303.74 109.08 C 305.47 109.55, 307.20 110.08, 308.90 110.66 C 310.60 111.24, 312.29 111.88, 313.96 112.55 C 315.62 113.23, 317.27 113.97, 318.91 114.71 C 320.54 115.45, 322.16 116.25, 323.79 117.02 C 325.41 117.78, 327.04 118.56, 328.67 119.32 C 330.31 120.08, 331.96 120.81, 333.62 121.55 C 335.28 122.29, 336.96 123.01, 338.63 123.76 C 340.31 124.50, 342.00 125.24, 343.67 126.02 C 345.34 126.80, 347.02 127.60, 348.67 128.45 C 350.32 129.30, 351.95 130.19, 353.55 131.14 C 355.14 132.10, 356.71 133.10, 358.23 134.17 C 359.75 135.23, 361.23 136.36, 362.66 137.54 C 364.09 138.73, 365.46 139.98, 366.80 141.26 C 368.14 142.55, 369.43 143.89, 370.70 145.23 C 371.97 146.58, 373.21 147.97, 374.44 149.36 C 375.66 150.75, 376.87 152.16, 378.06 153.58 C 379.26 154.99, 380.44 156.42, 381.61 157.86 C 382.79 159.30, 383.96 160.74, 385.11 162.20 C 386.26 163.66, 387.41 165.12, 388.53 166.61 C 389.65 168.10, 390.76 169.60, 391.82 171.13 C 392.88 172.67, 393.91 174.22, 394.89 175.81 C 395.86 177.41, 396.79 179.03, 397.66 180.68 C 398.52 182.33, 399.33 184.02, 400.09 185.72 C 400.85 187.42, 401.55 189.16, 402.22 190.90 C 402.88 192.64, 403.50 194.40, 404.09 196.17 C 404.68 197.93, 405.25 199.71, 405.75 201.49 C 406.26 203.28, 406.73 205.08, 407.14 206.89 C 407.55 208.70, 407.91 210.52, 408.23 212.35 C 408.55 214.17, 408.81 216.01, 409.05 217.84 C 409.29 219.67, 409.49 221.51, 409.67 223.34 C 409.85 225.17, 410.00 227.00, 410.14 228.82 C 410.29 230.64, 410.41 232.47, 410.54 234.28 C 410.66 236.10, 410.79 237.91, 410.91 239.72 C 411.04 241.53, 411.16 243.33, 411.29 245.14 C 411.41 246.95, 411.54 248.75, 411.65 250.56 C 411.75 252.37, 411.86 255.09, 411.93 256.00 C 411.99 256.91, 411.99 255.09, 412.03 256.00 Z" stroke-width="2.17" opacity="0.48"/>
    <path d="M 398.96 256.00 C 399.05 256.83, 398.99 259.33, 398.94 260.99 C 398.89 262.65, 398.79 264.32, 398.64 265.97 C 398.49 267.63, 398.28 269.28, 398.01 270.93 C 397.75 272.57, 397.43 274.20, 397.07 275.83 C 396.71 277.45, 396.29 279.06, 395.86 280.66 C 395.42 282.26, 394.93 283.85, 394.44 285.43 C 393.95 287.00, 393.42 288.57, 392.90 290.13 C 392.37 291.69, 391.83 293.24, 391.29 294.79 C 390.75 296.34, 390.21 297.89, 389.67 299.43 C 389.13 300.98, 388.60 302.52, 388.06 304.06 C 387.52 305.61, 386.98 307.15, 386.43 308.70 C 385.87 310.24, 385.32 311.78, 384.74 313.32 C 384.15 314.85, 383.55 316.38, 382.90 317.89 C 382.25 319.40, 381.57 320.90, 380.83 322.37 C 380.09 323.84, 379.31 325.29, 378.48 326.71 C 377.65 328.14, 376.77 329.53, 375.86 330.90 C 374.95 332.27, 374.00 333.61, 373.02 334.93 C 372.05 336.25, 371.03 337.55, 370.01 338.83 C 368.99 340.12, 367.95 341.38, 366.90 342.64 C 365.85 343.90, 364.78 345.15, 363.72 346.38 C 362.65 347.62, 361.57 348.85, 360.48 350.08 C 359.40 351.30, 358.30 352.52, 357.19 353.72 C 356.08 354.92, 354.95 356.11, 353.81 357.28 C 352.66 358.45, 351.50 359.61, 350.31 360.74 C 349.12 361.87, 347.90 362.97, 346.67 364.05 C 345.43 365.13, 344.16 366.18, 342.88 367.20 C 341.59 368.22, 340.28 369.21, 338.95 370.17 C 337.62 371.14, 336.28 372.08, 334.91 372.99 C 333.54 373.90, 332.16 374.78, 330.75 375.63 C 329.35 376.48, 327.92 377.30, 326.49 378.09 C 325.05 378.88, 323.60 379.64, 322.14 380.39 C 320.68 381.14, 319.21 381.86, 317.74 382.58 C 316.27 383.31, 314.79 384.02, 313.31 384.73 C 311.83 385.44, 310.35 386.14, 308.86 386.84 C 307.38 387.55, 305.89 388.25, 304.38 388.93 C 302.88 389.61, 301.37 390.29, 299.84 390.93 C 298.32 391.58, 296.78 392.21, 295.23 392.80 C 293.67 393.39, 292.11 393.96, 290.53 394.49 C 288.95 395.02, 287.36 395.51, 285.75 395.97 C 284.15 396.42, 282.53 396.84, 280.90 397.22 C 279.28 397.60, 277.64 397.96, 275.99 398.26 C 274.35 398.56, 272.69 398.81, 271.03 399.00 C 269.37 399.18, 267.70 399.30, 266.02 399.36 C 264.35 399.42, 262.68 399.41, 261.01 399.36 C 259.34 399.31, 257.66 399.20, 256.00 399.06 C 254.34 398.92, 252.68 398.73, 251.02 398.53 C 249.37 398.33, 247.72 398.09, 246.08 397.85 C 244.44 397.61, 242.80 397.35, 241.17 397.09 C 239.54 396.82, 237.91 396.55, 236.29 396.27 C 234.66 395.98, 233.04 395.70, 231.42 395.40 C 229.80 395.11, 228.18 394.81, 226.56 394.49 C 224.95 394.17, 223.33 393.84, 221.72 393.48 C 220.11 393.12, 218.51 392.73, 216.91 392.33 C 215.30 391.93, 213.70 391.52, 212.10 391.10 C 210.50 390.68, 208.90 390.25, 207.30 389.79 C 205.71 389.33, 204.11 388.86, 202.53 388.34 C 200.95 387.82, 199.37 387.27, 197.82 386.66 C 196.28 386.05, 194.74 385.40, 193.24 384.68 C 191.74 383.96, 190.26 383.18, 188.82 382.34 C 187.39 381.50, 185.98 380.59, 184.62 379.63 C 183.26 378.67, 181.94 377.64, 180.66 376.58 C 179.37 375.51, 178.13 374.39, 176.92 373.25 C 175.70 372.11, 174.53 370.92, 173.37 369.73 C 172.22 368.54, 171.09 367.32, 169.98 366.10 C 168.86 364.89, 167.77 363.66, 166.69 362.44 C 165.60 361.22, 164.53 359.99, 163.47 358.76 C 162.41 357.54, 161.36 356.31, 160.32 355.08 C 159.27 353.85, 158.24 352.63, 157.20 351.41 C 156.17 350.19, 155.13 348.97, 154.09 347.76 C 153.05 346.55, 152.01 345.34, 150.97 344.13 C 149.93 342.92, 148.88 341.72, 147.85 340.50 C 146.82 339.28, 145.78 338.06, 144.77 336.81 C 143.76 335.57, 142.76 334.31, 141.80 333.03 C 140.84 331.75, 139.89 330.44, 139.00 329.11 C 138.10 327.78, 137.24 326.42, 136.42 325.04 C 135.61 323.66, 134.83 322.24, 134.10 320.81 C 133.37 319.38, 132.70 317.92, 132.04 316.46 C 131.39 314.99, 130.79 313.50, 130.19 312.01 C 129.59 310.53, 129.03 309.03, 128.47 307.53 C 127.90 306.03, 127.36 304.52, 126.81 303.02 C 126.26 301.52, 125.72 300.01, 125.18 298.51 C 124.64 297.00, 124.10 295.49, 123.56 293.98 C 123.03 292.46, 122.49 290.95, 121.97 289.42 C 121.45 287.89, 120.94 286.36, 120.46 284.81 C 119.98 283.26, 119.51 281.71, 119.10 280.14 C 118.68 278.57, 118.29 276.99, 117.97 275.40 C 117.64 273.81, 117.36 272.20, 117.14 270.60 C 116.92 268.99, 116.75 267.37, 116.65 265.74 C 116.54 264.12, 116.50 262.50, 116.50 260.87 C 116.50 259.25, 116.56 257.62, 116.64 256.00 C 116.71 254.38, 116.84 252.76, 116.95 251.14 C 117.07 249.53, 117.20 247.92, 117.33 246.30 C 117.46 244.69, 117.60 243.08, 117.73 241.47 C 117.87 239.85, 118.00 238.24, 118.15 236.63 C 118.30 235.01, 118.45 233.39, 118.63 231.78 C 118.81 230.16, 119.00 228.54, 119.23 226.93 C 119.46 225.31, 119.71 223.70, 120.01 222.09 C 120.31 220.49, 120.64 218.89, 121.03 217.30 C 121.41 215.71, 121.84 214.13, 122.31 212.56 C 122.78 210.99, 123.29 209.44, 123.84 207.90 C 124.39 206.36, 124.99 204.83, 125.61 203.32 C 126.22 201.80, 126.87 200.30, 127.53 198.80 C 128.18 197.30, 128.87 195.82, 129.54 194.32 C 130.21 192.82, 130.88 191.33, 131.54 189.83 C 132.21 188.32, 132.86 186.81, 133.53 185.29 C 134.20 183.78, 134.85 182.25, 135.55 180.73 C 136.24 179.22, 136.94 177.70, 137.70 176.20 C 138.45 174.71, 139.24 173.23, 140.09 171.78 C 140.94 170.34, 141.83 168.92, 142.80 167.56 C 143.76 166.19, 144.79 164.87, 145.87 163.59 C 146.95 162.32, 148.10 161.09, 149.28 159.91 C 150.47 158.73, 151.71 157.61, 152.97 156.51 C 154.23 155.41, 155.54 154.36, 156.85 153.33 C 158.16 152.30, 159.50 151.30, 160.85 150.32 C 162.19 149.34, 163.55 148.39, 164.92 147.45 C 166.28 146.51, 167.66 145.60, 169.04 144.69 C 170.41 143.79, 171.80 142.89, 173.18 142.01 C 174.56 141.12, 175.95 140.25, 177.34 139.38 C 178.73 138.51, 180.12 137.65, 181.51 136.79 C 182.90 135.93, 184.29 135.07, 185.69 134.23 C 187.10 133.38, 188.50 132.54, 189.92 131.72 C 191.34 130.90, 192.76 130.08, 194.21 129.31 C 195.66 128.54, 197.12 127.79, 198.60 127.09 C 200.09 126.39, 201.59 125.72, 203.12 125.11 C 204.64 124.51, 206.19 123.95, 207.75 123.44 C 209.32 122.94, 210.90 122.49, 212.49 122.09 C 214.08 121.69, 215.69 121.35, 217.30 121.04 C 218.91 120.73, 220.53 120.47, 222.15 120.23 C 223.76 119.98, 225.39 119.78, 227.00 119.58 C 228.62 119.37, 230.23 119.19, 231.84 119.00 C 233.45 118.81, 235.06 118.62, 236.67 118.43 C 238.27 118.23, 239.87 118.04, 241.48 117.84 C 243.08 117.63, 244.69 117.42, 246.30 117.22 C 247.90 117.01, 249.51 116.80, 251.13 116.60 C 252.75 116.41, 254.37 116.21, 256.00 116.05 C 257.63 115.89, 259.26 115.73, 260.90 115.63 C 262.54 115.53, 264.19 115.45, 265.83 115.43 C 267.47 115.42, 269.12 115.45, 270.76 115.54 C 272.40 115.63, 274.05 115.78, 275.68 115.98 C 277.31 116.17, 278.94 116.42, 280.56 116.69 C 282.19 116.96, 283.81 117.27, 285.42 117.61 C 287.03 117.94, 288.63 118.31, 290.23 118.70 C 291.83 119.10, 293.42 119.53, 295.00 119.98 C 296.58 120.44, 298.16 120.93, 299.72 121.44 C 301.28 121.95, 302.84 122.50, 304.39 123.06 C 305.93 123.62, 307.47 124.20, 309.01 124.81 C 310.54 125.41, 312.06 126.03, 313.58 126.68 C 315.09 127.32, 316.60 127.99, 318.10 128.68 C 319.60 129.36, 321.09 130.07, 322.57 130.81 C 324.04 131.54, 325.51 132.30, 326.96 133.10 C 328.41 133.89, 329.84 134.71, 331.26 135.56 C 332.68 136.41, 334.07 137.30, 335.45 138.20 C 336.84 139.11, 338.20 140.05, 339.55 141.01 C 340.89 141.97, 342.23 142.95, 343.55 143.95 C 344.86 144.95, 346.17 145.97, 347.46 147.01 C 348.74 148.05, 350.02 149.11, 351.27 150.20 C 352.52 151.28, 353.75 152.39, 354.96 153.52 C 356.17 154.65, 357.37 155.81, 358.53 156.98 C 359.70 158.16, 360.85 159.36, 361.98 160.58 C 363.10 161.79, 364.21 163.03, 365.30 164.29 C 366.38 165.54, 367.45 166.82, 368.51 168.10 C 369.56 169.39, 370.59 170.69, 371.62 172.00 C 372.64 173.31, 373.65 174.63, 374.65 175.97 C 375.64 177.31, 376.63 178.66, 377.59 180.02 C 378.56 181.38, 379.51 182.76, 380.43 184.16 C 381.36 185.55, 382.26 186.97, 383.13 188.40 C 384.01 189.84, 384.85 191.29, 385.66 192.76 C 386.46 194.24, 387.24 195.73, 387.98 197.24 C 388.72 198.75, 389.44 200.27, 390.11 201.82 C 390.78 203.36, 391.41 204.92, 391.98 206.51 C 392.56 208.09, 393.08 209.69, 393.55 211.31 C 394.02 212.92, 394.43 214.56, 394.80 216.20 C 395.16 217.84, 395.47 219.50, 395.74 221.16 C 396.01 222.82, 396.23 224.49, 396.43 226.15 C 396.62 227.82, 396.77 229.49, 396.91 231.15 C 397.06 232.82, 397.16 234.48, 397.28 236.14 C 397.39 237.81, 397.48 239.46, 397.58 241.12 C 397.68 242.78, 397.77 244.43, 397.87 246.08 C 397.96 247.73, 398.06 249.38, 398.15 251.04 C 398.23 252.69, 398.24 255.17, 398.37 256.00 C 398.51 256.83, 398.86 255.17, 398.96 256.00 Z" stroke-width="2.29" opacity="0.54"/>
    <path d="M 384.22 256.00 C 384.22 256.75, 384.16 258.98, 384.09 260.47 C 384.02 261.96, 383.92 263.45, 383.81 264.94 C 383.69 266.42, 383.54 267.91, 383.38 269.39 C 383.22 270.87, 383.03 272.35, 382.83 273.82 C 382.62 275.30, 382.40 276.77, 382.15 278.24 C 381.90 279.71, 381.63 281.18, 381.34 282.64 C 381.05 284.10, 380.74 285.56, 380.40 287.02 C 380.07 288.47, 379.71 289.92, 379.33 291.36 C 378.94 292.81, 378.54 294.24, 378.11 295.67 C 377.67 297.10, 377.22 298.53, 376.73 299.94 C 376.25 301.36, 375.74 302.76, 375.20 304.16 C 374.66 305.56, 374.10 306.94, 373.50 308.32 C 372.91 309.69, 372.29 311.05, 371.66 312.41 C 371.02 313.76, 370.36 315.11, 369.68 316.44 C 369.00 317.78, 368.30 319.11, 367.58 320.42 C 366.85 321.73, 366.11 323.04, 365.34 324.32 C 364.56 325.61, 363.77 326.88, 362.94 328.13 C 362.12 329.39, 361.26 330.62, 360.38 331.84 C 359.50 333.05, 358.59 334.25, 357.66 335.42 C 356.72 336.60, 355.76 337.75, 354.77 338.88 C 353.78 340.01, 352.77 341.12, 351.74 342.20 C 350.70 343.29, 349.64 344.35, 348.56 345.39 C 347.48 346.42, 346.38 347.44, 345.26 348.44 C 344.15 349.43, 343.01 350.41, 341.87 351.37 C 340.73 352.33, 339.57 353.27, 338.41 354.21 C 337.24 355.14, 336.07 356.06, 334.89 356.97 C 333.71 357.89, 332.52 358.79, 331.33 359.68 C 330.13 360.57, 328.93 361.46, 327.72 362.33 C 326.51 363.20, 325.29 364.07, 324.06 364.91 C 322.82 365.76, 321.58 366.60, 320.32 367.41 C 319.06 368.22, 317.79 369.02, 316.51 369.80 C 315.22 370.57, 313.92 371.33, 312.60 372.05 C 311.29 372.78, 309.95 373.48, 308.60 374.15 C 307.26 374.82, 305.89 375.47, 304.51 376.07 C 303.13 376.68, 301.74 377.26, 300.33 377.80 C 298.92 378.34, 297.50 378.85, 296.07 379.33 C 294.64 379.82, 293.20 380.27, 291.76 380.70 C 290.31 381.14, 288.86 381.55, 287.40 381.94 C 285.94 382.33, 284.48 382.71, 283.01 383.05 C 281.54 383.40, 280.06 383.73, 278.57 384.02 C 277.09 384.31, 275.60 384.58, 274.10 384.80 C 272.61 385.03, 271.10 385.23, 269.60 385.38 C 268.09 385.53, 266.58 385.64, 265.07 385.72 C 263.56 385.79, 262.05 385.82, 260.53 385.82 C 259.02 385.82, 257.51 385.77, 256.00 385.70 C 254.49 385.63, 252.98 385.52, 251.48 385.39 C 249.98 385.26, 248.48 385.09, 246.99 384.92 C 245.49 384.74, 244.00 384.54, 242.51 384.32 C 241.03 384.10, 239.54 383.87, 238.07 383.61 C 236.59 383.36, 235.11 383.08, 233.64 382.80 C 232.17 382.51, 230.70 382.21, 229.24 381.90 C 227.77 381.59, 226.31 381.27, 224.85 380.94 C 223.39 380.60, 221.93 380.26, 220.47 379.90 C 219.02 379.53, 217.56 379.16, 216.11 378.76 C 214.66 378.36, 213.22 377.94, 211.78 377.50 C 210.34 377.05, 208.91 376.58, 207.49 376.08 C 206.06 375.57, 204.65 375.04, 203.25 374.47 C 201.85 373.91, 200.47 373.30, 199.10 372.67 C 197.73 372.03, 196.38 371.35, 195.04 370.64 C 193.71 369.93, 192.40 369.18, 191.10 368.40 C 189.81 367.62, 188.54 366.80, 187.29 365.96 C 186.04 365.12, 184.81 364.24, 183.59 363.35 C 182.38 362.46, 181.18 361.54, 180.00 360.61 C 178.82 359.67, 177.65 358.72, 176.50 357.76 C 175.35 356.79, 174.21 355.81, 173.09 354.81 C 171.97 353.81, 170.86 352.80, 169.77 351.77 C 168.68 350.74, 167.61 349.69, 166.55 348.63 C 165.49 347.57, 164.45 346.49, 163.42 345.40 C 162.40 344.31, 161.39 343.20, 160.40 342.08 C 159.41 340.95, 158.44 339.81, 157.49 338.66 C 156.54 337.50, 155.61 336.33, 154.70 335.14 C 153.80 333.95, 152.91 332.75, 152.04 331.53 C 151.17 330.31, 150.33 329.08, 149.50 327.84 C 148.67 326.59, 147.87 325.33, 147.08 324.06 C 146.30 322.79, 145.53 321.50, 144.78 320.21 C 144.04 318.92, 143.31 317.61, 142.60 316.29 C 141.89 314.98, 141.20 313.65, 140.52 312.32 C 139.84 310.99, 139.17 309.66, 138.51 308.31 C 137.85 306.97, 137.19 305.62, 136.56 304.26 C 135.93 302.90, 135.30 301.53, 134.71 300.15 C 134.11 298.77, 133.53 297.38, 132.98 295.97 C 132.44 294.57, 131.92 293.15, 131.44 291.72 C 130.97 290.29, 130.52 288.84, 130.13 287.38 C 129.73 285.93, 129.38 284.46, 129.07 282.98 C 128.77 281.50, 128.51 280.01, 128.29 278.52 C 128.08 277.02, 127.91 275.52, 127.78 274.02 C 127.64 272.52, 127.56 271.01, 127.50 269.51 C 127.43 268.00, 127.41 266.50, 127.41 264.99 C 127.40 263.49, 127.43 261.99, 127.48 260.49 C 127.52 258.99, 127.59 257.49, 127.68 256.00 C 127.78 254.51, 127.90 253.02, 128.04 251.53 C 128.17 250.05, 128.33 248.56, 128.49 247.08 C 128.65 245.60, 128.83 244.13, 129.01 242.65 C 129.19 241.18, 129.37 239.70, 129.57 238.23 C 129.77 236.76, 129.98 235.29, 130.20 233.82 C 130.42 232.35, 130.65 230.88, 130.91 229.41 C 131.16 227.94, 131.43 226.48, 131.72 225.01 C 132.02 223.55, 132.33 222.09, 132.68 220.64 C 133.02 219.18, 133.39 217.73, 133.79 216.29 C 134.19 214.85, 134.63 213.42, 135.09 211.99 C 135.55 210.57, 136.05 209.15, 136.57 207.75 C 137.10 206.35, 137.66 204.95, 138.24 203.57 C 138.82 202.19, 139.44 200.82, 140.07 199.46 C 140.71 198.10, 141.37 196.75, 142.04 195.41 C 142.71 194.06, 143.40 192.73, 144.11 191.40 C 144.82 190.08, 145.55 188.76, 146.29 187.45 C 147.04 186.14, 147.80 184.84, 148.59 183.55 C 149.37 182.26, 150.18 180.98, 151.01 179.72 C 151.84 178.46, 152.69 177.21, 153.57 175.97 C 154.45 174.74, 155.35 173.52, 156.28 172.32 C 157.20 171.12, 158.15 169.94, 159.12 168.77 C 160.10 167.61, 161.09 166.46, 162.11 165.33 C 163.13 164.20, 164.16 163.09, 165.23 162.00 C 166.29 160.91, 167.37 159.84, 168.47 158.79 C 169.58 157.74, 170.70 156.72, 171.85 155.72 C 173.00 154.72, 174.17 153.74, 175.36 152.79 C 176.55 151.84, 177.77 150.92, 179.00 150.02 C 180.23 149.12, 181.48 148.25, 182.76 147.41 C 184.03 146.57, 185.32 145.76, 186.63 144.98 C 187.94 144.21, 189.27 143.46, 190.62 142.76 C 191.97 142.05, 193.34 141.38, 194.72 140.75 C 196.10 140.11, 197.50 139.52, 198.91 138.95 C 200.32 138.38, 201.74 137.85, 203.17 137.35 C 204.60 136.84, 206.04 136.37, 207.49 135.92 C 208.93 135.47, 210.38 135.06, 211.83 134.65 C 213.29 134.25, 214.74 133.87, 216.20 133.51 C 217.66 133.14, 219.12 132.80, 220.58 132.46 C 222.04 132.13, 223.50 131.81, 224.96 131.50 C 226.42 131.19, 227.88 130.90, 229.35 130.62 C 230.81 130.33, 232.28 130.06, 233.75 129.82 C 235.22 129.57, 236.69 129.33, 238.17 129.12 C 239.64 128.92, 241.12 128.74, 242.61 128.57 C 244.09 128.41, 245.57 128.26, 247.06 128.14 C 248.55 128.02, 250.03 127.91, 251.52 127.83 C 253.01 127.75, 254.51 127.69, 256.00 127.66 C 257.49 127.64, 258.99 127.64, 260.48 127.68 C 261.97 127.72, 263.47 127.79, 264.96 127.90 C 266.45 128.01, 267.94 128.16, 269.42 128.35 C 270.90 128.53, 272.38 128.76, 273.85 129.01 C 275.32 129.27, 276.78 129.56, 278.24 129.87 C 279.70 130.18, 281.15 130.53, 282.59 130.89 C 284.04 131.24, 285.48 131.63, 286.91 132.02 C 288.35 132.41, 289.78 132.82, 291.20 133.24 C 292.63 133.65, 294.05 134.08, 295.47 134.53 C 296.89 134.98, 298.30 135.44, 299.71 135.92 C 301.11 136.40, 302.52 136.89, 303.92 137.39 C 305.33 137.89, 306.73 138.40, 308.13 138.92 C 309.52 139.45, 310.92 139.99, 312.31 140.55 C 313.70 141.11, 315.09 141.68, 316.46 142.29 C 317.84 142.89, 319.21 143.52, 320.56 144.18 C 321.92 144.83, 323.26 145.52, 324.59 146.24 C 325.91 146.95, 327.23 147.70, 328.52 148.48 C 329.82 149.26, 331.09 150.07, 332.35 150.91 C 333.61 151.74, 334.86 152.61, 336.08 153.50 C 337.30 154.39, 338.51 155.31, 339.70 156.25 C 340.89 157.19, 342.06 158.16, 343.21 159.14 C 344.36 160.13, 345.50 161.14, 346.61 162.17 C 347.72 163.20, 348.82 164.25, 349.89 165.33 C 350.96 166.41, 352.01 167.51, 353.03 168.63 C 354.06 169.75, 355.06 170.90, 356.03 172.07 C 357.00 173.23, 357.95 174.42, 358.86 175.64 C 359.77 176.85, 360.66 178.09, 361.50 179.35 C 362.35 180.61, 363.16 181.90, 363.92 183.20 C 364.69 184.51, 365.42 185.85, 366.11 187.19 C 366.80 188.54, 367.45 189.91, 368.07 191.29 C 368.70 192.67, 369.28 194.07, 369.84 195.47 C 370.40 196.87, 370.92 198.29, 371.44 199.70 C 371.95 201.11, 372.44 202.53, 372.93 203.94 C 373.42 205.35, 373.89 206.77, 374.36 208.18 C 374.84 209.59, 375.30 211.00, 375.77 212.41 C 376.24 213.82, 376.70 215.22, 377.16 216.63 C 377.62 218.04, 378.08 219.45, 378.52 220.87 C 378.96 222.28, 379.40 223.70, 379.81 225.13 C 380.21 226.56, 380.61 227.99, 380.97 229.44 C 381.34 230.88, 381.68 232.33, 381.98 233.79 C 382.29 235.24, 382.56 236.71, 382.80 238.18 C 383.04 239.65, 383.24 241.13, 383.41 242.61 C 383.58 244.09, 383.72 245.58, 383.82 247.06 C 383.93 248.55, 384.00 250.04, 384.04 251.53 C 384.09 253.02, 384.06 255.25, 384.09 256.00 C 384.12 256.75, 384.22 255.25, 384.22 256.00 Z" stroke-width="2.40" opacity="0.59"/>
    <path d="M 379.05 256.00 C 379.07 256.72, 379.13 258.87, 379.13 260.30 C 379.13 261.73, 379.10 263.17, 379.03 264.60 C 378.96 266.04, 378.87 267.47, 378.73 268.90 C 378.60 270.33, 378.43 271.76, 378.23 273.18 C 378.03 274.60, 377.79 276.02, 377.52 277.43 C 377.26 278.84, 376.95 280.24, 376.62 281.64 C 376.29 283.03, 375.92 284.42, 375.53 285.80 C 375.14 287.18, 374.72 288.55, 374.27 289.91 C 373.83 291.27, 373.35 292.63, 372.86 293.97 C 372.36 295.31, 371.84 296.64, 371.31 297.97 C 370.77 299.29, 370.21 300.61, 369.64 301.91 C 369.06 303.22, 368.47 304.51, 367.86 305.80 C 367.25 307.09, 366.62 308.37, 365.98 309.64 C 365.33 310.91, 364.67 312.17, 364.00 313.42 C 363.32 314.67, 362.62 315.92, 361.91 317.15 C 361.19 318.38, 360.46 319.59, 359.70 320.80 C 358.94 322.00, 358.16 323.19, 357.37 324.37 C 356.57 325.55, 355.75 326.71, 354.91 327.87 C 354.08 329.02, 353.22 330.15, 352.35 331.28 C 351.48 332.40, 350.59 333.52, 349.69 334.62 C 348.79 335.72, 347.87 336.80, 346.94 337.88 C 346.00 338.96, 345.06 340.02, 344.09 341.07 C 343.13 342.12, 342.15 343.16, 341.15 344.18 C 340.16 345.20, 339.14 346.21, 338.11 347.20 C 337.08 348.19, 336.04 349.16, 334.97 350.11 C 333.91 351.07, 332.82 352.00, 331.72 352.92 C 330.62 353.83, 329.49 354.72, 328.35 355.58 C 327.21 356.45, 326.05 357.29, 324.87 358.11 C 323.69 358.92, 322.50 359.71, 321.29 360.48 C 320.08 361.25, 318.85 361.99, 317.61 362.71 C 316.37 363.43, 315.11 364.12, 313.85 364.80 C 312.59 365.48, 311.31 366.14, 310.03 366.77 C 308.74 367.41, 307.45 368.02, 306.14 368.62 C 304.83 369.21, 303.52 369.79, 302.19 370.33 C 300.87 370.88, 299.53 371.41, 298.19 371.92 C 296.85 372.42, 295.49 372.90, 294.13 373.35 C 292.77 373.80, 291.39 374.23, 290.01 374.62 C 288.63 375.02, 287.25 375.39, 285.85 375.72 C 284.46 376.06, 283.05 376.37, 281.65 376.65 C 280.24 376.93, 278.82 377.18, 277.41 377.41 C 275.99 377.63, 274.57 377.82, 273.14 377.99 C 271.72 378.16, 270.29 378.30, 268.87 378.42 C 267.44 378.54, 266.01 378.64, 264.58 378.71 C 263.15 378.78, 261.72 378.83, 260.29 378.86 C 258.86 378.89, 257.43 378.90, 256.00 378.88 C 254.57 378.86, 253.14 378.82, 251.71 378.74 C 250.29 378.67, 248.86 378.56, 247.44 378.43 C 246.02 378.30, 244.60 378.13, 243.18 377.94 C 241.77 377.75, 240.36 377.54, 238.95 377.30 C 237.55 377.06, 236.15 376.80, 234.75 376.52 C 233.35 376.24, 231.96 375.94, 230.57 375.62 C 229.19 375.31, 227.80 374.98, 226.42 374.63 C 225.04 374.28, 223.67 373.92, 222.29 373.55 C 220.92 373.17, 219.55 372.78, 218.19 372.38 C 216.82 371.97, 215.46 371.55, 214.10 371.11 C 212.75 370.66, 211.40 370.21, 210.05 369.72 C 208.71 369.24, 207.37 368.74, 206.04 368.21 C 204.71 367.68, 203.39 367.13, 202.08 366.55 C 200.77 365.97, 199.47 365.37, 198.18 364.74 C 196.89 364.12, 195.61 363.47, 194.34 362.79 C 193.07 362.12, 191.81 361.43, 190.57 360.71 C 189.32 360.00, 188.08 359.26, 186.86 358.50 C 185.64 357.74, 184.43 356.96, 183.24 356.15 C 182.04 355.34, 180.87 354.51, 179.71 353.65 C 178.55 352.79, 177.41 351.90, 176.30 350.99 C 175.18 350.07, 174.09 349.13, 173.01 348.17 C 171.94 347.20, 170.89 346.21, 169.86 345.20 C 168.83 344.19, 167.82 343.16, 166.84 342.10 C 165.85 341.05, 164.89 339.98, 163.94 338.89 C 163.00 337.80, 162.07 336.69, 161.17 335.57 C 160.26 334.45, 159.38 333.32, 158.51 332.17 C 157.64 331.02, 156.79 329.86, 155.96 328.68 C 155.14 327.50, 154.33 326.31, 153.54 325.11 C 152.75 323.91, 151.99 322.69, 151.24 321.46 C 150.50 320.23, 149.78 318.98, 149.08 317.73 C 148.39 316.47, 147.71 315.20, 147.06 313.92 C 146.41 312.64, 145.78 311.35, 145.17 310.05 C 144.56 308.76, 143.97 307.45, 143.40 306.13 C 142.83 304.82, 142.28 303.49, 141.75 302.16 C 141.22 300.83, 140.71 299.49, 140.22 298.14 C 139.73 296.79, 139.25 295.44, 138.81 294.08 C 138.36 292.72, 137.93 291.35, 137.53 289.97 C 137.12 288.60, 136.74 287.21, 136.39 285.82 C 136.04 284.43, 135.71 283.04, 135.41 281.63 C 135.11 280.23, 134.84 278.82, 134.59 277.41 C 134.35 275.99, 134.14 274.57, 133.96 273.15 C 133.78 271.73, 133.63 270.30, 133.51 268.87 C 133.40 267.45, 133.31 266.01, 133.26 264.58 C 133.20 263.15, 133.18 261.72, 133.19 260.29 C 133.19 258.86, 133.23 257.43, 133.29 256.00 C 133.35 254.57, 133.44 253.15, 133.55 251.72 C 133.66 250.30, 133.79 248.88, 133.94 247.46 C 134.08 246.05, 134.25 244.63, 134.42 243.22 C 134.60 241.81, 134.80 240.40, 135.01 239.00 C 135.22 237.59, 135.45 236.19, 135.69 234.79 C 135.93 233.38, 136.19 231.99, 136.46 230.59 C 136.73 229.20, 137.02 227.80, 137.34 226.41 C 137.65 225.02, 137.97 223.64, 138.32 222.26 C 138.67 220.88, 139.04 219.50, 139.44 218.13 C 139.83 216.76, 140.25 215.39, 140.69 214.03 C 141.14 212.67, 141.60 211.32, 142.10 209.98 C 142.59 208.64, 143.11 207.30, 143.66 205.98 C 144.21 204.66, 144.78 203.35, 145.38 202.05 C 145.98 200.75, 146.61 199.46, 147.26 198.18 C 147.91 196.91, 148.59 195.64, 149.29 194.39 C 149.98 193.14, 150.70 191.89, 151.44 190.67 C 152.18 189.44, 152.94 188.22, 153.73 187.02 C 154.51 185.81, 155.32 184.62, 156.15 183.45 C 156.98 182.28, 157.83 181.12, 158.71 179.99 C 159.58 178.85, 160.49 177.73, 161.41 176.63 C 162.33 175.53, 163.28 174.45, 164.25 173.39 C 165.22 172.33, 166.21 171.29, 167.22 170.27 C 168.23 169.24, 169.26 168.24, 170.30 167.26 C 171.35 166.27, 172.41 165.31, 173.49 164.36 C 174.57 163.42, 175.66 162.49, 176.77 161.57 C 177.87 160.66, 178.99 159.76, 180.13 158.89 C 181.26 158.01, 182.41 157.15, 183.57 156.30 C 184.73 155.46, 185.90 154.64, 187.09 153.84 C 188.28 153.03, 189.48 152.25, 190.70 151.49 C 191.91 150.73, 193.14 149.99, 194.38 149.28 C 195.62 148.56, 196.88 147.87, 198.14 147.19 C 199.41 146.51, 200.69 145.86, 201.97 145.22 C 203.26 144.59, 204.55 143.97, 205.86 143.37 C 207.16 142.78, 208.48 142.20, 209.80 141.65 C 211.12 141.10, 212.46 140.57, 213.80 140.07 C 215.15 139.56, 216.50 139.08, 217.87 138.63 C 219.23 138.19, 220.60 137.76, 221.98 137.37 C 223.36 136.98, 224.75 136.61, 226.15 136.28 C 227.55 135.95, 228.95 135.64, 230.36 135.37 C 231.77 135.09, 233.18 134.85, 234.60 134.63 C 236.02 134.41, 237.44 134.22, 238.86 134.06 C 240.29 133.89, 241.71 133.75, 243.14 133.63 C 244.57 133.51, 245.99 133.42, 247.42 133.34 C 248.85 133.26, 250.28 133.20, 251.71 133.17 C 253.14 133.13, 254.57 133.11, 256.00 133.12 C 257.43 133.13, 258.86 133.16, 260.29 133.21 C 261.72 133.25, 263.14 133.32, 264.57 133.41 C 266.00 133.49, 267.43 133.59, 268.85 133.71 C 270.28 133.83, 271.70 133.96, 273.13 134.12 C 274.55 134.27, 275.98 134.43, 277.40 134.62 C 278.82 134.81, 280.25 135.02, 281.67 135.25 C 283.09 135.48, 284.50 135.73, 285.92 136.00 C 287.33 136.28, 288.74 136.58, 290.15 136.90 C 291.56 137.23, 292.96 137.58, 294.35 137.97 C 295.74 138.35, 297.13 138.76, 298.51 139.20 C 299.89 139.65, 301.26 140.12, 302.62 140.62 C 303.97 141.13, 305.32 141.66, 306.66 142.22 C 307.99 142.79, 309.31 143.38, 310.62 144.01 C 311.93 144.63, 313.23 145.29, 314.51 145.97 C 315.79 146.65, 317.05 147.35, 318.30 148.09 C 319.55 148.82, 320.79 149.58, 322.01 150.36 C 323.23 151.14, 324.43 151.95, 325.62 152.79 C 326.80 153.62, 327.97 154.49, 329.11 155.37 C 330.25 156.26, 331.38 157.17, 332.48 158.11 C 333.58 159.05, 334.66 160.01, 335.72 160.99 C 336.78 161.98, 337.82 162.98, 338.83 164.01 C 339.85 165.03, 340.84 166.08, 341.81 167.14 C 342.79 168.20, 343.74 169.28, 344.68 170.37 C 345.61 171.46, 346.53 172.56, 347.43 173.68 C 348.33 174.79, 349.21 175.92, 350.08 177.06 C 350.95 178.19, 351.80 179.34, 352.64 180.49 C 353.49 181.65, 354.31 182.81, 355.13 183.98 C 355.95 185.15, 356.75 186.32, 357.54 187.51 C 358.33 188.70, 359.11 189.89, 359.88 191.09 C 360.64 192.30, 361.39 193.51, 362.12 194.73 C 362.85 195.95, 363.57 197.19, 364.26 198.43 C 364.96 199.68, 365.63 200.94, 366.28 202.21 C 366.93 203.48, 367.56 204.77, 368.16 206.06 C 368.77 207.36, 369.34 208.67, 369.89 209.99 C 370.44 211.31, 370.96 212.64, 371.45 213.98 C 371.94 215.32, 372.40 216.68, 372.84 218.04 C 373.27 219.40, 373.68 220.77, 374.06 222.15 C 374.44 223.53, 374.79 224.91, 375.12 226.30 C 375.44 227.69, 375.74 229.09, 376.03 230.49 C 376.31 231.89, 376.57 233.29, 376.81 234.70 C 377.05 236.11, 377.26 237.52, 377.47 238.93 C 377.67 240.34, 377.85 241.76, 378.02 243.17 C 378.19 244.59, 378.34 246.01, 378.48 247.44 C 378.61 248.86, 378.73 250.28, 378.82 251.71 C 378.92 253.14, 379.01 255.29, 379.05 256.00 C 379.09 256.71, 379.04 255.28, 379.05 256.00 Z" stroke-width="2.52" opacity="0.65"/>
  </g>
</svg>